<svg xmlns="http://www.w3.org/2000/svg" viewBox="0 0 326 96"><path d="M68.71,79.47h-.06l.06.05Z" fill="#1c1b0a"/><polygon points="68.78 79.56 68.78 79.56 68.78 79.57 68.78 79.56" fill="#1c1b0a"/><path d="M101.36,76.73l.07.09.07.09.07.09.06.09.07.09.07.09.07.09a.86.86,0,0,0,.07.1l.07.09.07.09.07.09.07.09.07.09.07.09.07.1.07.09.06.09.07.09.07.09.07.09.07.09.07.09a.86.86,0,0,0,.07.1,4.88,4.88,0,0,0,.86.9,5.48,5.48,0,0,0,2.42,1.06l-4.94-4.15Z" fill="#1c1b0a"/><path d="M83.43,37.73h-.07l0,0Z" fill="#1c1b0a"/><path d="M83.31,37.7l0-.05h-.1Z" fill="#1c1b0a"/><path d="M83.22,37.63l.07-.07-.14,0Z" fill="#1c1b0a"/><path d="M83.13,37.56l.09-.09-.17,0Z" fill="#1c1b0a"/><path d="M297.35,46.94l.11.07,0,0,.11.07,0,0,.11.07,0,0,.11.07,0,0,.11.07,0,0,.11.07,0,0,.11.07,0,0,.11.07,0,0,.1.07,0,0,.1.07,0,0,.11.07,0,.05.11.07,0,0,.11.07,0,0,.11.07,0,0,.11.07,0,0,.11.07,0,0,.11.07,0,0,.11.07,0,0,.11.07,0,0,.11.07,0,0,.11.07,0,0,.1.06,0,0,.1.07,0,0,.1.07,0,0,.11.07,0,0,.11.07,0,.05.11.07,0,0,.11.07,0,0,0,0,.06,0h0l3.66,3.93a20.35,20.35,0,0,1,1.73,1.58,22.48,22.48,0,0,0,3.72,3.06l.17.09c-4.47-4.89-6.7-7.3-11.17-12Z" fill="#1c1b0a"/><path d="M3.76,72.88l.05,0,0,0Z" fill="#1c1b0a"/><path d="M8.72,77.28l.08,0L3.86,73l0,0L4,73l-.05,0,.12.05,0,0,.12.06,0,0,.12.06-.06,0,.13.06-.06,0,.13.06-.06,0,.13,0-.06,0,.13.06-.06,0,.13.06-.06,0,.12.06-.05,0,.12.06,0,0,.12.05,0,0,.12,0,0,0,.12.06,0,0,.12.06,0,0,.12.06,0,0,.12.06-.06,0,.13,0-.06,0,.13.06-.06,0,.13.06-.06,0,.13.06-.06,0,.13.06-.06,0,.12,0,0,0,.12.06,0,0,.12.06-.05,0,.12.06,0,0,.12.06,0,0,.12.05-.05,0,.12,0,0,0L6,75.7l0,0,.12.06-.06,0,.13.06-.06,0,.13.06-.06,0,.13,0-.06,0Z" fill="#1c1b0a"/><path d="M14.86,93.63a7.56,7.56,0,0,1-.65-.57Z" fill="#1c1b0a"/><path d="M10.31,87.94l.07.09.07.09a.61.61,0,0,1,.07.1l.07.09.07.09.07.09.07.1.07.09.07.09.07.09.07.1.07.09.07.09.06.09.07.09.07.1.07.09.07.09.07.09a.86.86,0,0,0,.07.1l.07.09.07.09.07.09a.61.61,0,0,0,.07.1l.07.09.07.09.06.09a.61.61,0,0,1,.07.1l.07.09.07.09,0,0L17,94.81a14.71,14.71,0,0,0,1.94.61L10,87.48A4.63,4.63,0,0,0,10.31,87.94Z" fill="#1c1b0a"/><path d="M259.27,64.64h0l0,0Z" fill="#1c1b0a"/><path d="M259.2,64.54h-.06l.06,0Z" fill="#1c1b0a"/><path d="M217.63,64.79l.07.1.07.1.07.1.07.1.07.1.06.1.06.08c.28.41.57.81.87,1.19a21,21,0,0,0,6.88,5.77c-3.29-3.09-4.94-4.62-8.22-7.65Z" fill="#1c1b0a"/><polygon points="325.78 54.11 325.78 54.11 325.78 54.11 325.78 54.11" fill="#1c1b0a"/><path d="M325.62,53.93l0,0-.09,0Z" fill="#1c1b0a"/><path d="M325.71,54h0l0,0Z" fill="#1c1b0a"/><path d="M293.11,54.74h0l0,0Z" fill="#1c1b0a"/><path d="M300.88,52.65l0,0,0,0Z" fill="#1c1b0a"/><path d="M173,69.07a.36.36,0,0,0,.07.1l.07.1.07.09.07.1.06.09a4.81,4.81,0,0,0,.86.94,5.35,5.35,0,0,0,1.39.8l-2.7-2.36,0,0Z" fill="#1c1b0a"/><path d="M164.19,73.79h0s.05.06.07.1h0l.07.09h0s0,.06.07.1h0l.07.09h0a.71.71,0,0,0,.07.09h0l.07.09h0a.31.31,0,0,0,.07.09h0l.07.09h0l.06.09h0l.06.09h0l.06.09h0l.07.09h0l.07.09h0l.07.09h0l.07.09h0l.07.09h0l.07.09h0l.07.09h0l.07.09h0l.07.09h0l.07.09h0l.07.09h0l.06.09h0l.06.09h0l.06.09h0l.07.09h0l.07.09h0l.07.09h0l.07.09h0l.07.09h0l.07.09h0l.07.09h0a2.62,2.62,0,0,0,.23.32l1.4,1.22a4.44,4.44,0,0,0,2,.51c-2.37-2.07-3.55-3.11-5.92-5.16Z" fill="#1c1b0a"/><path d="M185.3,20.58l.07-.08-.13,0Z" fill="#1c1b0a"/><path d="M185.39,20.65l.05-.06-.1,0Z" fill="#1c1b0a"/><path d="M185.22,20.5l.08-.09-.17,0Z" fill="#1c1b0a"/><path d="M185.51,20.69h-.06l0,0Z" fill="#1c1b0a"/><path d="M207,53h0l0,0Z" fill="#1c1b0a"/><path d="M185.58,20.78h0Z" fill="#1c1b0a"/><path d="M207,53.07l0,0,0,.12,0,0,0,.11h0l0,.11h0l0,.11h0l0,.11,0,0,0,.12,0,0,0,.11h0l0,.11h0l0,.11h0l0,.11h0l0,.11,0,0,0,.12,0,0,.05.11h0l.05.11h0l0,.11h0l0,.11h0l0,.11,0,0,0,.12,0,0,0,.11h0l0,.11h0l0,.11h0l0,.11.61-.31L207,53Z" fill="#1c1b0a"/><path d="M202.23,37.29l-.07,0,.07.06Z" fill="#1c1b0a"/><path d="M190.8,38.11V32.73a4,4,0,0,0-.82-2.55,2.23,2.23,0,0,0-2.29-.81,3.55,3.55,0,0,0-2.34,1.35,4.57,4.57,0,0,0-.88,2.91V45.7a17.76,17.76,0,0,1,2.69-4.24A19.76,19.76,0,0,1,190.8,38.11Z" fill="#1c1b0a"/><path d="M128.57,55.15a9.53,9.53,0,0,0-1.42,5.11,4.15,4.15,0,0,0,1.11,3.18,3.34,3.34,0,0,0,2.91.78,4,4,0,0,0,2.77-1.47,4.35,4.35,0,0,0,.9-2.65,2.29,2.29,0,0,0-.68-1.79,2,2,0,0,0-1.75-.46,3,3,0,0,0-1.64.9,2.07,2.07,0,0,1-.45-1.37,3.62,3.62,0,0,1,1-2.41,4.3,4.3,0,0,1,2.74-1.4,4.14,4.14,0,0,1,.9,0V47.22c-.3.42-1.09,1.38-2.37,2.8A36.11,36.11,0,0,0,128.57,55.15Z" fill="#1c1b0a"/><path d="M88,53.57v-5a3.59,3.59,0,0,0-.82-2.38,2.36,2.36,0,0,0-2.29-.8,3.56,3.56,0,0,0-2.34,1.21,3.92,3.92,0,0,0-.88,2.66V60.47a15.43,15.43,0,0,1,2.69-3.86A19,19,0,0,1,88,53.57Z" fill="#1c1b0a"/><path d="M325.59,56.2c.17-.37.25-.56.41-.93-1.18-1.33-2.37-2.64-3.55-4a2,2,0,0,0,.14-.25l.15-.34c.93,1,1.87,2.07,2.8,3.12l0-.08-.11,0,0-.09-.11,0,0-.09-.1,0,0-.08-.1,0,0-.09-.1,0,0-.09-.1,0,0-.08-.1,0,0-.08-.11,0,0-.09-.11,0,0-.09-.11,0,0-.08-.11,0,0-.09-.11,0,0-.09-.11,0,0-.09-.11,0,0-.08-.11,0,0-.09-.11,0,0-.09-.1,0,0-.08-.1,0,0-.08-.1,0,0-.09-.1,0,0-.09-.1,0,0-.08-.05,0v-.5c-.3-.35-.61-.68-.92-1l.27-.6.65.73v-1.4l-2.19-2.43h0L321.8,46v0h-.05l0,0,0-.06-.1,0h0l0-.09-.1,0,0-.08-.1,0,0-.09-.11,0,0-.09h-.05v-.69l2.65,2.93v-.51c0-.33,0-.61,0-.88l-2.66-2.94v-.91l2.7,3a8.06,8.06,0,0,1,.15-1.23l-2.85-3.18c0-.32,0-.62,0-.88l3,3.39a3.37,3.37,0,0,1,.4-.78l.06-.09c-1.13-1.28-2.28-2.53-3.42-3.79a6.31,6.31,0,0,1,.12-.71.08.08,0,0,1,0,0c1.21,1.35,2.43,2.68,3.64,4l.44-.62-.08-.11h0l-.08-.11h0l-.08-.1h0l-.08-.11h0l-.08-.11h0l-.07-.1h0l-.07-.11h0l0,0c-1.06-1.18-2.13-2.35-3.19-3.52a2.37,2.37,0,0,1,.19-.35l.15-.21c.61.69,1.23,1.36,1.84,2.05a13.6,13.6,0,0,1-.13-1.55l-1.16-1.29.16-.22-.08-.11h0l-.08-.11h0l-.08-.1h0L322.8,35h0l-.07-.1h0l-.07-.11h0l-.07-.11h0l-.07-.1h0l-.07-.11h0l-.07-.1h0l-.08-.11h0l-.08-.11h0l-.08-.1h0l0,0,1.9,2.13v-1.4l-2.59-2.89c0-.27,0-.58-.05-.95.82.91,1.69,1.87,2.64,2.94v-1.4l-2.65-3v-.89l2.65,2.95v-1.4l-2.65-2.95v-.9l2.68,3a3.33,3.33,0,0,1,.25-1.13l-2.93-3.25V24c1,1.09,2,2.25,3.32,3.68l.07,0,.84-.34c-1.64-1.82-2.88-3.21-4.11-4.56a2,2,0,0,1,.24-.64c1.27,1.4,2.52,2.79,4.21,4.68v-1.4l-3.43-3.81.59-.24c.85.93,1.71,1.9,2.84,3.15v-.82h-.07v-.12h-.07v-.11h-.07v-.12h-.07v-.12h-.07V23h-.06v-.12h-.07V22.8h-.07v-.12h-.07v-.12h-.07v-.11h-.07v-.12h-.07v-.11h-.07V22.1H325V22H325v-.11h-.07V21.8l0-.05h0v0l-1.47-1.63V17.7h-.07v-.12h-.07v-.11h-.07v-.12h-.07v-.12H323v-.12h-.07V17h-.07v-.12h-.07v-.12h-.07v-.12h-.07v-.12h-.07v-.11h-.07v-.12h-.07V16.2h-.07v-.12h-.07V16h-.07v-.12h-.07v-.11h-.07v-.12H322v-.11H322v-.12h-.07v-.11h-.07v-.12h-.07v-.11h-.07v-.12h-.07v-.11h-.07V14.7h-.07v-.11h-.07v-.12h-.07v-.12h-.07v-.12h-.07v-.12h-.07V14h-.06V13.9H321v-.11h-.07v-.12h-.07v-.11h-.07v-.12h-.07v-.11h-.07v-.12h-.07V13.1h-.07V13h-.07v-.11h-.07v-.12h-.07v-.12h-.07v-.12h-.07v-.12h-.06V12.3H320v-.12H320v-.11h-.07V12h-.07v-.11c-8.24.18-16.51.57-24.73,1.13v.69a3.12,3.12,0,0,0-1.12-.11,3.19,3.19,0,0,0-.63.09,5.9,5.9,0,0,0-4.12-1,6.65,6.65,0,0,0-4.31,2.06c-.19.2-.38.4-.57.62a3.33,3.33,0,0,0-.46-.46A5,5,0,0,0,280,13.71a5.53,5.53,0,0,0-2.69.94,6,6,0,0,0-.95.83h0v-.12h-.07v-.11h-.07v-.11h-.07v-.12h-.07V15H276v-.11h-.07v-.11h-.06v-.11h-.07v-.12c-7.29.68-11.39,1.11-17.89,1.87-.07-.28-.14-.55-.23-.82l-2.22-2.11a2.71,2.71,0,0,0,0-.29c0-.2,0-.39,0-.58L256.86,14v0l-.06-.1-.07-.1-.07-.11a.86.86,0,0,1-.07-.1l-.07-.1-.07-.11a.86.86,0,0,1-.07-.1l-.07-.1a.86.86,0,0,0-.07-.1l-.07-.11-.07-.1a.36.36,0,0,0-.07-.1L256,12.6l-.07-.1-.06-.1-.07-.1-.07-.11a.86.86,0,0,1-.07-.1.86.86,0,0,0-.07-.1l-.07-.11a.86.86,0,0,1-.07-.1l-.05-.07a6.77,6.77,0,0,0-.94-2.81l-.07-.1a.36.36,0,0,0-.07-.1.36.36,0,0,0-.07-.1l-.06-.11a.36.36,0,0,1-.07-.1.61.61,0,0,1-.07-.1.86.86,0,0,0-.07-.1l-.07-.11a.86.86,0,0,1-.07-.1l-.07-.1a.86.86,0,0,0-.07-.1l-.07-.11a.86.86,0,0,1-.07-.1.86.86,0,0,1-.07-.1.36.36,0,0,0-.07-.1.36.36,0,0,0-.07-.1l-.07-.11-.06-.1a.61.61,0,0,1-.07-.1l-.07-.1a.86.86,0,0,0-.07-.1l-.07-.11a.86.86,0,0,1-.07-.1l-.07-.1a.86.86,0,0,0-.07-.1l-.07-.11a.86.86,0,0,1-.07-.1l-.07-.1a.61.61,0,0,0-.07-.1.36.36,0,0,0-.07-.1l-.07-.11-.06-.1a.36.36,0,0,1-.07-.1.61.61,0,0,1-.07-.1.86.86,0,0,0-.07-.1.86.86,0,0,0-.07-.1l-.07-.11a.86.86,0,0,1-.07-.1l-.07-.1a.86.86,0,0,0-.07-.1.86.86,0,0,0-.07-.1l-.07-.11-.07-.1-.07-.1-.06-.1-.07-.1-.07-.1L251.09,4a.86.86,0,0,1-.07-.1L251,3.8a5.51,5.51,0,0,0-.76-1L247.29,0c-.06,1.79-.09,2.69-.14,4.48a2.82,2.82,0,0,1-1,1.89,9.93,9.93,0,0,1-1.26,1.12.05.05,0,0,1,0,0,.36.36,0,0,1-.07-.1.61.61,0,0,1-.07-.1.61.61,0,0,1-.07-.1.61.61,0,0,1-.07-.1.61.61,0,0,1-.07-.1.61.61,0,0,1-.07-.1l-.07-.1a.61.61,0,0,0-.07-.1.61.61,0,0,0-.07-.1.36.36,0,0,0-.07-.1.36.36,0,0,0-.07-.1,13.8,13.8,0,0,0-3.36-3.19,11.18,11.18,0,0,0-8.14-1.57,25.69,25.69,0,0,0-12.74,6.2,38.8,38.8,0,0,0-13.21,28.38,6.81,6.81,0,0,0-3.37,1.88c-.19.2-.37.39-.53.58l-1.34-1.19c0-.32.06-.56.09-.74l.62.55v0l-.08,0V37.1l-.08,0,0-.06L202,37v-.05l-.08,0v-.06l-.08,0v-.06l-.08,0v-.05l-.08,0v-.06l-.08,0v-.06h0l.22-1.09-.08,0v-.05l-.08,0v-.06l-.08,0V35l-.08,0v-.05l-.08,0v-.06l-.08,0v-.06l-.08,0,0-.05-.08,0v-.06l-.08,0v0l-.08-.05v0l-.08,0v-.06l-.08,0v0l-.08,0v-.06l-.08,0V34l-.08,0v0l-.08,0v-.06l-.08,0v-.06l-.08,0v0l-.08,0v-.06l-.08,0v-.06l-.08,0,0-.05-.08,0V33.2l-.08,0v0l-.08,0V33l-.08,0v-.06l-.08,0v0l-.08,0v-.06l-.08,0v-.06l-.08,0v0l-.08,0v-.06l-.08,0v0l-.08,0v-.06l-.08,0v-.06l-.08,0,0-.05-.09,0,0-.06-.08,0v-.05l-.08,0v-.06l-.08,0v-.06l-.08,0v-.05l-.08,0v-.06l-.08,0v-.06l-.08,0v0l-.08,0v-.06l-.08,0v-.05l-.08,0V31l-.08,0v-.06l-.08,0V30.8l-.08,0,0-.06-.09,0,0-.05-.08,0v-.06l-.08,0v-.06l-1-.51a4.56,4.56,0,0,1-.94-.65c-.42-.36-.72-.6-.95-.77a13.32,13.32,0,0,0-3.25-2.23,7.63,7.63,0,0,0-4.45-.41,10.68,10.68,0,0,0-4.72,1.94c-.3.22-.6.46-.91.72l0,0s0,0,0,0l-.05-.06,0,0,0,0s0,0,0,0l0-.06,0,0-.05-.06s0,0,0,0l-.05-.06,0,0-.05-.06s0,0,0,0l0-.05a.05.05,0,0,0,0,0l-.05-.06s0,0,0,0l0-.06a8.33,8.33,0,0,1,.22-.86.78.78,0,0,0,0-.14l-2.75-2.33c-.11-.14-.22-.27-.36-.46,0-.19.06-.39.09-.59L181.87,26a5.39,5.39,0,0,1,.47-.87c-1.38-1.18-2.46-2.08-3.5-3,0-.12,0-.23.09-.35l.11-.3c1.11.93,2.22,1.88,3.69,3.13l.65-.73-3.93-3.32a4.4,4.4,0,0,1,.34-.53l4,3.39.65-.72-4-3.4.41-.47c1.28,1.07,2.38,2,4,3.4l.65-.72-4-3.4c.14-.15.28-.31.41-.47l3.24,2.74.1-.12-.18,0,.11-.12-.18,0,.11-.13-.18,0L185,20l-.18,0,.11-.12-.18,0,.11-.13-.18,0,.11-.12-.18,0,.11-.13-.18,0,.11-.12-.18,0,.11-.12-.18,0,.11-.13-.18,0,.11-.12-.18,0,.11-.13-.18,0,.11-.12-.18,0,.11-.12-.18,0,.11-.13-.18,0,.11-.12-.18,0,.12-.13-.18,0,.11-.13-.18,0,.11-.12-.18,0,.11-.13-.18,0,.11-.12-.18,0,.11-.12-.18,0,.11-.13-.18,0,.11-.12-.18,0,.11-.13-.18,0,.11-.13-.18,0,.11-.12-.18,0,.11-.13-.18,0,.11-.12-.18,0,.12-.12-.19,0,.1-.11h0l-.15,0,.07-.09,0,0-.11,0,.06-.07-.05,0-.08,0,0-.05-.06-.06h-.05l0,0-.08-.06h0l-.1-.08.67-.75-.18,0,.11-.12-.18,0,.11-.13-.18,0,.11-.12-.18,0,.11-.12-.18,0,.11-.13-.18,0,.11-.12-.18,0,.11-.13-.18,0,.11-.13-.18,0,.11-.12-.18,0,.11-.13-.18,0,.11-.13-.18,0,.12-.12-.18,0,.11-.13-.18,0,.11-.13-.18,0,.11-.12-.18,0,.11-.13-.18,0,.11-.12-.18,0,.11-.12-.18,0,.11-.13-.18,0,.11-.12-.18,0,.11-.12-.18,0,.11-.13-.18,0,.11-.12-.18,0,.11-.12-.18,0,.12-.13-.19,0,.12-.12-.18,0,.11-.12-.18,0,.11-.13-.18,0,.11-.12-.18,0,.11-.12-.18,0,.11-.13-.18,0,.11-.13-.18,0,.11-.12-.18,0,.11-.13-.18,0,.11-.13-.18,0,.11-.12-.18,0,.11-.13-.18,0,.11-.13-.18,0,.12-.12-.18,0,.11-.13-.18,0,.11-.13-.18,0,.11-.12-.18,0,.11-.12-.18,0,.11-.13-.18,0,.11-.12-.18,0,.11-.12-.18,0,.11-.13-.18,0,.11-.12-.18,0,.11-.12-.18,0,.11-.13-.18,0,.11-.13-4.47.8a6.53,6.53,0,0,0-3.63,1.9A20.65,20.65,0,0,0,169,17.58c-.35.54-.74,1.11-1.18,1.69a9.18,9.18,0,0,1-1.05,1.22,1.36,1.36,0,0,1-.62.32h-.09l-1.67.1c-.11.68-.17,1-.28,1.71a2.65,2.65,0,0,0,.51,2.14l.06.09.07.09a.61.61,0,0,1,.07.1l.07.09.07.09.07.09a.86.86,0,0,1,.07.1l.07.09.07.09.07.09.07.09a.36.36,0,0,0,.07.1l.07.09.07.09.06.09.07.1.07.09.07.09.07.09a.86.86,0,0,0,.07.1l.07.09V29.8a5.64,5.64,0,0,0-1.12.58,3.32,3.32,0,0,0-1.59,3l.09,1-.66-.49a13.66,13.66,0,0,0-3.46-2.27,8,8,0,0,0-4.61-.39A10.34,10.34,0,0,0,150.51,33a6,6,0,0,0-2.89-.15,6.55,6.55,0,0,0-2.71,1A5.06,5.06,0,0,0,143.12,36c-.11.28-.17.42-.29.7l-2.17.35a4.29,4.29,0,0,1-1.38,0,26.51,26.51,0,0,1-2.62-.58c-1.46-.37-2.81-.64-4-.82a12.35,12.35,0,0,0-3.79,0,11.7,11.7,0,0,0-4.35,1.59v0l0-.05,0,0,0,0c0-.19.08-.38.13-.56l-1.49-1.22,0-.05s0,0,0,0l0-.06,0,0,0-.06,0,0,0,0,0,0,0-.05s0,0,0,0l0,0,0,0-.05-.05s0,0,0,0l0,0a.05.05,0,0,0,0,0l-.05-.05a.08.08,0,0,0,0,0l0,0a.08.08,0,0,0,0,0l0-.05,0,0,0,0,0,0-.66-.8s0-.07,0-.1l3.18,2.57a5.54,5.54,0,0,1,.41-.88l-3.4-2.75c0-.22.11-.43.18-.64l3.57,2.89c0-.05.08-.11.12-.15l.51-.55-3.84-3.11a4.51,4.51,0,0,1,.29-.54c1.21,1,2.37,1.91,4,3.21l.65-.7-4-3.25.42-.45,4,3.26.65-.7c-1.65-1.33-2.72-2.21-4-3.25l.42-.45,4,3.25.22-.23-.18,0,.11-.12-.18,0,.11-.12-.18,0,.12-.12-.18,0,.11-.12-.18,0,.11-.12-.18,0,.11-.12-.18,0,.11-.12-.18,0,.11-.12-.18,0,.11-.12-.18,0,.11-.12-.18,0,.11-.12-.18,0,.11-.12-.18,0,.11-.12-.18,0,.11-.12-.18,0,.11-.12-.18,0,.12-.12-.19,0,.12-.12-.18,0,.11-.12-.18,0,.11-.12-.18,0,.11-.12-.18,0,.11-.12-.18,0,.11-.12-.18,0,.11-.12-.18,0,.11-.12h0l-.17,0,.09-.1h0l-.14,0,.07-.08,0,0-.1,0,0-.06,0,0h-.07l0,0-.07-.06h0l0,0-1.49-1.2.94-1-.18,0,.11-.12L126,26l.12-.12L126,26l.12-.12-.18,0,.11-.12-.18,0,.11-.12-.18,0,.11-.12-.18,0,.11-.12-.18,0,.11-.12-.18,0,.11-.12-.18,0,.11-.12-.18,0,.11-.12-.18,0,.11-.12-.18,0,.11-.12-.18,0,.11-.12-.18,0,.11-.12-.18,0,.12-.12-.18,0,.11-.11-.18,0,.11-.12-.18,0,.11-.12-.18,0,.11-.12-.18,0,.11-.12-.18,0,.11-.12-.18,0,.11-.12-.18,0,.11-.12-.18,0,.11-.12-.18,0,.11-.12-.18,0,.11-.12-.18,0,.11-.12-.18,0,.11-.12-.18,0,.12-.12-.18,0,.11-.12-.18,0,.11-.12-.18,0,.11-.12-.18,0,.11-.11-.18,0,.11-.12-.18,0,.11-.12-.18,0,.11-.12-.18,0,.11-.12-.18,0,.11-.12-.18,0,.11-.12-.18,0,.11-.12-.18,0,.11-.12-.18,0,.12-.12-.19,0,.12-.12-.18,0,.11-.12-.18,0,.11-.12-.18,0,.11-.12-.18,0,.11-.11-.18,0,.11-.12-.18,0,.11-.12-.18,0,.11-.12-4.47.75a6.61,6.61,0,0,0-3.63,1.81,21.16,21.16,0,0,0-2.56,3.26l0,.08H112l.11-.12-.18,0,.11-.12-.18,0,.11-.12-.18,0,.11-.12-.18,0,.11-.12-.18,0,.11-.11-.18,0,.11-.11-.18,0,.11-.12-.18,0,.11-.12-.18,0,.12-.12-.18,0,.11-.12-.18,0,.11-.12-.18,0,.11-.12-.18,0,.11-.12-.18,0,.11-.11-.18,0L111,26l-.18,0,.11-.12-.18,0,.11-.12-.18,0,.11-.12-.18,0,.11-.12-.18,0,.11-.12-.18,0,.11-.12-.18,0,.11-.12-.18,0,.12-.11-.18,0,.11-.12-.18,0,.11-.12-.18,0,.11-.12-.18,0,.11-.12L110,25l.11-.12-.18,0,.11-.12-.18,0,.11-.12-.18,0,.11-.11-.18,0,.11-.11-.18,0,.11-.12-.18,0,.11-.12-.18,0,.11-.12-.18,0,.12-.12-.19,0,.12-.12-.18,0,.11-.12-.18,0,.11-.11-.18,0,.11-.12-4.47.72a6.58,6.58,0,0,0-3.64,1.76,20.41,20.41,0,0,0-2.55,3.21c-.34.51-.74,1-1.17,1.59a8.59,8.59,0,0,1-1.06,1.14,1.34,1.34,0,0,1-.61.29h-.09L94,32.56c-.11.65-.17,1-.28,1.62a2.42,2.42,0,0,0,.5,2l.07.08.07.09.07.09.07.09.07.09.07.09.07.09.07.09.06.08.07.09.07.09.07.09.07.09.07.09.07.09.07.09.07.09a.27.27,0,0,0,.07.08l.07.09.07.09.06.09V41a5.65,5.65,0,0,0-1.11.52A3.05,3.05,0,0,0,93,44.37c0,.31,0,.46.07.76l-.55-.41a13.92,13.92,0,0,0-3.25-2.11,8.32,8.32,0,0,0-4.45-.45,11,11,0,0,0-4.72,1.69c-.44.29-.89.63-1.36,1,0-.13,0-.27,0-.41L76,42.21v-.75l2.85,2.31a7.9,7.9,0,0,1,.27-1h0l-3.09-2.51c0-.23,0-.46.07-.69l3.25,2.63a5.08,5.08,0,0,1,.45-.81l-3.47-2.81a3.22,3.22,0,0,1,.14-.44l.06-.15,3.65,3,.64-.65L77,37.18a4.61,4.61,0,0,1,.32-.49l4,3.23.64-.65L77.9,36l.42-.42,4,3.25.64-.66L79,35l.42-.42,3.67,3,.1-.11-.18,0,.11-.11-.18,0L83,37.2l-.18,0,.12-.12-.19,0,.12-.11-.18,0,.11-.11-.18,0,.11-.11-.18,0,.11-.11-.18,0,.11-.11-.18,0,.11-.12-.18,0,.11-.12-.18,0,.11-.11-.18,0,.11-.11-.18,0,.11-.11-.18,0,.11-.11-.18,0,.11-.11-.18,0L82,36l-.18,0,.12-.12-.19,0,.12-.11-.18,0,.11-.11-.18,0,.11-.11-.18,0,.11-.11-.18,0,.11-.12-.18,0,.11-.12-.18,0,.11-.11-.18,0,.11-.11-.18,0,.11-.11-.18,0,.11-.11-.18,0,.11-.11-.18,0,.11-.12-.18,0,.11-.12-.18,0,.1-.1h0l-.14,0,.07-.08,0,0h-.11l0-.06,0,0h-.08l0,0-.07,0h0l0,0-.08-.06h0L80,33.87l.76-.77-.18,0,.11-.12-.18,0,.11-.11-.18,0,.11-.11-.18,0,.11-.11-.18,0,.11-.11-.18,0,.11-.12-.18,0,.12-.12-.18,0,.11-.11-.18,0,.11-.11-.18,0,.11-.11-.18,0,.11-.11-.18,0L80,32l-.18,0,.11-.12-.18,0,.11-.11-.18,0,.11-.11-.18,0,.11-.11-.18,0,.11-.11-.18,0,.11-.12-.18,0,.11-.11-.18,0,.11-.11-.18,0,.12-.11-.18,0,.11-.11-.18,0,.11-.12-.18,0,.11-.12-.18,0,.11-.11-.18,0,.11-.11-.18,0,.11-.11-.18,0,.11-.11-.18,0,.11-.12-.18,0,.11-.11-.18,0,.11-.11-.18,0,.11-.11-.18,0,.11-.11-.18,0,.11-.12-.18,0,.12-.12-.18,0,.11-.11-.18,0,.11-.11-.18,0,.11-.11-.18,0,.11-.12-.18,0,.11-.12-.18,0,.11-.11-.18,0,.11-.11-.18,0,.11-.11-.18,0,.11-.11-.18,0,.11-.12-.18,0,.11-.11-.18,0,.11-.11-.18,0,.12-.11-.19,0,.12-.11-.18,0,.11-.12-.18,0,.11-.11-4.47.6a6.5,6.5,0,0,0-3.64,1.63,19.52,19.52,0,0,0-2.55,3.06c-.34.49-.74,1-1.17,1.52a7.8,7.8,0,0,1-1.06,1.08,1.38,1.38,0,0,1-.61.27H62c-.11.58-.16.87-.26,1.45h0l-.07-.09-.07-.09a4,4,0,0,0-.67-.7,4.82,4.82,0,0,0-3.62-1,6.06,6.06,0,0,0-3.63,1.74,4.91,4.91,0,0,0-1.53,3.51A4.09,4.09,0,0,0,53,44.23l.07.09.07.09.07.09.06.09.07.08.07.09.07.09.07.09.07.09.07.09.07.09.07.09.07.08.07.09.07.09.07.09.07.09.06.09.07.09.07.09.07.09.07.08.07.09,0,0-4,.39v.41c-.22-.3-.44-.6-.68-.89l-.07-.09-.07-.09L49.72,46l-.07-.09-.07-.09-.07-.09a.5.5,0,0,1-.07-.08l-.07-.09-.07-.09-.07-.09-.07-.09-.07-.09L49,45.07,49,45a.27.27,0,0,0-.07-.08l-.07-.09-.06-.09-.07-.09-.07-.09-.07-.09-.07-.09-.07-.09-.07-.09-.07-.08L48.19,44l-.07-.09-.07-.09L48,43.74l-.07-.09-.06-.09-.07-.09-.07-.08-.07-.09-.07-.09-.07-.09L47.43,43l-.07-.09-.07-.09-.07-.09a.27.27,0,0,0-.07-.08l-.07-.09L47,42.5l-.07-.09-.06-.09-.07-.09-.07-.09-.07-.09L46.6,42l-.07-.09-.07-.09a23.14,23.14,0,0,0-7.63-6.08,25.4,25.4,0,0,0-13.37-2.5,30.64,30.64,0,0,0-11.89,3.14,21.31,21.31,0,0,0-8.13,7,16.7,16.7,0,0,0-2.88,9.46A18.7,18.7,0,0,0,3,57a27.44,27.44,0,0,1,.37,4.17c0,3.32-.84,4-1,4.13L0,66.74l.12.05,0,0,.12.06,0,0L.26,67,.21,67l.12.06,0,0,.12.06-.05,0,.12,0,0,0,.12,0-.06,0,.13.06-.06,0,.13.06-.06,0,.13.06-.06,0,.13.06-.06,0,.13,0-.06,0,.12,0,0,0L1,68,1,68l.12.06-.05,0,.12.06,0,0,.12.06-.05,0,.12,0-.05,0,.12.06-.05,0,.12.06-.05,0,.12.06-.06,0,.13.06-.06,0,.13.06-.06,0,.13.05-.06,0,.13.06-.06,0,.13.06-.06,0,.12.06,0,0,.12.06-.05,0,.12.06L2,69.4l.12,0,0,0,.12.06-.05,0,.12.06,0,0,.12.06,0,0,.12.06-.05,0,.12.06-.06,0,.13,0-.06,0,.13.06-.06,0,.13.06-.06,0,.13.06-.06,0,.13.06-.06,0,.12.06-.05,0,.12,0,0,0,.12.06,0,0,.12.06-.05,0,.12.06,0,0,.12.06-.05,0L3.3,71l-.49.3C5.52,73.7,7,75,9.51,77.22a4.36,4.36,0,0,0-1.63.8,3.06,3.06,0,0,0-1.2,2.42,4.43,4.43,0,0,0,1,2.79l.07.09.07.1.07.09.07.09.07.09.07.1.07.09.07.09.07.09.07.09a.36.36,0,0,0,.07.1l.07.09.07.09.06.09a.61.61,0,0,1,.07.1l.07.09.07.09.07.09A.86.86,0,0,1,9,85l.07.09.07.09.07.09.07.09a.61.61,0,0,0,.07.1l0,0a4.29,4.29,0,0,0,.13.84L11,87.63l0,0,.07.09a.61.61,0,0,0,.07.1A6.55,6.55,0,0,0,13,89.46l7,6.17c.48.09,1,.16,1.51.22l-6.08-5.39c.36.12.75.22,1.15.31l5.83,5.15c.43,0,.88.06,1.34.07L18.14,91c.31,0,.62.08.94.12L24.57,96h.8l.46,0-5.37-4.73.85,0L26.61,96l1.21-.06-5.23-4.61h.13c.22,0,.44,0,.65,0l5.2,4.57,1.16-.11L24.59,91.2l.77,0,5.09,4.47,1.1-.16c-1.91-1.68-3.52-3.1-5-4.41l.75-.07,5,4.37,1.05-.21-4.93-4.32.71-.11L34,95l1-.25-4.84-4.23.68-.13,4.81,4.2,1-.28-4.75-4.15.64-.16,4.72,4.11c.32-.1.64-.19,1-.3l-4.68-4.07.63-.19,4.63,4,.91-.35-4.59-4,.61-.19,4.56,4c.29-.12.57-.26.86-.39L36.61,88.7l.58-.23,4.49,3.89.5-.23.34-.18L38.07,88.1l.55-.26L43,91.66c.27-.14.54-.28.81-.44l-4.37-3.77.06,0,.46-.25c1.3,1.12,2.61,2.26,4.35,3.75.26-.15.51-.32.76-.48l-4.3-3.71.52-.28,4.27,3.68c.25-.17.48-.35.72-.52-1.68-1.45-3-2.56-4.23-3.64l.5-.31,4.2,3.61c.23-.18.47-.35.7-.54l-4.16-3.57.46-.34,4.13,3.55.67-.57-4.08-3.51.44-.35L49,87.42l.62-.61-4-3.44.43-.36,4,3.41c.21-.21.4-.43.6-.65l-4-3.37.4-.39L51,85.36c.19-.22.39-.44.57-.66L47.7,81.39l.37-.42,3.84,3.28.54-.69-3.8-3.24.36-.43,3.77,3.21c.17-.24.32-.49.49-.73L49.54,79.2l.34-.45,3.7,3.14.19-.29.11-.19H54v.1H54v.1h.06v.09h.07v.09h.07v.09h.07V82h.07v.09h.07v.1h.07v.1h.07v.1h.07v.1h.07v.1h.07v.1h.07v.09h.07v.09H55v.09h.06V83h.07v.09h.07v.1h.07v.1h.07v.1h.07v.1h.07v.09h.07v.06l0,0h0v0l1.84,1.57,1.25-.09L50.38,78c.11-.15.21-.31.31-.47l3.38,2.87v0h0l0,0v.05h0L59.5,85,60.75,85l-5.31-4.5.81-.06,5.3,4.5,1.25-.1L57.5,80.3l.8-.06,5.31,4.49,1.24-.1-5.3-4.49.8-.06,5.31,4.48,1.25-.1L61.6,80l.8-.07,5.31,4.48,1.25-.1-5.31-4.48.79-.07,5.32,4.48.34,0v-.85l-4.4-3.71.8-.07,3.6,3V81.43L67.45,79.2v-.75c.4.33.8.66,1.19,1v-.07l-.07,0v-.07l-.06,0V79.2l-.07,0v-.07l-.07,0V79l-.07,0v-.07l-.07,0v-.07l-.07,0v-.07l-.07,0v-.07l-.07,0v-.07l-.07,0v-.07l-.07,0v-.08h0v-.44l0,.06.07.09.07.09.07.09.07.09.07.09.07.09.07.09.07.09.07.09a.36.36,0,0,0,.07.1l.07.09.06.09.07.09.07.09.07.09.07.09.07.09.07.09.07.09.07.09.07.09.07.09.07.09a.36.36,0,0,0,.07.1l.07.09,0,0,4.14,3.5a7.31,7.31,0,0,0,1.66.23l-8-6.71v-.73h-.07v-.08h-.07v0l.91.76a4.94,4.94,0,0,0,.87.9,5.52,5.52,0,0,0,.77.48L76.3,84h.23a6.1,6.1,0,0,0,1-.17l-5.43-4.57a7.5,7.5,0,0,0,1,.06l5.1,4.29a8,8,0,0,0,.89-.42l-4.74-4a5.75,5.75,0,0,0,.72-.15l4.53,3.81c.24-.17.47-.34.69-.53,0,0,0,0,0,0l-4.31-3.6q.27-.14.54-.3l4.17,3.49a5.2,5.2,0,0,0,.55-.71c-1.31-1.11-2.64-2.21-4-3.32a3.81,3.81,0,0,0,.32-.24l.13-.13,3.8,3.17a4.54,4.54,0,0,0,.34-.89l-3.54-3a5,5,0,0,0,.34-.46c2.25,1.89,4.51,3.76,6.75,5.65l.52.25a7.6,7.6,0,0,0,1.75.48c-2.86-2.41-5.75-4.8-8.62-7.21a5.8,5.8,0,0,0,.19-.59c3.16,2.64,6.33,5.27,9.48,7.92a13.35,13.35,0,0,0,1.42,0L84,77.78a7.42,7.42,0,0,0,1.23.26L91,82.81l.27,0c.33,0,.65-.08,1-.13l-5.4-4.51c.27,0,.57,0,.86,0l5.27,4.41c.38-.08.74-.17,1.09-.27L88.92,78l.78-.11c1.65,1.38,3.31,2.75,5,4.14.3-.11.59-.23.86-.35l.12,0-4.81-4,.66-.2,5,4.13,1.25-.14C96,80,94.21,78.55,92.48,77.1c.13,0,.27-.1.39-.16l.29,0c1.77,1.49,3.56,3,5.33,4.45l1.25-.14c-1.77-1.49-3.56-3-5.33-4.45l.8-.09c1.77,1.48,3.56,3,5.33,4.45L101.7,81V80.9c-1.75-1.46-3.5-2.9-5.24-4.36l.8-.1c1.48,1.24,3,2.46,4.44,3.69v-.82c0-.14,0-.27,0-.39L98.52,76.3l.53-.06V76l2.38,2a3.44,3.44,0,0,0-.43-.77l0-.05,0,0,0,0s0,0,0,0a.1.1,0,0,0,0,0l0,0,0,0s0,0,0,0,.14-.31.21-.47l-1.9-1.59v-.22A3.66,3.66,0,0,0,99,74l8.28,6.92a8.3,8.3,0,0,0,1.3-.06h0c-2-1.71-4.08-3.41-6.12-5.11a6.27,6.27,0,0,0,1.34.35l5.52,4.62a6.14,6.14,0,0,0,1-.35c-1.68-1.41-3.38-2.81-5.07-4.22.21,0,.41,0,.62-.05l.21,0c1.6,1.34,3.21,2.67,4.81,4a9.33,9.33,0,0,0,.81-.53l-4.52-3.77a4.8,4.8,0,0,0,.63-.24c1.46,1.22,2.92,2.42,4.37,3.65l.06-.06a5.56,5.56,0,0,0,.59-.6L108.73,75a5.72,5.72,0,0,0,.49-.37l4,3.37a6,6,0,0,0,.46-.82c-1.25-1.06-2.52-2.1-3.78-3.15.14-.15.27-.29.4-.45l3.6,3a5,5,0,0,0,.22-1l-3.3-2.75a5.52,5.52,0,0,0,.26-.55c1,.85,2.06,1.7,3.08,2.56v-.57l.06.06.07.09.06.1.07.09.07.09.07.09.07.09.07.09a.86.86,0,0,0,.07.1l.07.09.07.09.07.09.07.09.07.09a.36.36,0,0,0,.07.1l.06.09.07.09.06.07L119.15,79a6.23,6.23,0,0,0,1.7.23q-4.71-4-9.44-7.88a5.46,5.46,0,0,0,.1-.69L114.23,73l.38.35.21.14,6.91,5.77.3,0a6.71,6.71,0,0,0,.89-.19c-1.83-1.54-3.68-3.06-5.51-4.59a8.7,8.7,0,0,0,1,0l5.13,4.32a6.91,6.91,0,0,0,.91-.44l-4.76-4a4.81,4.81,0,0,0,.73-.17L125,78a7.83,7.83,0,0,0,.74-.58l-4.33-3.66a6.05,6.05,0,0,0,.55-.32l4.2,3.55a5.63,5.63,0,0,0,.58-.73l-4-3.37.36-.28.1-.11,3.84,3.23a6.07,6.07,0,0,0,.29-.7,7.05,7.05,0,0,0,1.32,1.08q.39.24.81.45l-5.63-4.76a4.63,4.63,0,0,0,.31-.46c2.32,1.94,4.65,3.87,7,5.82a11.26,11.26,0,0,0,1.8.31l-8.32-7c0-.08.07-.16.1-.25A6.64,6.64,0,0,0,126,71.29a8.21,8.21,0,0,0,1.22.62c2.22,1.87,4.45,3.73,6.66,5.6a12.92,12.92,0,0,0,1.38-.05q-2.91-2.47-5.84-4.93c.34.06.7.09,1.06.12,1.87,1.57,3.75,3.14,5.61,4.73h.06c.39-.05.76-.13,1.14-.2L132,72.66l.86-.06c1.74,1.47,3.48,2.92,5.21,4.39.36-.1.72-.2,1.06-.32l-5-4.24.75-.14,4.89,4.11a9.72,9.72,0,0,0,.92-.44l-4.72-4,.67-.22,4.6,3.87c.11-.07.23-.12.34-.2a4.44,4.44,0,0,0,1.44.49c-1.8-1.53-3.62-3-5.43-4.58.19-.09.38-.2.56-.3L144,76a6.38,6.38,0,0,0,.95-.06,3.43,3.43,0,0,0,.34-.06c-2-1.72-4-3.43-6.06-5.14a5,5,0,0,0,1.35.35c1.81,1.54,3.63,3.07,5.43,4.61a5.39,5.39,0,0,0,1-.4q-2.47-2.12-5-4.21l.27,0a4.35,4.35,0,0,0,.52-.1c1.58,1.34,3.15,2.66,4.72,4l.15-.1a2.78,2.78,0,0,0,.32-.26h0v.1h.07v.11h.07v.1h.07V75h.07v.11L149,75l-5.15-4.35a5.55,5.55,0,0,0,.6-.29l5.35,4.53,1.25-.16c-1.77-1.52-3.56-3-5.34-4.52l.83-.12c1.77,1.51,3.55,3,5.32,4.53l1.24-.17c-1.77-1.52-3.56-3-5.34-4.53l.8-.11c1.78,1.51,3.57,3,5.35,4.53l1.25-.17c-1.78-1.52-3.57-3-5.35-4.53l.8-.11c1.78,1.51,3.57,3,5.35,4.53l1.25-.17-5.35-4.54.8-.11L158,73.77l1.25-.17-5.35-4.54.8-.12c1.79,1.52,3.58,3,5.35,4.55l1.25-.17L156,68.77l.81-.11c1.62,1.38,3.24,2.74,4.85,4.13V71.54c-1.19-1-2.4-2-3.59-3.06l.82-.11,2.77,2.36v-.57h-.07v-.08l-.06,0V70l-.07,0v-.08h-.07v-.08l-.07,0v-.08h-.07V69.6l-.07,0V69.5h-.07v-.08l-.07,0v-.07l-.07,0v-.08h-.07v-.08l-.07,0V69h-.07v-.08l-.07,0v-.08h-.07v-.08l-.06,0v-.07l-.07,0v-.08h-.07v-.08l-.07,0v-.08h-.07v-.07l0,0h-.05v0l-1.2-1v-.8l.45.38v-1l0,0,.07.09a.86.86,0,0,0,.07.1l.07.09a.86.86,0,0,1,.07.1l.07.09.07.09a.36.36,0,0,0,.07.1l.05.07a3.42,3.42,0,0,0,.26.46l.06.09h0l.06.09h0l.06.09h0a.61.61,0,0,1,.07.1h0l.07.09h0a.71.71,0,0,0,.07.09h0l.07.09h0l.07.09h0s.05.06.07.1h0l.07.09h0a.71.71,0,0,0,.07.09h0l.07.09h0l.07.09h0l.07.09h0l.06.09h0l.06.1h0l.06.09h0l.07.09h0l.07.09h0l.07.09h0l.07.09h0l.07.09h0s.05.06.07.1h0l.07.09h0a.71.71,0,0,0,.07.09h0l.07.09h0l.07.09h0l.06.09h0l.06.09h0l.06.1h0l.07.09h0a.61.61,0,0,1,.07.1h0l.07.09h0a.71.71,0,0,0,.07.09h0l.07.09h0l0,0-.69-.59a7.74,7.74,0,0,0,.69,1.85c3.3,2.84,4.95,4.28,8.25,7.17h0a4.75,4.75,0,0,0,1.06-.29l-5.4-4.72a5.55,5.55,0,0,0,1,.08c1.48,1.28,3,2.63,5,4.35a3.66,3.66,0,0,0,.77-.59l-4.55-3.93a5.3,5.3,0,0,0,.67-.23c1.43,1.24,2.87,2.47,4.3,3.72a5,5,0,0,0,.51-.81c-1.31-1.15-2.63-2.28-3.94-3.41a6,6,0,0,0,.46-.42l3.72,3.23a4,4,0,0,0,.19-1.09c-1.1-1-2.21-1.92-3.31-2.88a6,6,0,0,0,.3-.56l3,2.59a3.43,3.43,0,0,0-.59-1.4l-.07-.09a.36.36,0,0,0-.07-.1l-.07-.1-.06-.09a.61.61,0,0,1-.07-.1l-.07-.09a.61.61,0,0,1-.07-.1l-.07-.09-.07-.1-.07-.09,0-.07c-.44-.39-.89-.77-1.34-1.15a4.25,4.25,0,0,0,.07-.8,3.44,3.44,0,0,0-.64-2,.61.61,0,0,0-.07-.1l-.07-.09-.06-.1-.07-.09a.61.61,0,0,1-.07-.1l-.07-.09-.07-.1-.07-.09-.07-.1-.07-.09-.07-.1-.07-.09-.07-.1-.07-.09a.61.61,0,0,0-.07-.1l-.07-.09,0,0,.19.17v-.35l.07.09a.36.36,0,0,1,.07.1l.07.09a.86.86,0,0,1,.07.1l.07.09a.86.86,0,0,1,.07.1l.07.09.07.1.07.09.07.1v0c2.25,2,3.38,2.93,5.63,4.91a8,8,0,0,0,1.48,0q-5.2-4.55-10.45-9.05l0,0V61.8l2,1.71,0,0,.07.1.07.09a.86.86,0,0,0,.07.1l.07.09a.86.86,0,0,0,.07.1l.07.09a.36.36,0,0,0,.07.1l.07.09a.36.36,0,0,0,.07.1l.07.09.06.1a4.71,4.71,0,0,0,2.58,1.83l5.93,5.15a6.19,6.19,0,0,0,1.1-.3Q177.66,69,175,66.69c.29,0,.59,0,.89,0l5,4.35a7.35,7.35,0,0,0,.85-.51l-4.66-4.06c.22-.06.44-.15.66-.23,1.5,1.3,3,2.59,4.49,3.9.14-.12.29-.22.43-.35a3.85,3.85,0,0,0,.27-.3l-4.27-3.71a6.22,6.22,0,0,0,.54-.35l4.14,3.6a5,5,0,0,0,.51-.81c-1.29-1.14-2.6-2.27-3.9-3.4l.06,0a4.64,4.64,0,0,0,.36-.4l3.74,3.25a6.54,6.54,0,0,0,.29-1l-3.45-3a5.48,5.48,0,0,0,.31-.52c2.09,1.82,4.18,3.64,6.27,5.48a12.81,12.81,0,0,0,1.16.6,6.45,6.45,0,0,0,1.45.44q-4.24-3.75-8.51-7.46c.06-.22.11-.45.15-.68q4.74,4.13,9.45,8.29a11.56,11.56,0,0,0,1.45,0q-3.13-2.78-6.29-5.53a7.5,7.5,0,0,0,1.32.34q2.91,2.55,5.81,5.11a4.56,4.56,0,0,0,.51,0c.25,0,.49-.08.74-.12l-5.47-4.82c.29,0,.58,0,.9,0l5.32,4.69c.38-.09.75-.18,1.1-.3-1.7-1.51-3.42-3-5.13-4.52l.78-.13c1.67,1.47,3.35,2.94,5,4.43.33-.13.65-.27.95-.42l-4.82-4.28c.23-.06.46-.13.68-.21,1.64,1.45,3.29,2.9,4.92,4.36l1.25-.16-5.16-4.59.56-.25h.06c1.78,1.58,3.57,3.16,5.34,4.75l1.25-.16c-1.77-1.59-3.56-3.17-5.34-4.76l.8-.1c1.78,1.58,3.57,3.16,5.35,4.76l1.25-.16c-1.78-1.6-3.57-3.18-5.35-4.77l.81-.11,4.66,4.16V65.75c0-.06,0-.12,0-.18l-3.4-3,.76-.1v-.06l2.49,2.22a3.76,3.76,0,0,0-.53-1.15l-.05-.06s0,0,0,0l0,0s0,0,0-.05l0,0a.13.13,0,0,1,0-.05l0,0,0,0c.06-.11.09-.23.15-.35l-1.84-1.63v-.47c0-.13,0-.25,0-.38L204,62.13c.12-.33.22-.67.31-1l-3.05-2.7,0-.07-.05-.06s0,0,0,0,0,0-.05,0,0,0,0-.05l0,0,0-.05,0,0,0,0c.08-.15.13-.32.2-.48l3.33,3a11.06,11.06,0,0,0,.18-1.13l-3.15-2.79a6.36,6.36,0,0,0,.19-.66c1,.89,2,1.77,3,2.66,0-.15,0-.3,0-.45s0-.57-.05-.86c-.91-.82-1.84-1.62-2.76-2.44,0-.25.08-.49.1-.74l2.57,2.27a8.75,8.75,0,0,0-.39-1.64L202,52.79c0-.31,0-.6-.05-.89l1.52,1.35v0l-.06-.08v0l-.06-.08v0l-.06-.07v0l-.06-.08v0l-.06-.08v0l-.06-.08v0l-.06-.07v0l-.06-.08v0l-.06-.08v0s0-.05-.05-.08l0,0s0,0,0-.08h0l-.06-.08v0L202.6,52v0l-.06-.08v0l-.06-.08h0l-.06-.08v0l-.06-.08v0l-.06-.08v0l-.06-.07v0l-.06-.08v0L202,51.2v0L202,51.1v0L201.9,51v0l0-.06a8.84,8.84,0,0,0-.45-1.65l.19.16.84-.26.25-.06-3.15-2.79h0v0l-.06-.08v0l-.06-.08v0l-.06-.08h0s0,0-.06-.08v0s0,0-.05-.08v0l-.06-.08h0l-.06-.08v0l-.06-.08v0l-.06-.08v0l-.06-.07v0l-.06-.08v0l-.06-.08v0l-.06-.07v0l-.06-.08v0l-.06-.08v0l-.06-.07v0l-.06-.08v0l0,0,.16-.06,4.93,4.38.6-.15v-.61l-4.49-4,.27-.08.44-.12,3.65,3.25v0h0l0,.09h0l0,.11h0l0,.11h0l0,.11,0,0,0,.11h0l.05.11h0l0,.11,0,0,0,.12,0,0,.05.11h0l0,.11h0l0,.11h0l0,.11,0,0,0,.11h0l0,.11h0l0,.11h0l0,.11,0,0,0,.11h0l0,.11h0l0,.11h0l.05.11,0,0,0,.12,0,0,0,.11h0l0,.08-1.1-1,0,.13.62,1.6h0l.05.11,0,0,0,.11h0l0,.11h0l0,.11h0l0,0,0,0h0l4.36,3.91.44-.23a2.27,2.27,0,0,1,.54-.17L206.07,50l.56-.28,4.28,3.89c.35.6.71,1.17,1.1,1.72l.06.08h0l-.3-.28c.32.76.65,1.51,1,2.21L214.59,59l0,.07.07.1.07.1.07.1.07.1.07.1.07.09.07.1.07.1.07.1.07.1.07.1a.22.22,0,0,0,0,.08c.28.4.56.78.85,1.15l-2.59-2.37c.3.51.62,1,.95,1.47l.06.08.07.1.07.1.07.1.07.1.07.1.07.1.06.1.07.1.07.1.07.1.07.09.07.1.07.1.07.1.07.1.07.1.07.1.07.1.05.08c4.63,4.25,6.94,6.4,11.57,10.76a19.58,19.58,0,0,0,2.16.73c-3.33-3.15-5.79-5.47-8.29-7.79a19.27,19.27,0,0,0,2.21,1.25q3.66,3.4,7.28,6.83c.54.12,1.1.2,1.66.27l-6.55-6.15q.6.19,1.23.36c2.1,2,4.23,3.92,6.33,5.9.47,0,1,.06,1.44.07-1.95-1.87-3.92-3.73-5.89-5.59.35.06.69.1,1,.14q2.88,2.72,5.73,5.44c.43,0,.87,0,1.3-.07-1.83-1.76-3.68-3.51-5.52-5.26l.87,0,5.46,5.16c.4,0,.8-.1,1.2-.16l-5.31-5,.82-.06,5.23,5c.37-.07.75-.16,1.11-.25-1.7-1.63-3.42-3.24-5.12-4.86.27,0,.55-.07.82-.12,1.48,1.41,3,2.89,5,4.79q.53-.15,1-.33c-1.94-1.89-3.42-3.31-4.88-4.71l.72-.16,4.79,4.62c.32-.13.64-.26.94-.41-1.88-1.83-3.29-3.19-4.7-4.54l.66-.22c1.38,1.33,2.77,2.67,4.62,4.47.3-.16.58-.33.85-.5-1.8-1.76-3.17-3.08-4.52-4.38.2-.09.41-.17.6-.27,1.34,1.29,2.69,2.59,4.47,4.33.27-.18.51-.39.77-.58-1.74-1.7-3.06-3-4.37-4.24l.55-.32c1.29,1.24,2.6,2.51,4.31,4.18a1.66,1.66,0,0,0,.21-.16,5.79,5.79,0,0,0,1.58,1.5,6.78,6.78,0,0,0,1.74.78c-2.86-2.8-4.86-4.76-7-6.85.17-.12.33-.25.49-.38,2.37,2.29,4.54,4.41,7.65,7.47a7.33,7.33,0,0,0,1.41.06c-2.12-2.08-4.26-4.15-6.39-6.21a6.61,6.61,0,0,0,1.47.58q2.85,2.76,5.69,5.53a5.63,5.63,0,0,0,1-.31l-5.11-5a5.91,5.91,0,0,0,.84,0h0c1.61,1.58,3.23,3.16,4.83,4.75a6.61,6.61,0,0,0,.82-.52c-1.5-1.5-3-3-4.53-4.46q.32-.1.63-.24c1.46,1.44,2.93,2.87,4.38,4.32l.17-.14a6.17,6.17,0,0,0,.5-.53c-1.39-1.38-2.8-2.74-4.21-4.12q.25-.16.51-.36l4.07,4a4.84,4.84,0,0,0,.48-.86l-3.82-3.76a5.74,5.74,0,0,0,.41-.45l3.65,3.59a6.85,6.85,0,0,0,.24-1.11c-1.11-1.1-2.24-2.18-3.35-3.28a6.45,6.45,0,0,0,.29-.59L259.4,67V65.67c-.92-.93-1.86-1.84-2.8-2.76a6,6,0,0,0,.12-.74l2.41,2.36v-.1l-.07,0v-.12H259v-.12h-.07v-.12l-.07,0V64h-.07V63.9l-.07,0V63.8h-.07v-.12l-.07,0v-.12h-.07v-.12h-.07v-.12l-.06,0v-.12h-.07v-.12l-.07,0v-.12h-.07V63l-.07,0v-.12H258v-.12H258v-.11h-.07v-.12h-.07v-.12l-.07,0v-.12h-.07v-.12l-.07,0v-.12h-.07V62l-.07,0V61.9h-.06v-.12h-.07v-.11h-.07v-.12h-.07v-.11h-.07v-.12h-.07v-.12l-.07,0v-.12h-.07v-.12l-.07,0V61h-.07v-.09l0,0V59.4h-.06v-.12l-.07,0v-.12h-.07v-.12l-.07,0V59h-.07v-.12l-.07,0v-.12h-.07v-.12l-.07,0v-.12h-.07v-.12l-.07,0v-.12H256v-.44l-.64-.62h0l-.06-.06v-.05h0l0,0v-.08h-.07V57l-.07,0v-.12H255v-.12l-.07,0v-.12h-.07v-.12l-.07,0v-.12h-.06v-.12l-.07,0v-.12h-.07v-.12l-.07,0V56h-.07v-.12l-.07,0v-.12h-.07v-.11h-.07v-.12h-.07v-.11h-.07v-.12l-.07,0v-.12H254V55.2l-.07,0V55.1h-.06V55l-.07,0v-.1L256,57.06V55.73c-.88-.86-1.77-1.7-2.65-2.55v-.86c.88.85,1.77,1.69,2.65,2.55V54l.05,0,0,0,.11.07,0,0,.11.06,0,0,.11.06,0,0,.11.06,0,0,.11.06,0,0,.11.06,0,0,.1.06,0,.05.1.06,0,0,.1.06,0,.05.11.06,0,0,.11.06,0,.05.11.06,0,0,1.95,1.12a7.08,7.08,0,0,1,.86.62c-2.09-2-4.2-4.06-6.3-6.08v-.87q5.28,5.1,10.51,10.27.3.2.6.36a7.17,7.17,0,0,0,1.75.65q-5.62-5.58-11.3-11.09l1.23.7A13.52,13.52,0,0,1,258,52.49q4.66,4.55,9.29,9.13a10.7,10.7,0,0,0,1.4.06c-2.05-2-4.12-4.06-6.18-6.09a7.24,7.24,0,0,0,1.27.4c1.91,1.88,3.83,3.75,5.72,5.65a9,9,0,0,0,1.16-.19c-1.77-1.77-3.56-3.51-5.34-5.27a8.49,8.49,0,0,0,.87,0c1.72,1.71,3.44,3.4,5.15,5.12a8.87,8.87,0,0,0,1-.36c-1.61-1.64-3.25-3.26-4.87-4.89.24,0,.48-.09.71-.15,1.58,1.59,3.18,3.17,4.75,4.77.26-.13.52-.26.77-.41l.29.14c-1.59-1.61-3.2-3.2-4.8-4.8l.62-.25c1.81,1.82,3.63,3.63,5.44,5.46a5.89,5.89,0,0,0,1.41.08c-2-2-4-4-6-6,.12-.07.24-.12.35-.19a5.69,5.69,0,0,0,.56.26c1.95,1.95,3.89,3.89,5.82,5.85a5.08,5.08,0,0,0,1.05-.29c-1.72-1.74-3.45-3.47-5.17-5.2a7.72,7.72,0,0,0,.83,0h0c1.64,1.65,3.29,3.29,4.92,5,.14-.08.28-.15.42-.24s.26-.18.39-.28c-1.52-1.56-3.06-3.09-4.59-4.63a6,6,0,0,0,.64-.21c1.75,1.76,3.51,3.52,5.25,5.3l1.24-.07c-1.86-1.91-3.74-3.79-5.61-5.69h0a5.55,5.55,0,0,0,.46-.35c2,2,4,4,5.93,6l1.25-.06q-2.67-2.76-5.36-5.47l.81,0c1.78,1.82,3.57,3.64,5.35,5.48l1.25-.07-5.36-5.49.8-.05c1.79,1.83,3.58,3.66,5.36,5.51l1.25-.06q-2.67-2.77-5.36-5.52l.8,0q2.68,2.76,5.36,5.53l1.25-.05q-2.67-2.77-5.36-5.54l.81,0q2.69,2.78,5.36,5.56l1.24-.05c-1.77-1.86-3.56-3.72-5.35-5.57l.8,0c1.79,1.86,3.58,3.71,5.36,5.58l.5,0v-.82c-1.53-1.61-3.09-3.19-4.63-4.8l.83,0c1.26,1.31,2.54,2.62,3.8,3.95V56.53l-2.65-2.75v-.9c.58.61,1.17,1.21,1.75,1.81v-.06l-.07,0v-.09l-.07,0v-.09l-.07,0V54.3l-.07,0v-.09l-.07,0v-.09l-.06,0V54l-.07,0v-.09l-.07,0v-.09l-.07,0v-.09l-.07,0v-.09l-.07,0v-.09l-.07,0V53.3l-.07,0v-.08l-.07,0v-.09l-.07,0V53l-.07,0v-.09l-.07,0v-.09l-.07,0v-.09l-.05,0V52l-.45-.46v-.88l.45.46V49.7l-2.53-2.6v0h0l0,0V47h-.05v-.85l2.65,2.73V47.45c-.88-.91-1.77-1.82-2.65-2.74v-.87L292.15,47a3.74,3.74,0,0,0,.83-.5l-3.89-4v-.88c1.45,1.51,2.9,3,4.34,4.52a4.18,4.18,0,0,0,.58-.75q-2-2.13-4.07-4.25a3.71,3.71,0,0,0,.41-.28l.09-.08,3.87,4a5.62,5.62,0,0,0,.19-.58l.11-.46c-1.16-1.23-2.36-2.44-3.53-3.66a5.91,5.91,0,0,0,.35-.52c1.29,1.34,2.59,2.67,3.88,4a5.56,5.56,0,0,0,.92,0l0,0,0,0,.1.07,0,0,.1.07,0,0,.11.07,0,0,.11.07,0,0,.11.07,0,0,.11.06,0,.05.11.07,0,0,.11.07,0,0,.11.07,0,0,.11.07,0,0,.11.07,0,0,.11.07,0,0,.11.06,0,0,.11.07,0,0,.1.07,0,0,.1.07,0,0,.11.07,0,0,.11.07,0,0,.11.07,0,0,.11.07,0,0,.11.07,0,0,.11.07,0,0,.11.07,0,0,.11.07,0,0,.11.07,0,.05.11.07,0,0,.11.07,0,0,.1.07,0,0,.1.07,0,0,.57.37c4.28,4.55,6.7,7.17,11.24,12.17a8.52,8.52,0,0,0,1.62.39c-2.95-3.25-5.07-5.58-7.29-8a17.65,17.65,0,0,0,1.47,1c.19.11.39.2.59.3,1.82,2,3.7,4,6.11,6.71.22,0,.43,0,.65,0l.6,0c-2.12-2.36-3.86-4.27-5.49-6,.32.06.64.13,1,.16,1.57,1.72,3.24,3.57,5.26,5.82a9.49,9.49,0,0,0,1.06-.22c-1.89-2.11-3.5-3.89-5-5.54l.7,0c1.64,1.79,3.29,3.58,4.92,5.39.31-.11.61-.24.91-.38q-2.36-2.59-4.73-5.18l.67-.16c1.54,1.69,3.1,3.38,4.63,5.09a5.24,5.24,0,0,0,1.91.73c-1.86-2.06-3.73-4.1-5.6-6.15.19-.08.38-.18.56-.27q3,3.26,5.93,6.53l.28,0a6.84,6.84,0,0,0,.91-.07c-1.86-2.08-3.74-4.14-5.62-6.21a6,6,0,0,0,1.07.27c1.74,1.93,3.49,3.85,5.22,5.79a4.48,4.48,0,0,0,.9-.37c-1.6-1.8-3.21-3.58-4.82-5.36a5.6,5.6,0,0,0,.73-.09c1.54,1.71,3.08,3.41,4.6,5.13a4.6,4.6,0,0,0,.71-.6c-1.43-1.61-2.88-3.21-4.31-4.81a4.07,4.07,0,0,0,.55-.28c1.38,1.54,2.77,3.08,4.14,4.62a3.48,3.48,0,0,0,.38-.64l.09-.22c-1.27-1.45-2.56-2.87-3.84-4.31a5.33,5.33,0,0,0,.42-.4C323.13,53.47,324.37,54.83,325.59,56.2ZM4.9,72.05l1.17.54.46.19,5.08,4.47a4.28,4.28,0,0,0-1-.14Zm7,1.78-.29.46L10.17,73a4.94,4.94,0,0,0,.64-.15Zm-.2-1.29c.17-.08.33-.19.5-.29l.5.44a2.78,2.78,0,0,0-.27.33l-.07.1Zm1.25,4h0l.07.07v0l.07,0,0,0,0,0,.1,0,0,0,.1,0,0,.06.1,0,0,.05.1,0,0,0,.11,0,0,0,.11,0,0,0,.11,0,0,.05.11,0,0,.06.11,0,0,.06.1,0,0,.05.1,0,0,0,.1,0,0,0,.1,0,0,0,.1,0,0,.06.1,0,0,.06.1,0,0,0,.1,0,0,0,.1,0,0,0,.11,0,0,0,.11,0,0,.06.11,0,0,.06.11,0,0,0-.14-.13-.34.52,0,0L14,79,14,78.93l-.07-.09-.07-.09-.07-.09a.36.36,0,0,0-.07-.1,3.1,3.1,0,0,0-.53-.56,2.8,2.8,0,0,0-.4-.27,5.05,5.05,0,0,0,.56-.12L8.25,73.18l.57,0,.25,0Zm0-4.81.3-.21.42.25c-.13.09-.23.19-.35.29Zm33.16-.19a26.13,26.13,0,0,1-10.86,9.79,37.11,37.11,0,0,1-16,3.64,19.74,19.74,0,0,1-7.89-1.15q-2.85-1.22-2.85-3.43a1.55,1.55,0,0,1,.62-1.25,2.11,2.11,0,0,1,1.36-.51h.05a2.09,2.09,0,0,1,1.45.49,1.56,1.56,0,0,1,.59,1.25A1.62,1.62,0,0,1,12,81.67a2.19,2.19,0,0,1-1.41.56,3.1,3.1,0,0,0,1.87.59,5,5,0,0,0,3.19-1.11A4,4,0,0,0,17,78.43a4.73,4.73,0,0,0-.87-3.14,5.21,5.21,0,0,0-2.18-1.5,3,3,0,0,1,1.27-1,3.82,3.82,0,0,1,1.78-.4V68.12a15.44,15.44,0,0,1-6.21-2.48,1.09,1.09,0,0,0,.05-.4,1.42,1.42,0,0,0-.48-1.09,1.64,1.64,0,0,0-1.21-.43,1.53,1.53,0,0,0-1.1.47,1.44,1.44,0,0,0-.49,1.11,1.19,1.19,0,0,0,.4.84A4.56,4.56,0,0,1,5.28,67a4.46,4.46,0,0,1-1.92-.43q1.76-1.11,1.75-5.42a23,23,0,0,0-.39-4.44,19.93,19.93,0,0,1-.4-3.9A15.31,15.31,0,0,1,7,44.11a19.27,19.27,0,0,1,7.43-6.4A28.26,28.26,0,0,1,25.46,34.8a23.47,23.47,0,0,1,12.41,2.34,21.43,21.43,0,0,1,8.85,8.12A22.2,22.2,0,0,1,49.94,57,27.3,27.3,0,0,1,46.07,71.58ZM14.65,78.8l0,0h0ZM14.78,80l.06,0h0ZM53.9,41.46a3.14,3.14,0,0,1,1-2.29A3.92,3.92,0,0,1,57.29,38a3.09,3.09,0,0,1,2.37.63,2.56,2.56,0,0,1,1,2.09,3.36,3.36,0,0,1-1,2.38,3.69,3.69,0,0,1-2.37,1.17,3.08,3.08,0,0,1-2.4-.69A2.68,2.68,0,0,1,53.9,41.46Zm-2.33,35.7-.4-.34.06-.1h.07v.09h.07v.09h.07V77h.06v.09h.07Zm.07.06,0,0h0Zm.07.06h0ZM62.15,47.33a3.39,3.39,0,0,0-1.67,1.43A4.43,4.43,0,0,0,59.89,51v4.82a11.05,11.05,0,0,0,.28,2.9,4.46,4.46,0,0,0,.91,1.69,5.53,5.53,0,0,0-.88,1.73,10.37,10.37,0,0,0-.31,2.93V70a3.84,3.84,0,0,0,.59,2.15,2.75,2.75,0,0,0,1.67,1.16v.11c-3.91.33-5.87.49-9.78.78v-.1A3.44,3.44,0,0,0,54,72.63a4.27,4.27,0,0,0,.59-2.23V65.55a10.61,10.61,0,0,0-.28-2.86,3.66,3.66,0,0,0-.91-1.57,5.42,5.42,0,0,0,.91-1.85,11.5,11.5,0,0,0,.28-2.94V51.54A3.78,3.78,0,0,0,54,49.41a2.51,2.51,0,0,0-1.67-1.09v-.16c3.91-.37,5.87-.57,9.78-1Zm3,26.15v-.24l0,.05.07.09.07.1.07.09.07.09.07.09.07.09.06.08Zm2,2.91v0l0,0Zm5.65-4.56A4.39,4.39,0,0,1,70.35,73a4.91,4.91,0,0,1-3.59-.85,4.19,4.19,0,0,1-1.39-3.57v-4a11.37,11.37,0,0,0-.28-3A4,4,0,0,0,64.18,60a5.06,5.06,0,0,0,.91-1.79,11.82,11.82,0,0,0,.28-3V39.73a2.12,2.12,0,0,1-1.5-.27,1,1,0,0,1-.42-1,3.16,3.16,0,0,0,1.92-.7,9.2,9.2,0,0,0,1.39-1.4c.47-.56.89-1.11,1.27-1.65a17.92,17.92,0,0,1,2.26-2.74,4.38,4.38,0,0,1,2.49-1.08,6.45,6.45,0,0,0-1.47,2.49,9.48,9.48,0,0,0-.57,3.26V66.32a3.09,3.09,0,0,0,.79,2.42,2.38,2.38,0,0,0,1.87.58,3.4,3.4,0,0,0,.68-.12A3.35,3.35,0,0,1,72.89,71.83ZM76,43.38l2.24,1.83-.45.38L76,44.14Zm0,1.93,1.09.89-.43.4L76,46.06Zm17.31,23.6a1.92,1.92,0,0,1,.4,1.22L89,70.68a11.34,11.34,0,0,1-4,1.08,9,9,0,0,1-4.46-.4,13.44,13.44,0,0,1-3.34-2.12,11.5,11.5,0,0,0-2-1.43,7.18,7.18,0,0,0,.84-2,9.39,9.39,0,0,0,.34-2.55,9.92,9.92,0,0,0-.31-2.56,4.3,4.3,0,0,0-.82-1.77,4.94,4.94,0,0,0,.88-1.76,12.68,12.68,0,0,0,.25-3A6.28,6.28,0,0,0,75.21,50a23.57,23.57,0,0,0,2.2-1.9A28,28,0,0,1,81,45.18a9,9,0,0,1,3.85-1.35,6.56,6.56,0,0,1,3.53.33,13,13,0,0,1,3,2c.18.12.49.35.9.68a6,6,0,0,0,1.24.8,17.17,17.17,0,0,0-.22,3.26V53a13.74,13.74,0,0,0-5.8,3,18.1,18.1,0,0,0-4.23,5.1,10.87,10.87,0,0,0-1.56,5.2,4.12,4.12,0,0,0,1,2.93,2.76,2.76,0,0,0,2.46.9A5.32,5.32,0,0,0,90,64.94a4,4,0,0,0-.85-2.53,2.81,2.81,0,0,0-2.09-1.14A2.59,2.59,0,0,1,88,59.42a3.93,3.93,0,0,1,2.29-1.05A2.63,2.63,0,0,1,93,59.45a6.08,6.08,0,0,1,.94,3.62,8.24,8.24,0,0,1-1.76,5.1A2.2,2.2,0,0,1,93.35,68.91Zm2.25-9.07v0l-.06-.08h0l0,0,.13-.06c0,.08,0,.17,0,.26S95.62,59.86,95.6,59.84ZM98.11,72c.09-.17.16-.35.24-.53h0a.86.86,0,0,0,.07.1l.07.09.07.09.07.09.07.09.07.09.07.09.07.09.06.09.07.09.07.09.07.1.07.09.07.09.07.09.07.09.07.09.07.09.07.09.07.09.07.09.07.09v0Zm8.61-31A15.43,15.43,0,0,1,105,43.72a4.44,4.44,0,0,1-2.21.86V62.87a3.12,3.12,0,0,0,.79,2.49,2.42,2.42,0,0,0,1.92.52,4.87,4.87,0,0,0,.74-.15A3.5,3.5,0,0,1,105,68.48a4.74,4.74,0,0,1-2.62,1.25A4.67,4.67,0,0,1,98.84,69a4.3,4.3,0,0,1-1.36-3.63V61.23a11.62,11.62,0,0,0-.28-3,4.72,4.72,0,0,0-.85-1.62,6.27,6.27,0,0,0,.85-1.89,13.29,13.29,0,0,0,.28-3.11v-8a2.82,2.82,0,0,0-1.3-.14,3.2,3.2,0,0,0-1.41.52,1.08,1.08,0,0,1,.62-1.06,4.45,4.45,0,0,1,1.75-.57l.34,0V35.47h-.06a2.07,2.07,0,0,1-1.5-.24,1,1,0,0,1-.42-1,3.2,3.2,0,0,0,1.92-.77A9.49,9.49,0,0,0,98.81,32c.47-.59.89-1.17,1.27-1.73a19,19,0,0,1,2.26-2.86,4.41,4.41,0,0,1,2.49-1.18,6.91,6.91,0,0,0-1.47,2.59,10.05,10.05,0,0,0-.57,3.36V42a5.55,5.55,0,0,0,3.08-1.83,6.31,6.31,0,0,0,1.5-2.64,1.42,1.42,0,0,1,.28.94A6.58,6.58,0,0,1,106.72,41Zm15.37,7.15.06.09.07.09.07.09.07.09.07.09.07.09.07.09.07.09.06.08-.85-.69Zm-.55,1,2.54,2.1c-.16.14-.31.3-.47.46L121.54,50Zm0,2L123,52.36c-.14.15-.27.31-.4.46-.34-.29-.69-.57-1-.85Zm0,2,.46.37c-.13.16-.26.3-.38.47l-.08-.06ZM108.23,34.89l0,0,.07.09.07.09.07.09.07.09.06.09.07.09.07.09.07.09,0,0-.67-.55C108.21,35.06,108.21,35,108.23,34.89Zm-.14,15.49.25-.11.81.66c0,.27,0,.5-.05.7l-1-.83Zm0,1.63.85.69h0a5.27,5.27,0,0,1-.2.6l-.65-.53Zm0,2,.2.16-.2.3Zm0,2,.49.4,0,0h0l.06.06v0h0a5.51,5.51,0,0,1,.27.65c0,.08,0,.2.08.36l-.94-.77Zm0,2,1.06.87c0,.22,0,.47,0,.74l-1.07-.89Zm0,1.92,1.07.89v.77l-1.07-.89Zm0,2.77v-.79l1.07.89v.78ZM109,64.6v0l0,0Zm.06.09v-.06l0,0Zm.14.19v-.12l-.08,0v-.09l.12.1v.06Zm.07.09v0h0Zm2.32,4.55h0l0,0ZM120.17,39a14.7,14.7,0,0,1-1.72,2.73,4.44,4.44,0,0,1-2.21.89V61.07a3.18,3.18,0,0,0,.8,2.52,2.32,2.32,0,0,0,1.92.5,3.11,3.11,0,0,0,.73-.15,3.59,3.59,0,0,1-1.21,2.79A4.82,4.82,0,0,1,115.85,68a4.58,4.58,0,0,1-3.56-.76c-.91-.7-1.36-1.92-1.36-3.66V59.45a11.49,11.49,0,0,0-.28-3,4.64,4.64,0,0,0-.85-1.62,6.25,6.25,0,0,0,.85-1.91,13.2,13.2,0,0,0,.28-3.15V41.65a2.8,2.8,0,0,0-1.3-.13,3.35,3.35,0,0,0-1.41.54,1.11,1.11,0,0,1,.62-1.07,4.35,4.35,0,0,1,1.75-.59l.34,0V33.43h-.06a2,2,0,0,1-1.49-.23,1,1,0,0,1-.43-1.05,3.15,3.15,0,0,0,1.92-.79,9.35,9.35,0,0,0,1.39-1.5c.47-.6.89-1.18,1.27-1.76a19.23,19.23,0,0,1,2.26-2.9A4.44,4.44,0,0,1,118.28,24a7.39,7.39,0,0,0-1.47,2.63,10.33,10.33,0,0,0-.57,3.4V40a5.73,5.73,0,0,0,3.09-1.87,6.48,6.48,0,0,0,1.49-2.67,1.41,1.41,0,0,1,.29.94A6.74,6.74,0,0,1,120.17,39Zm20.41,24.91a4,4,0,0,1-1.84.7,3.22,3.22,0,0,1-3.22-1A9.66,9.66,0,0,1,130,66.1a9.49,9.49,0,0,1-6.42-1,5.23,5.23,0,0,1-2.45-4.77,8.53,8.53,0,0,1,1.35-4.69,16.13,16.13,0,0,1,3.2-3.66c1.22-1,2.79-2.17,4.66-3.45a33.54,33.54,0,0,0,3.53-2.7,2.78,2.78,0,0,0,1.1-2V41.62a2.11,2.11,0,0,0-.81-1.56,5.39,5.39,0,0,0-2-1.09,5.46,5.46,0,0,0-2.4-.17A4.8,4.8,0,0,0,127,40.05a3.06,3.06,0,0,0-1,2.25,1.63,1.63,0,0,0,.57,1.38A1.71,1.71,0,0,0,128,44a2.54,2.54,0,0,0,1.32-.59,1.46,1.46,0,0,0,.54-1.14.59.59,0,0,0-.23-.51,1.09,1.09,0,0,1,1.22.14,1.83,1.83,0,0,1,.65,1.61,4.16,4.16,0,0,1-1.3,2.91A4.9,4.9,0,0,1,127.32,48a4.12,4.12,0,0,1-3.64-.91,4.51,4.51,0,0,1-1.33-3.45,5.48,5.48,0,0,1,1.81-4.13,8.68,8.68,0,0,1,4.75-2.18,10.42,10.42,0,0,1,3.25,0,38.12,38.12,0,0,1,3.81.8c1.13.29,2.06.5,2.77.61a5.91,5.91,0,0,0,1.92,0,19.88,19.88,0,0,0-.45,5.2v1.17a11.57,11.57,0,0,0,.31,3.07,4.41,4.41,0,0,0,.94,1.69,7.19,7.19,0,0,0-.94,2,12,12,0,0,0-.31,3.11v6.07a1.89,1.89,0,0,0,.37,1.2,1.29,1.29,0,0,0,1,.49A3.12,3.12,0,0,1,140.58,63.89Zm5,6.21-.34-.29.09-.08h0v.1h.07v.1h.07V70h.07Zm.07.06-.05,0h.05ZM157.23,63v0l0,0Zm-.47-1.67v-.36l0,0a.86.86,0,0,1,.07.1l.07.09.07.09s0,.06.07.1l.07.09.07.09a.36.36,0,0,0,.07.1l.07.09.07.09.06.1,0,0Zm2.13,3.87v0h0l0,0v-.06h-.07V65l-.07,0v-.08h-.07v-.08h-.07v-.08l-.07,0v-.08h-.07v-.08l-.07,0V64.4l-.07,0V64.3h-.07v-.08l-.07,0v-.08h-.07V64L158,64v-.07l-.07,0v-.08h-.06v-.08l-.07,0v-.07l-.07,0v-.08h-.07v-.08l-.07,0v-.08h-.07v-.08h-.07v-.08l-.07,0v-.08h-.07V63l2,1.72a10,10,0,0,0,.29,1Zm7.38,1.3a2.36,2.36,0,0,1-1.47.78,2.87,2.87,0,0,1-3.05-1.3,9.11,9.11,0,0,1-1-4.86v-.28a4.09,4.09,0,0,1-2.49-1.1,3.35,3.35,0,0,1-1-2.51V38A5,5,0,0,0,157,36.1a2.56,2.56,0,0,0-.93-1.11,1.92,1.92,0,0,0-1.39-.25,3.32,3.32,0,0,0-2.09,1.16,3.6,3.6,0,0,0-.79,2.4,2.29,2.29,0,0,0,.68,1.69,2,2,0,0,0,1.81.5,2.61,2.61,0,0,1-.63,1.75,3,3,0,0,1-1.92,1l-.28,0V58.51a4.25,4.25,0,0,0,.57,2.27A2.45,2.45,0,0,0,153.66,62v.11l-9.77,1.41v-.11a3.81,3.81,0,0,0,1.66-1.64,5,5,0,0,0,.6-2.43v-5.2a11.89,11.89,0,0,0-.29-3.09,4.14,4.14,0,0,0-.9-1.65,7.14,7.14,0,0,0,.88-2,13,13,0,0,0,.31-3.23v-6a2,2,0,0,0-.37-1.26,1.26,1.26,0,0,0-1.05-.47,2.8,2.8,0,0,1,1-1.17,4.46,4.46,0,0,1,1.87-.7,3.88,3.88,0,0,1,2.88.48,8,8,0,0,1,4.24-2,6.52,6.52,0,0,1,3.7.29,14.17,14.17,0,0,1,3.14,2.08,12.89,12.89,0,0,0,2.2,1.51q-1.18,1.32-1.18,4.94v22.3a3.19,3.19,0,0,0,.28,1.49v-.17a2.36,2.36,0,0,1,2-2.27,1.63,1.63,0,0,1,1.41.4,1.68,1.68,0,0,1,.57,1.31A2.27,2.27,0,0,1,166.27,66.47Zm10.82-36.81a16.15,16.15,0,0,1-1.72,2.86,4.29,4.29,0,0,1-2.2.93V52.73a3.37,3.37,0,0,0,.79,2.62,2.27,2.27,0,0,0,1.92.52,3.44,3.44,0,0,0,.73-.17,3.83,3.83,0,0,1-1.21,2.92A4.74,4.74,0,0,1,172.77,60a4.47,4.47,0,0,1-3.56-.76c-.91-.72-1.36-2-1.36-3.81V51.08a12.45,12.45,0,0,0-.28-3.14,4.75,4.75,0,0,0-.85-1.68,6.73,6.73,0,0,0,.85-2,14.27,14.27,0,0,0,.28-3.28V32.51a2.56,2.56,0,0,0-1.3-.13,3.39,3.39,0,0,0-1.41.57,1.19,1.19,0,0,1,.62-1.12,4.5,4.5,0,0,1,1.75-.63l.34-.06V23.93h0a1.93,1.93,0,0,1-1.5-.23,1,1,0,0,1-.43-1.09,3.22,3.22,0,0,0,1.93-.84,10.75,10.75,0,0,0,1.38-1.58c.47-.63.9-1.24,1.27-1.84a20.36,20.36,0,0,1,2.26-3A4.45,4.45,0,0,1,175.2,14a7.83,7.83,0,0,0-1.47,2.75,11.16,11.16,0,0,0-.56,3.54V30.71a5.73,5.73,0,0,0,3.08-2,6.74,6.74,0,0,0,1.49-2.8,1.55,1.55,0,0,1,.29,1A7,7,0,0,1,177.09,29.66Zm19.08,24.93a2.17,2.17,0,0,1,.4,1.31l-4.75.66a10.8,10.8,0,0,1-4,1.25,8.33,8.33,0,0,1-4.46-.31,13.27,13.27,0,0,1-3.34-2.19,10,10,0,0,0-2-1.47,9,9,0,0,0,.85-2.22,11.55,11.55,0,0,0,.34-2.77,11.42,11.42,0,0,0-.32-2.76,4.59,4.59,0,0,0-.82-1.88,5.67,5.67,0,0,0,.88-1.94,14.68,14.68,0,0,0,.26-3.22A7,7,0,0,0,178,34.6a26.49,26.49,0,0,0,2.2-2.13,30.9,30.9,0,0,1,3.56-3.28,8.69,8.69,0,0,1,3.85-1.54,6,6,0,0,1,3.53.29,12.58,12.58,0,0,1,3,2.07,8.48,8.48,0,0,1,.9.72,5.77,5.77,0,0,0,1.25.85,19.78,19.78,0,0,0-.23,3.52v2.31a13.53,13.53,0,0,0-5.79,3.35,19.84,19.84,0,0,0-4.24,5.6A12.66,12.66,0,0,0,184.47,52a4.57,4.57,0,0,0,1,3.13,2.61,2.61,0,0,0,2.46.92,5.27,5.27,0,0,0,3.62-2,6,6,0,0,0,1.3-3.68,4.46,4.46,0,0,0-.85-2.71,2.64,2.64,0,0,0-2.09-1.2,2.92,2.92,0,0,1,.93-2,3.86,3.86,0,0,1,2.29-1.18,2.53,2.53,0,0,1,2.69,1.13,7,7,0,0,1,.93,3.9A9.48,9.48,0,0,1,195,53.8,2.16,2.16,0,0,1,196.17,54.59Zm5.19-13.82.23.21c-.05.26-.09.51-.11.73l-.12-.11Zm0,2.93h0v-.81l.28.24c0,.14.06.28.11.41.13.32.22.56.31.79Zm.58-3.71-.57-.5c0-.3,0-.57,0-.82l.86.76A4.41,4.41,0,0,0,201.93,40Zm3.57,9.52h0v0Zm2.06-.25a2.52,2.52,0,0,1,.69-.21l.75.67c.18.45.37.9.57,1.34Zm42.68,10a4.38,4.38,0,0,1-2.57,1.27,5.36,5.36,0,0,1-3.45-.77,4.5,4.5,0,0,1-2-3,12.51,12.51,0,0,1-4.38,3.63,18.06,18.06,0,0,1-6.36,1.83A19.59,19.59,0,0,1,221.86,61a18.76,18.76,0,0,1-7.66-5.85A27.84,27.84,0,0,1,209.34,45a3.55,3.55,0,0,0-1.72-2.18,4.33,4.33,0,0,0-2.86-.56,4.27,4.27,0,0,0-1.35.43,2.53,2.53,0,0,1-.17-.91,3.38,3.38,0,0,1,1.19-2.44,4.62,4.62,0,0,1,2.6-1.38,2.82,2.82,0,0,1,1.41.15V36.56a35.55,35.55,0,0,1,3.42-15.37,35.47,35.47,0,0,1,9-12,23.55,23.55,0,0,1,11.76-5.72A9.72,9.72,0,0,1,239.7,4.8a12.25,12.25,0,0,1,4.41,5.2,10.65,10.65,0,0,0,3.22-2.35,5,5,0,0,0,1.58-3.34,5.22,5.22,0,0,1,1.25,3.87,12.93,12.93,0,0,1-1.25,5.42,8.53,8.53,0,0,1-3,3.85,1.68,1.68,0,0,0-.62-.91,1.37,1.37,0,0,0-1-.26,1.65,1.65,0,0,0-1.13.69,2.15,2.15,0,0,0-.45,1.32,1.59,1.59,0,0,0,.22.81,1.51,1.51,0,0,0,.57.58,15.62,15.62,0,0,1-2.32,2.73c-1,.94-2.36,2.24-4.13,3.79-2.4,2.12-4.44,4-6,5.56a28.23,28.23,0,0,0-4,5.18,11.06,11.06,0,0,0-1.67,5.7,6.31,6.31,0,0,0,1.75,4.7,3.28,3.28,0,0,1,.88-1.71,2.65,2.65,0,0,1,1.61-.86,2.21,2.21,0,0,1,1.86.54,2.46,2.46,0,0,1,.74,1.88v.12a3.36,3.36,0,0,1-.48,1.48,2.89,2.89,0,0,1-1.27,1.11,3.81,3.81,0,0,1-.85.22h-.06l-.11,0a4.34,4.34,0,0,1-4.1-1.81,8.54,8.54,0,0,1-1.67-5.47,14.19,14.19,0,0,1,1.47-6.35,56.78,56.78,0,0,1,4.3-7,56.35,56.35,0,0,0,3.22-5,10,10,0,0,0,1.25-3.95,9,9,0,0,0,4-3.33,8.81,8.81,0,0,0,1.61-5.09,7.09,7.09,0,0,0-1-3.8,6.27,6.27,0,0,0-2.71-2.45,6.36,6.36,0,0,0-3.68-.5,8.07,8.07,0,0,0-3.73,1.61,9.41,9.41,0,0,0-2.68,3.22,8.76,8.76,0,0,0-1,4.06,7.33,7.33,0,0,0,.82,3.46A5.68,5.68,0,0,0,227.77,20a6.26,6.26,0,0,1-3.5,1.75,4.13,4.13,0,0,1-4.41-2,22.56,22.56,0,0,0-3.17,6.6,33.78,33.78,0,0,0-1.35,10.25A29.78,29.78,0,0,0,217.82,49a23.12,23.12,0,0,0,6.31,8.72c2.54,2.08,5.05,3,7.54,2.71a8.93,8.93,0,0,0,5.54-2.6,7.18,7.18,0,0,0,2.21-5.17,3.71,3.71,0,0,0-.71-2.38A3,3,0,0,0,237,49.15a3.26,3.26,0,0,0-1.64,0,2.7,2.7,0,0,1-.06-.65,3.55,3.55,0,0,1,1.08-2.54,4.54,4.54,0,0,1,2.83-1.32,4,4,0,0,1,2.88.75v-15a35.21,35.21,0,0,0-4.3,4.35,6.48,6.48,0,0,0-1.58,3.84,2,2,0,0,1-1.78-.58,2.39,2.39,0,0,1-.71-1.73A5.17,5.17,0,0,1,235,33.12a15.33,15.33,0,0,1,2.85-2.84c1.11-.86,2.64-1.9,4.5-3.14,2.14-1.43,3.75-2.63,4.8-3.5a5.62,5.62,0,0,0,2-2.68,1.07,1.07,0,0,1,.51.9A4.87,4.87,0,0,1,248.06,25V52.9c0,2.53.95,3.7,2.83,3.52l.57-.11A3.85,3.85,0,0,1,250.24,59.25ZM233.93,45.51h0l-.07-.1-.07-.1-.07-.1-.07-.1a.36.36,0,0,0-.07-.1l-.07-.11-.07-.1-.07-.1-.06-.1a.61.61,0,0,1-.07-.1,3.72,3.72,0,0,0-.55-.64,3.31,3.31,0,0,0-.87-.58c.06-.12.11-.24.18-.36l0,0,2.67,2.48a5.24,5.24,0,0,0-.34.53Zm.23,12.34c-.2.09-.42.16-.64.24-.33-.31-.65-.62-1-.91l.39,0,.17,0,.25,0Zm-5.6-.06a.86.86,0,0,0,.07.1l.07.11a639925192113.39,639925192113.39,0,0,1,.14.2,11.38,11.38,0,0,1-3.54-2,17.89,17.89,0,0,1-1.56-1.47l-.09-.19.87.81c-.17-.57-.32-1.15-.46-1.73l-1.43-1.32c-.17-.42-.33-.85-.47-1.27l1.67,1.54c-.1-.51-.18-1-.25-1.54l-2-1.82c-.09-.35-.17-.71-.25-1.07L223.46,50c0-.39-.07-.79-.09-1.19a2,2,0,0,0,.12.19.36.36,0,0,0,.07.1.36.36,0,0,0,.07.1.36.36,0,0,0,.07.1l.06.1.07.1.07.1.07.1a1599812980289.45,1599812980289.45,0,0,1,.21.3l.07.11.07.09.07.11a.86.86,0,0,1,.07.1l.07.1.07.1.07.1.06.1a.36.36,0,0,1,.07.1h0c0,.13,0,.27.06.39l.56.51.06.09a6399251920925.7,6399251920925.7,0,0,1,.14.2l.06.1a639925192113.56,639925192113.56,0,0,1,.14.2l.07.1a1919775576340.38,1919775576340.38,0,0,1,.21.3,1066541986859.55,1066541986859.55,0,0,0,.21.3.36.36,0,0,0,.07.1l.07.11.07.1.07.1.06.1a639925192113.61,639925192113.61,0,0,1,.14.2.86.86,0,0,1,.07.1l.07.1.1.14-1.79-1.66a9.08,9.08,0,0,0,.88,1.73l.07.1.07.1.07.1.06.1a581750174667.43,581750174667.43,0,0,0,.14.2.61.61,0,0,1,.07.1l.07.1a639925192113.49,639925192113.49,0,0,0,.14.2l.06.09,3.39,3.16a6.89,6.89,0,0,1-1.15-.23l-.63-.59Zm-2.28-26.66c-.11.18-.22.36-.34.54L223,29l.27-.59C224.21,29.24,225.2,30.15,226.28,31.13Zm-1.71-2.79a5.36,5.36,0,0,0,1.39.36l1.2,1.1c-.12.18-.26.37-.38.56C226.05,29.68,225.31,29,224.57,28.34Zm.85,4.16c-.12.19-.21.36-.32.55l-2.76-2.51c.07-.22.15-.42.23-.63Zm-.82,1.4-.31.56-2.51-2.28c0-.12.07-.24.11-.36s.07-.19.1-.29Zm-.78,1.44c-.08.16-.18.33-.25.49l0,.08-2.19-2c0-.24.1-.46.16-.69Zm-.71,1.5-.24.62L221,35.77c0-.25.07-.5.11-.74Zm-.57,1.62c-.07.23-.12.45-.18.68l-1.57-1.43c0-.26.05-.52.08-.77Zm-.42,1.77c0,.25-.07.5-.1.74l-1.35-1.23,0-.8Zm-.22,1.94c0,.28,0,.55,0,.82l-1.24-1.13c0-.13,0-.26,0-.39s0-.3,0-.45Zm0,2.18c0,.33.07.64.12.95l-1.31-1.2c0-.3-.05-.6-.07-.9Zm.54,2.64a9,9,0,0,0,.62,1.41L221,46.51c0-.32-.1-.64-.14-1C221.4,46,221.93,46.49,222.48,47Zm7.1,9.56a5.78,5.78,0,0,0,1.46.52l1.4,1.32c-.24,0-.48.11-.75.14Zm4.94.21a4,4,0,0,0,.5-.27l.5.47c-.16.13-.32.27-.49.39l-.58-.55Zm-2-14.7c.11-.17.22-.35.34-.51l2.87,2.66a4.47,4.47,0,0,0-.45.42C234.28,43.67,233.41,42.85,232.55,42.06Zm.91-1.3.29-.39h0a1066541986859.65,1066541986859.65,0,0,0,.21.3.61.61,0,0,0,.07.1,6399251921347.92,6399251921347.92,0,0,0,.14.2l.06.1.07.1.07.1.07.11a639925192113.46,639925192113.46,0,0,0,.14.2.86.86,0,0,1,.07.1l.07.1.07.1.07.1a.86.86,0,0,0,.07.1l.06.09Zm-6-12,.38,0,.13,0a3.78,3.78,0,0,0-.22.33Zm9.71-13.58c-.09.19-.2.38-.31.57l-3.1-2.84c.2-.1.41-.2.62-.28ZM235.4,12.3l.26-.06.56-.05,1.43,1.32c-.05.23-.1.47-.17.69Zm.87,4.22c-.13.17-.26.34-.39.49l-3.5-3.2a5.37,5.37,0,0,1,.44-.37l0,0Zm-1.09,1.17c-.17.14-.35.25-.52.37L231.31,15a6,6,0,0,1,.38-.5Zm-1.4.88c-.12.05-.22.12-.34.17l-.28.11-2.64-2.41c.08-.18.15-.37.25-.55,0,0,0,0,0,0C231.7,16.67,232.67,17.55,233.78,18.57Zm-1.56.74-.06.79c-.76-.69-1.44-1.32-2.1-1.91,0-.25.08-.49.13-.73Zm-.31,1.92,0,0,.07.07h0Zm.1.07v0h0Zm-.14-.15,0,0h0ZM235.76,56a4.47,4.47,0,0,0,.43-.44l.39.38c-.12.15-.25.31-.39.46Zm18-1.11,0,0h0Zm-.07-.07,0,0h0Zm1.72-40.05,1.84,1.75-.8.1-1.15-1.1C255.29,15.22,255.33,15,255.36,14.72ZM255,16.59l.13.12-.17,0A1,1,0,0,1,255,16.59Zm-1.29,32.62-.37-.35v-.23l0,0,0,0,.11.06,0,0,.11.06,0,0,.11.06,0,0,.11.06,0,0,.11.06Zm.09.08,0,0,.05,0ZM274,16.73q-1.92.91-1.92,4.28V26.7a14.64,14.64,0,0,0,.28,3.4,5.24,5.24,0,0,0,.9,1.87,6.44,6.44,0,0,0-.9,2.07,15.74,15.74,0,0,0-.28,3.48v6.6a2.51,2.51,0,0,0,.34,1.35,1.45,1.45,0,0,0,1,.69,2.79,2.79,0,0,1-1,1.15,3.62,3.62,0,0,1-1.84.6,3.39,3.39,0,0,1-2.94-1A8.38,8.38,0,0,1,263,48.84a6.8,6.8,0,0,1-3.82-.63,18.32,18.32,0,0,1-3.42-2.46,15.33,15.33,0,0,0-2.2-1.72q1.19-1.32,1.18-5.19V36.3l-.17,0c-1.47.15-2.22-.61-2.26-2.3a2.29,2.29,0,0,0,1.84-1.13,4.58,4.58,0,0,0,.59-2.39V22.82c0-2.21-.64-3.49-1.92-3.82v-.12c3.67-.44,5.5-.65,9.16-1.05V18q-1.92.94-1.92,4.28V43.7a3.42,3.42,0,0,0,.9,2.53A2.55,2.55,0,0,0,263,47a3.77,3.77,0,0,0,2.38-1.12,3.37,3.37,0,0,0,1-2.52,2.71,2.71,0,0,0-.67-1.86,2,2,0,0,0-1.81-.66,2.75,2.75,0,0,1,.62-1.88,2.7,2.7,0,0,1,1.92-.85l.28,0V21.53c0-2.24-.64-3.53-1.92-3.89v-.12c3.67-.39,5.5-.57,9.16-.92Zm16.05,13.63a3.38,3.38,0,0,1-2.71-1,3.69,3.69,0,0,1-1.13-2.76,4.1,4.1,0,0,1,.73-2.49A2.35,2.35,0,0,1,288.71,23a1.84,1.84,0,0,1,1.49.52,2,2,0,0,1,.6,1.5,2.39,2.39,0,0,1-.48,1.46,2.07,2.07,0,0,1-1.22.82,2.18,2.18,0,0,0,.68,0,2.63,2.63,0,0,0,2.06-1.28,4.72,4.72,0,0,0,.82-2.75,4.18,4.18,0,0,0-1-2.81,3.13,3.13,0,0,0-2.69-1.09,5.06,5.06,0,0,0-3.62,2A7,7,0,0,0,283.79,26a9.06,9.06,0,0,0,.85,4.1,5.88,5.88,0,0,0,2,2.42,2.18,2.18,0,0,1-.79,1.2,2.78,2.78,0,0,1-2,.54v8a5.36,5.36,0,0,0,.59,2.61A2.75,2.75,0,0,0,286,46.25v.18c-3.89.23-5.83.35-9.72.63v-.19a3.25,3.25,0,0,0,1.61-1.58,5.72,5.72,0,0,0,.59-2.68V37a14.74,14.74,0,0,0-.28-3.41,5.39,5.39,0,0,0-.9-1.9,7.46,7.46,0,0,0,.87-2.09,14.53,14.53,0,0,0,.31-3.47V19.45a2.67,2.67,0,0,0-.34-1.38,1.23,1.23,0,0,0-1-.65,2.83,2.83,0,0,1,1-1.17,3.73,3.73,0,0,1,1.84-.62,3.51,3.51,0,0,1,2.71.79,3.29,3.29,0,0,1,1.08,2.65v.25a11.77,11.77,0,0,1,2.26-3.23,4.82,4.82,0,0,1,3.16-1.51,4,4,0,0,1,3.68,1.29,1.74,1.74,0,0,1,1.07-.38,1.09,1.09,0,0,1,1.25.66,2.55,2.55,0,0,0-1.3,1,3,3,0,0,0-.57,1.83,13.74,13.74,0,0,0,.4,2.89,14.06,14.06,0,0,1,.34,3A6.7,6.7,0,0,1,293,28.61,3.6,3.6,0,0,1,290.06,30.36Zm5.35,12c-1.19-1.25-2.39-2.49-3.59-3.74l0-.09.15-.6c1,1,2,2,2.95,3.07l-.25.27.11.06,0,.05.11.07,0,0,.11.07,0,0,.11.07,0,0,.11.07,0,0,.11.07,0,0,.11.07,0,0,.11.07,0,0,.1.07,0,0,.1.07Zm.09.09,0,0h0Zm.09-2.15c-.75-.79-1.51-1.57-2.26-2.35a2.43,2.43,0,0,0,.27,0,4.46,4.46,0,0,0,.51-.07l1.89,2Zm1-1.21-1.4-1.47a5.18,5.18,0,0,0,.6-.26l1,1A5.49,5.49,0,0,1,296.56,39.05Zm.37-1.87-.36-.38a4.12,4.12,0,0,0,.41-.32C297,36.74,297,37,296.93,37.18ZM318,14q-1.92.81-1.92,4.28v5.85a15.89,15.89,0,0,0,.28,3.53,5.89,5.89,0,0,0,.91,2,5.94,5.94,0,0,0-.91,2.06,16.39,16.39,0,0,0-.28,3.56v6.81a2.78,2.78,0,0,0,.34,1.41,1.59,1.59,0,0,0,1,.78,2.63,2.63,0,0,1-1.05,1.11,3.48,3.48,0,0,1-1.84.49,3.53,3.53,0,0,1-2.94-1.21A7.73,7.73,0,0,1,307,46.31a6.88,6.88,0,0,1-3.82-.89,21,21,0,0,1-3.42-2.75,16.49,16.49,0,0,0-2.2-1.9q1.19-1.31,1.19-5.29V32.87h-.17c-1.47.07-2.23-.76-2.26-2.5a2.14,2.14,0,0,0,1.83-1.06,4.61,4.61,0,0,0,.6-2.43V19c0-2.28-.64-3.63-1.93-4.05V14.8c3.67-.22,5.5-.32,9.16-.5v.13q-1.92.84-1.92,4.28V40.83a3.78,3.78,0,0,0,.9,2.66,2.69,2.69,0,0,0,2.1.94,3.44,3.44,0,0,0,2.37-1,3.31,3.31,0,0,0,1-2.53,3,3,0,0,0-.68-2,2.15,2.15,0,0,0-1.81-.8,2.78,2.78,0,0,1,.62-1.89,2.53,2.53,0,0,1,1.92-.74h.29V18.42c0-2.3-.64-3.68-1.93-4.12v-.13c3.67-.15,5.5-.22,9.16-.31Z" fill="#1c1b0a"/><path d="M9,45.57A12.73,12.73,0,0,0,7,52.48a13,13,0,0,0,1.27,5.71,12.63,12.63,0,0,0,3.56,4.47A11.64,11.64,0,0,0,17,65a10,10,0,0,0-.28-2.75,4.68,4.68,0,0,0-.85-1.61A4.45,4.45,0,0,0,16.7,59,10.69,10.69,0,0,0,17,56.14V44.32A2.39,2.39,0,0,1,15.54,44a.89.89,0,0,1-.31-1,2.07,2.07,0,0,0,.79-.11,7.24,7.24,0,0,0,1.08-.38,5.55,5.55,0,0,0,1.58-1.17c.45-.48,1-1.14,1.7-2a20.35,20.35,0,0,1,2.09-2.36A22.14,22.14,0,0,0,14.67,40,18,18,0,0,0,9,45.57Zm3.27,12.2,2.19,1.88-.05.06-.3.36-1.77-1.53C12.35,58.29,12.33,58,12.31,57.77Zm.59,3c-.11-.31-.19-.63-.27-1l1.24,1.07.07.09h0l.08.09h0l.08.09h0l.08.09h0l.07.09h0l.07.08h0l.07.08h0l.07.08h0l.07.08h0l.07.09h0l.07.09h0l.06.08h0v0a3.25,3.25,0,0,1,.23.54ZM15,62.69v0s0,0,0,0Zm0-4a1.7,1.7,0,0,1-.09.24l-2.61-2.24c0-.23,0-.46.05-.68l2.73,2.35A2,2,0,0,1,15,58.64Zm.2-1.35L12.48,55c0-.2.08-.4.13-.6l2.6,2.23C15.21,56.86,15.2,57.09,15.19,57.29Zm0-1.8-2.35-2c.07-.18.13-.36.2-.55l2.15,1.84Zm0-1.83-1.79-1.53c.08-.17.16-.34.25-.5l1.54,1.31Zm0-1.83-1.11-.95.32-.46.79.68Zm0-2.46V50l-.29-.24Z" fill="#1c1b0a"/><path d="M36.77,40.09c-.08,0-.11,0-.11-.05a6.46,6.46,0,0,0-4.58-1.43,5.31,5.31,0,0,0-3.68,1.8,2,2,0,0,1-1.32-.8,2.39,2.39,0,0,1-.49-1.47,2.19,2.19,0,0,1,.68-1.63q-1.24,0-2,0l-.9.06A8,8,0,0,0,23,41.21V64.62a10.26,10.26,0,0,0,4.64-2.5,5.25,5.25,0,0,0,1.75-3.82,5.7,5.7,0,0,0-.62-2.79A3.48,3.48,0,0,0,27.24,54a2.93,2.93,0,0,0-1.78-.28,2.47,2.47,0,0,1-.22-1.11,3.14,3.14,0,0,1,1.3-2.49A5.85,5.85,0,0,1,30,48.88a5.56,5.56,0,0,1,4.83,1.67,7.27,7.27,0,0,1,1.67,5,10.18,10.18,0,0,1-2,5.9,15.83,15.83,0,0,1-5.09,4.65A17,17,0,0,1,23,68.38V83.05a33.8,33.8,0,0,0,11.53-3.71,20.45,20.45,0,0,0,7.75-6.71,5.12,5.12,0,0,1-.91.15,6.3,6.3,0,0,1-3.61-.86,3.85,3.85,0,0,1-1.87-3.29A10.35,10.35,0,0,0,41.43,64a15.3,15.3,0,0,0,2.07-8,22.72,22.72,0,0,0-1.81-9.38A17.11,17.11,0,0,0,36.77,40.09Zm-8,40-.46-.4v-.73l1.06.92Zm1.52-.54-2-1.71v-.73l2.55,2.21Zm.67-.27V79l.64-.18c-1.21-1-2.28-2-3.29-2.83v-.72l3.93,3.38.54-.19C32.2,78.73,31.6,79,31,79.26Zm2.17-1-4.66-4c.22-.05.43-.12.64-.18L33.68,78Zm1.33-.72L30.1,73.79l.6-.22L35,77.25Zm1.26-.78-4.15-3.56.56-.25,4.06,3.49Zm1.63-1.2-.44.36-4-3.38.52-.29ZM36,72.86,36,73l.07.09.07.09.07.09.07.09.07.1.07.09.07.09.07.09.07.09.07.09,0,0-2.46-2.1.48-.32.42.36.14.21.07.09.07.09.07.09.07.09.07.09.07.09.07.09.07.09Zm2.89-27.12a1.56,1.56,0,0,0,.47.32l.21.21.12.23-1.24-1C38.54,45.55,38.69,45.63,38.84,45.74Zm-3.23-1a3.62,3.62,0,0,1,.57,0l4.29,3.57c.12.33.24.67.34,1l-5.46-4.55A2.34,2.34,0,0,1,35.61,44.75Zm-7.15-.49h0s0,0,0,0l.05.06,0,0,0,.06,0,0,0,.05,0,0,0,0,0,0,0,.05s0,0,0,0l.05,0a.08.08,0,0,1,0,0s0,0,.05.05,0,0,0,0L29,45s0,0,0,0l.05.05s0,0,0,0,.13.14.19.21l-.88-.74C28.44,44.47,28.45,44.36,28.46,44.26Zm-.13,3.28v-.06l.06.05ZM30,47.28c-.17,0-.32,0-.48.06l-1.18-1v-.72l2,1.64Zm1.7,0-1.48-1.24a3.86,3.86,0,0,0,1.27.46l.18,0c.36.3.73.6,1.1.92A8.86,8.86,0,0,0,31.69,47.31Zm10,10.36h0l-.07-.09-.07-.09,0,0a7.86,7.86,0,0,0-1.31-2.89,3219213785440.81,3219213785440.81,0,0,0-.14-.18L40,54.29l-.07-.09-.07-.09L39.76,54l-.07-.09-.07-.09-.07-.09-.07-.09-.07-.09-.07-.09-.07-.09-.07-.09-.07-.09-.07-.09L39,53l-.07-.09-.07-.08a.71.71,0,0,0-.07-.09l-.07-.09-.07-.09-.07-.09-.07-.09-.07-.09-.07-.09-.07-.09-.07-.09L38.16,52l-.06-.09L38,51.78,38,51.69l-.07-.09-.07-.09-.07-.09-.07-.08a.71.71,0,0,0-.07-.09l-.07-.09-.07-.09L37.4,51l-.07-.09-.07-.09-.07-.09-.06-.09-.07-.09L37,50.44l-.07-.09-.07-.09-.07-.09-.07-.09a.76.76,0,0,1-.11-.14l.26-.17-4-3.37L33.2,46l4.24,3.54a3.61,3.61,0,0,1,.82-.16h.35l-4.77-4a2.94,2.94,0,0,1,.5-.31l5.29,4.4A4.77,4.77,0,0,1,41,50a24.06,24.06,0,0,1,.72,6C41.73,56.61,41.7,57.15,41.65,57.67Z" fill="#1c1b0a"/><path d="M67.73,10.46A26,26,0,0,0,23.05,28.27c0,.24,0,.48,0,.72.66-.08,1.32-.14,2-.19s1.62-.08,2.41-.08a29.26,29.26,0,0,1,13.25,3,27.73,27.73,0,0,1,7.85,5.84A9.59,9.59,0,0,1,50.44,35a10.36,10.36,0,0,1,6.27-3,8.88,8.88,0,0,1,1.15-.07,9.48,9.48,0,0,1,2.88.44h1.38c.27-.35.53-.68.77-1a22.9,22.9,0,0,1,3.17-3.77,11,11,0,0,1,6-2.76l2.66-.35a26,26,0,0,0-7-14ZM46.91,25.22a.73.73,0,0,1-.28.43,1,1,0,0,1-.65.18,1.27,1.27,0,0,1-.54-.11,2,2,0,0,1-.34,1.05.87.87,0,0,1-.7.39,2.79,2.79,0,0,1-.78,1,1.73,1.73,0,0,1-1.13.45.75.75,0,0,1-.58-.24.8.8,0,0,1-.23-.56.57.57,0,0,1,.16-.39.54.54,0,0,1,.92.39.55.55,0,0,1,0,.17.61.61,0,0,0,0,.16c0,.05,0,.07.1.07.48,0,.84-.34,1.07-1a8.47,8.47,0,0,0,.34-2.66V10.8a15,15,0,0,0-1.6-.78,3.48,3.48,0,0,0-1.29-.25,3.76,3.76,0,0,0-1.88.44,3,3,0,0,0-1.23,1.18A3.17,3.17,0,0,0,37.78,13a2.31,2.31,0,0,0,.27,1.09A2.12,2.12,0,0,0,40,15.26a1.48,1.48,0,0,0,1-.34,2,2,0,0,0,.54-.8,2.54,2.54,0,0,0,.16-.86,1.48,1.48,0,0,0,0-.41.75.75,0,0,0-.13-.25.21.21,0,0,0-.15-.1s-.07,0-.12.08a.53.53,0,0,1-.46.27.52.52,0,0,1-.38-.15.51.51,0,0,1-.16-.38.62.62,0,0,1,.16-.43.52.52,0,0,1,.42-.18,1.18,1.18,0,0,1,1.06.61,2.65,2.65,0,0,1,.38,1.4,2.34,2.34,0,0,1-.15.85.74.74,0,0,1,.09.38,1.31,1.31,0,0,1-.32.8,2.7,2.7,0,0,1-2.06,1A3.27,3.27,0,0,1,37,15a3.4,3.4,0,0,1-.43-1.69,3.76,3.76,0,0,1,.63-2.14,4.31,4.31,0,0,1,1.75-1.48,5.71,5.71,0,0,1,2.48-.53,7.63,7.63,0,0,1,1.8.22c.62.16,1.37.38,2.27.68s1.6.5,2.16.64a6.6,6.6,0,0,0,1.61.21,4.84,4.84,0,0,0,1.85-.31,2.57,2.57,0,0,0,1.12-.78.4.4,0,0,0,.08-.22.19.19,0,0,0-.08-.16.55.55,0,0,1-.12-.85.54.54,0,0,1,.39-.17.51.51,0,0,1,.37.17A.49.49,0,0,1,53,9a1.61,1.61,0,0,1-.6,1.19v.06a.67.67,0,0,1,0,.17,1.75,1.75,0,0,1-.67,1.29,4,4,0,0,1-2.61.62,8,8,0,0,1-3-.61V23.79a1.55,1.55,0,0,0,.2.87,1,1,0,0,0,.6.39Zm8.16-10.71a1.07,1.07,0,0,0-.62.53,2.1,2.1,0,0,0-.16.9v6.65a2,2,0,0,0,.18.91,1,1,0,0,0,.6.52v.2H51.8V24a1.11,1.11,0,0,0,.62-.53,2,2,0,0,0,.17-.9V18.9H50.06v3.69a2,2,0,0,0,.19.91,1.18,1.18,0,0,0,.61.52v.2H47.59V24a1.11,1.11,0,0,0,.62-.53,2.27,2.27,0,0,0,.16-.9V15.94a1.85,1.85,0,0,0-.19-.92,1.11,1.11,0,0,0-.59-.51v-.2h3.27v.2a1.07,1.07,0,0,0-.62.51,2,2,0,0,0-.18.92v2.38h2.53V15.94a2,2,0,0,0-.18-.92,1.12,1.12,0,0,0-.61-.51v-.2h3.27Zm6.2,9.71H55.63V24a1.42,1.42,0,0,0,.92-1.43V15.94a1.39,1.39,0,0,0-.92-1.43v-.2H61v1.87h-.17a3.18,3.18,0,0,0-.61-.91,1,1,0,0,0-.7-.29H58.26v3.29h.45a1.33,1.33,0,0,0,1.18-.87h.22v2.42h-.22a1.29,1.29,0,0,0-1.18-.88h-.45v4.6h1.5a1,1,0,0,0,.73-.31,3.27,3.27,0,0,0,.6-1h.18Z" fill="#1c1b0a"/></svg>