<svg xmlns="http://www.w3.org/2000/svg" width="163.24" height="48" viewBox="0 0 163.24 48"><path d="M34.41,39.74h0l0,0Z" fill="#1c1b0a"/><polygon points="34.44 39.78 34.44 39.78 34.44 39.78 34.44 39.78" fill="#1c1b0a"/><path d="M50.75,38.36l0,0,0,0,0,0,0,0s0,0,0,0l0,0s0,0,0,0l0,0,0,0,0,0,0,0,0,0,0,.05,0,0,0,0,0,0,0,0,0,0,0,0,0,.05,0,0,0,0,0,0a2.29,2.29,0,0,0,.43.45,2.71,2.71,0,0,0,1.21.53l-2.47-2.07Z" fill="#1c1b0a"/><path d="M41.78,18.87h0l0,0Z" fill="#1c1b0a"/><path d="M41.71,18.85l0,0h-.05Z" fill="#1c1b0a"/><path d="M41.67,18.81l0,0h-.07Z" fill="#1c1b0a"/><path d="M41.63,18.78l0-.05-.08,0Z" fill="#1c1b0a"/><path d="M148.89,23.47l.06,0,0,0,0,0,0,0,.06,0,0,0,.05,0,0,0,.06,0,0,0,.05,0,0,0,.06,0,0,0,.05,0,0,0,.05,0v0l0,0,0,0,0,0,0,0,.06,0,0,0,.05,0,0,0,.06,0,0,0,.05,0,0,0,.06,0,0,0,.05,0,0,0,.06,0,0,0,0,0,0,0,.06,0,0,0,0,0,0,0,.06,0,0,0,.05,0,0,0,.05,0v0l.05,0,0,0,.05,0,0,0,.06,0,0,0,0,0v0l0,0,0,0h0l1.84,2a8.79,8.79,0,0,1,.86.79,11,11,0,0,0,1.86,1.53l.09,0c-2.24-2.44-3.35-3.65-5.59-6Z" fill="#1c1b0a"/><path d="M1.88,36.44h0Z" fill="#1c1b0a"/><path d="M4.37,38.64l0,0L1.93,36.48h0l.06,0H2l.06,0,0,0,.06,0,0,0,.06,0,0,0,.06,0,0,0,.06,0h0l.07,0,0,0,.06,0h0l.07,0,0,0,.06,0,0,0,.07,0h0l.06,0,0,0,.06,0h0l.06,0,0,0,.06,0,0,0,.06,0h0l.06,0,0,0,.06,0h0l.06,0,0,0,.06,0,0,0,.06,0,0,0,.07,0,0,0,.06,0h0l.07,0,0,0,.06,0,0,0,.07,0,0,0,.06,0,0,0,.06,0h0l.06,0,0,0,.06,0,0,0,.06,0,0,0,.06,0,0,0,.06,0h0l.06,0,0,0Z" fill="#1c1b0a"/><path d="M7.44,46.81a2.21,2.21,0,0,1-.32-.28Z" fill="#1c1b0a"/><path d="M5.16,44a.1.1,0,0,1,0,.05l0,0,0,0,0,0,0,.05,0,0,0,0,0,.05,0,0,0,0,0,0,0,0,0,0,0,0s0,0,0,0l0,.05,0,0,0,0,0,.05,0,0,0,0,0,.05,0,0,0,0,0,0a.1.1,0,0,0,0,.05l0,0,0,0,0,.05,0,0h0c.91.82,1.37,1.22,2.29,2a7.89,7.89,0,0,0,1,.31L5,43.74C5.05,43.82,5.11,43.89,5.16,44Z" fill="#1c1b0a"/><path d="M129.82,32.32h0Z" fill="#1c1b0a"/><path d="M129.79,32.27h0l0,0Z" fill="#1c1b0a"/><path d="M109,32.39l0,0,0,.05,0,0,0,.05,0,0,0,0,0,0c.14.21.29.41.44.6a10.61,10.61,0,0,0,3.44,2.89c-1.65-1.55-2.47-2.31-4.12-3.83Z" fill="#1c1b0a"/><polygon points="163.13 27.06 163.13 27.06 163.13 27.06 163.13 27.06" fill="#1c1b0a"/><path d="M163.05,27v0l-.05,0Z" fill="#1c1b0a"/><path d="M163.09,27h0l0,0Z" fill="#1c1b0a"/><path d="M146.77,27.37h0l0,0Z" fill="#1c1b0a"/><path d="M150.66,26.33h0v0Z" fill="#1c1b0a"/><path d="M86.62,34.54l0,0,0,.05,0,0,0,0a.1.1,0,0,1,0,.05,2.08,2.08,0,0,0,.43.46,2.32,2.32,0,0,0,.7.4l-1.36-1.18,0,0Z" fill="#1c1b0a"/><path d="M82.22,36.9h0l0,0h0l0,.05h0l0,0h0l0,0h0s0,0,0,0h0l0,0h0l0,0h0l0,0h0l0,0h0l0,0h0l0,.05h0l0,0h0l0,0h0l0,.05h0l0,0h0l0,0h0l0,0h0l0,0h0l0,0h0l0,0h0l0,0h0l0,0h0L83,38h0l0,0h0l0,0h0l0,.05h0l0,0h0l0,0h0l0,0h0l0,0h0l0,0h0l0,0h0l.11.16.7.6a2.26,2.26,0,0,0,1,.26c-1.18-1-1.77-1.55-3-2.58Z" fill="#1c1b0a"/><path d="M92.79,10.29l0,0h-.07Z" fill="#1c1b0a"/><path d="M92.83,10.33l0,0h0Z" fill="#1c1b0a"/><path d="M92.74,10.25l.05-.05-.09,0Z" fill="#1c1b0a"/><path d="M92.89,10.34h0Z" fill="#1c1b0a"/><path d="M103.63,26.48h0l0,0Z" fill="#1c1b0a"/><path d="M92.93,10.39h0Z" fill="#1c1b0a"/><path d="M103.66,26.53h0l0,0h0l0,.05h0l0,.05h0l0,.06h0l0,.06h0l0,.06h0l0,.06h0l0,.06h0l0,.06h0l0,.05h0l0,.05h0l0,.05h0l0,.05h0l0,0h0l0,.06h0l0,.06h0l0,.06h0l0,.06h0l0,.06h0l0,.06h0l0,.06h0l0,.05.3-.15-1.08-1Z" fill="#1c1b0a"/><path d="M101.26,18.65l0,0,0,0Z" fill="#1c1b0a"/><path d="M95.54,19.05V16.37a2,2,0,0,0-.41-1.28A1.13,1.13,0,0,0,94,14.68a1.8,1.8,0,0,0-1.17.68,2.32,2.32,0,0,0-.44,1.45v6a8.65,8.65,0,0,1,1.35-2.12A9.92,9.92,0,0,1,95.54,19.05Z" fill="#1c1b0a"/><path d="M64.38,27.57a4.81,4.81,0,0,0-.71,2.56,2.06,2.06,0,0,0,.55,1.59,1.72,1.72,0,0,0,1.46.39,2,2,0,0,0,1.39-.73,2.2,2.2,0,0,0,.45-1.33,1.12,1.12,0,0,0-.34-.89,1,1,0,0,0-.88-.24,1.65,1.65,0,0,0-.82.45,1,1,0,0,1-.23-.68,1.84,1.84,0,0,1,.5-1.21,2.19,2.19,0,0,1,1.37-.7,3.24,3.24,0,0,1,.46,0V23.61c-.16.21-.55.69-1.19,1.4A18.71,18.71,0,0,0,64.38,27.57Z" fill="#1c1b0a"/><path d="M44.06,26.79V24.3a1.77,1.77,0,0,0-.42-1.19,1.18,1.18,0,0,0-1.14-.4,1.85,1.85,0,0,0-1.18.6,2,2,0,0,0-.43,1.34v5.59a7.36,7.36,0,0,1,1.34-1.93A9.08,9.08,0,0,1,44.06,26.79Z" fill="#1c1b0a"/><path d="M163,28.1l.21-.47-1.78-2c0-.05,0-.09.07-.13l.07-.17L163,26.92v0l-.05,0,0,0h-.06l0,0h0l0-.05h0v0l0,0,0,0,0,0v0l-.05,0,0,0-.05,0,0,0-.06,0,0,0h-.05l0-.05h-.06l0-.05h0l0,0-.06,0,0,0,0,0,0,0-.06,0,0,0-.05,0,0,0h-.06l0-.05h-.05l0-.05h-.05v0l-.05,0,0,0-.05,0v0h0v-.25l-.46-.51.13-.31.33.37v-.7c-.36-.41-.73-.81-1.1-1.21h0l0,0h0l0,0,0,0-.05,0h0l0,0h0l0-.05H161l0-.05H161l0,0h0v-.35l1.33,1.47v-.26c0-.16,0-.3,0-.43l-1.34-1.48v-.45l1.36,1.5a4.3,4.3,0,0,1,.07-.62L161,20.46V20l1.53,1.7a1.44,1.44,0,0,1,.2-.39l0,0L161,19.39a1.76,1.76,0,0,1,.06-.35v0l1.83,2,.22-.31,0,0h0l0-.05h0l0-.05h0l0-.05h0l0-.06h0l0-.06h0l0-.06h0v0l-1.6-1.76a1.51,1.51,0,0,1,.1-.17l.07-.1.93,1a6.61,6.61,0,0,1-.07-.78c-.19-.21-.39-.42-.58-.64l.08-.11,0-.06h0l0-.05h0l0-.05h0l0-.05h0l0-.06h0l0-.06h0l0,0h0l0-.05h0l0-.05h0l0-.06h0l0-.06h0l0-.05h0l0-.05h0l1,1.06v-.7c-.46-.52-.89-1-1.3-1.44,0-.13,0-.29,0-.48l1.32,1.47v-.7l-1.33-1.47v-.45l1.33,1.47V15l-1.33-1.47v-.45l1.35,1.49a1.88,1.88,0,0,1,.12-.56l-1.47-1.63V12s0,0,0-.06l1.66,1.85,0,0,.42-.16L161,11.34a.93.93,0,0,1,.11-.32c.64.7,1.27,1.4,2.11,2.35v-.7c-.68-.77-1.2-1.34-1.71-1.91l.29-.12,1.42,1.58V11.8h0v-.05h0v-.06h0v-.06h0v-.06h0v-.06h0v0h0V11.4h0v-.06h0v-.06h0v-.06h0v-.05h0v-.06h0v-.06h0V11h0v-.05h0v0l0,0h0v0l-.73-.82V8.85h0V8.79h0V8.73h0V8.68h0V8.62h0V8.56h0V8.5h0V8.44h0V8.39h0V8.33h0V8.27h0V8.21h0V8.16h0V8.1h0V8h0V8h0V7.93h0V7.87h0V7.81h0V7.75h0v0h0V7.64h0V7.58h0V7.52h0v0h0V7.41h0V7.35h0V7.29h0v0h0V7.18h0V7.12h0V7.06h0V7h0V7h0V6.89h0v0h0V6.78h0V6.72h0V6.66h0v0h0V6.55h0V6.49h0V6.43h0v0h0V6.32h0V6.26h0v0h0V6.15h0V6.09h0V6h0V6h0V5.92c-4.13.09-8.27.29-12.39.57v.34a1.63,1.63,0,0,0-.55-.06l-.32.05a3,3,0,0,0-2.06-.5,3.28,3.28,0,0,0-2.16,1c-.1.09-.19.2-.29.3a1.67,1.67,0,0,0-.23-.23,2.54,2.54,0,0,0-1.94-.58,2.77,2.77,0,0,0-1.34.48,2.41,2.41,0,0,0-.48.41h0v0h0V7.63h0V7.58h0v0h0V7.47h0V7.42h0v0h0V7.31h0V7.26c-3.65.34-5.7.56-9,.94a4,4,0,0,0-.11-.41l-1.11-1.06V6.59c0-.11,0-.2,0-.3l.72.69h0l0,0,0,0,0,0,0-.05,0-.06,0,0,0,0,0-.05,0,0,0,0,0-.06,0-.05,0,0,0,0,0,0,0,0a.1.1,0,0,0,0-.05l0,0L128,6a.1.1,0,0,1,0,0l0-.05,0,0a3.31,3.31,0,0,0-.47-1.41l0,0,0-.05,0,0,0,0,0,0,0-.06,0,0,0,0,0,0,0-.05,0,0,0-.05,0,0,0,0,0-.06,0-.05,0,0,0-.05,0,0,0,0,0-.05,0,0a.1.1,0,0,0,0-.05l0-.06,0-.05,0,0,0-.05,0,0,0,0,0-.05,0,0,0-.05,0,0,0-.06,0,0,0-.05,0,0,0-.05,0,0,0,0,0-.05,0,0,0-.05,0,0a.21.21,0,0,1,0-.06l0,0,0-.05,0,0,0-.05,0-.05a2.59,2.59,0,0,0-.38-.48L123.83,0c0,.9,0,1.34-.08,2.24a1.33,1.33,0,0,1-.48.94,4,4,0,0,1-.63.56h0l0,0,0-.05,0,0,0-.05,0-.06,0-.05,0,0,0-.05,0,0,0,0,0-.05a6.88,6.88,0,0,0-1.68-1.59A5.57,5.57,0,0,0,116.49.8a12.65,12.65,0,0,0-6.38,3.1,19.32,19.32,0,0,0-6.62,14.18,3.44,3.44,0,0,0-1.69,1,3.58,3.58,0,0,0-.26.29l-.67-.6c0-.16,0-.28,0-.37l.31.27v0l0,0v0l0,0v0l0,0v0l0,0v0l0,0v0l0,0v0l0,0v0l0,0v0h0l.11-.55,0,0v0l0,0v0l0,0v0l0,0v0l0,0v0l0,0v0l0,0v0l0,0v0l0,0v0l0,0v0l0,0v0l0,0v0l0,0v0l0,0v0l0,0v0l0,0v0l0,0v0l0,0v0l0,0v0l0,0v0l0,0v0l0,0v0l0,0v0l0,0v0l0,0v0l0,0v0l0,0v0l0,0v0l0,0v0l0,0v0l0,0v0l0,0v0l0,0v0l0,0v0l0,0v0l0,0v0l0,0v0l0,0v0l0,0v0l0,0v0l0,0v0l0,0v0l0,0v0l0,0v0l0,0v0l0,0v0l0,0v0l0,0v0l0,0v0l0,0v0l0,0v0L98.76,15a2.06,2.06,0,0,1-.47-.32,4.33,4.33,0,0,0-.48-.39,7,7,0,0,0-1.62-1.12,3.91,3.91,0,0,0-2.23-.2,5.41,5.41,0,0,0-2.37,1q-.23.16-.45.36l0,0v0l0,0h0l0,0v0l0,0v0l0,0h0l0,0v0l0,0v0l0,0v0l0,0v0l0,0c0-.15.07-.29.11-.43l0-.07-1.38-1.17-.18-.22c0-.1,0-.2,0-.3L91.07,13a2.86,2.86,0,0,1,.23-.43l-1.75-1.48c0-.06,0-.12,0-.17a.66.66,0,0,1,.05-.15l1.85,1.56.32-.36-2-1.67A2.33,2.33,0,0,1,90,10l2,1.7.32-.37-2-1.7.21-.23,2,1.7.32-.36-2-1.7.21-.23,1.62,1.36,0-.05h-.09l.06-.06h-.09l.05-.06-.09,0,.06-.07-.09,0,0-.06h-.09l.06-.06-.09,0,.05-.07-.09,0,.06-.06h-.09l0-.06-.09,0,.06-.07-.09,0,.05-.06h-.09l.06-.06h-.09l.06-.06-.09,0,0-.06h-.09l.06-.06h-.09l0-.06-.09,0,.06-.07-.09,0,0-.06h-.09l.06-.06-.09,0,0-.07-.09,0,.06-.06H92l0-.06-.09,0L92,9.12l-.09,0,0-.06h-.09L91.92,9h-.09l0-.06-.09,0,.06-.06h-.09l.06-.06h-.1l.06-.06-.09,0,.06-.07-.09,0,0-.06h-.09l0,0h0l-.07,0,0-.05h-.08l0,0,0,0h0l0,0,0,0h0v0l0,0h0l0,0,.34-.37-.09,0,0-.07-.09,0L91.67,8h-.09l0-.06-.09,0,.06-.07-.09,0,0-.06h-.09l.06-.06h-.09l0-.06-.09,0,.06-.06h-.09l.06-.06h-.1l.06-.06-.09,0,.06-.06h-.09l0-.06h-.09l.06-.06-.09,0,0-.06h-.09l.06-.06h-.09l.05-.06-.09,0,.06-.06h-.09l0-.06H91l.06-.06-.09,0L91,7.17l-.09,0L91,7.13h-.09l0-.06-.09,0L90.94,7l-.09,0L90.9,7h-.09l.06-.06-.09,0,.06-.07-.1,0,.06-.06h-.09l.06-.06-.09,0,0-.07-.09,0,.06-.06h-.09l0-.06-.09,0,.06-.06h-.09l0-.06H90.5l.06-.06-.09,0,0-.06h-.09l.06-.06H90.4l0-.06-.09,0,.06-.06h-.09l0-.06h-.09l.06-.06-.09,0,.06-.06h-.1l.06-.06-.09,0,.06-.07-.09,0,0-.06h-.09L90.18,6l-.09,0,0-.07-.09,0,.06-.06H90l0-.06-.09,0L90,5.82l-.09,0,0-.06h-.09L90,5.73l-2.24.4a3.28,3.28,0,0,0-1.82,1,10.59,10.59,0,0,0-1.28,1.71c-.17.27-.37.56-.59.85a5.82,5.82,0,0,1-.52.61.83.83,0,0,1-.31.16h0l-.83.05-.14.85a1.3,1.3,0,0,0,.25,1.07l0,0,0,.05,0,0,0,.05,0,0s0,0,0,0l0,.05,0,0,0,.05,0,0s0,0,0,0l0,0s0,0,0,0l0,0,0,.05,0,0,0,.05,0,.05,0,0,0,.05,0,0V14.9a2.62,2.62,0,0,0-.55.29,1.65,1.65,0,0,0-.8,1.51l0,.52L81.53,17a7.19,7.19,0,0,0-1.74-1.14,4.12,4.12,0,0,0-2.31-.19,5.43,5.43,0,0,0-2.12.84,3,3,0,0,0-1.44-.07,3.22,3.22,0,0,0-1.36.52A2.42,2.42,0,0,0,71.67,18l-.15.35-1.09.17a2.3,2.3,0,0,1-.69,0c-.33-.05-.77-.15-1.31-.29-.73-.19-1.41-.32-2-.41a6.05,6.05,0,0,0-1.9,0,5.79,5.79,0,0,0-2.18.79h0l0,0v0c0-.09,0-.18.06-.28l-.75-.6,0,0h0l0,0v0l0,0h0l0,0v0l0,0h0l0,0v0l0,0h0l0,0v0l0,0h0l0,0v0l0,0h0l0,0v0l-.33-.4v-.05c.48.38,1,.78,1.59,1.29a4.59,4.59,0,0,1,.21-.44L61,16.12a3,3,0,0,1,.09-.32l1.78,1.45.07-.08.25-.27-1.92-1.56a1.73,1.73,0,0,1,.15-.27l2,1.6.32-.34c-.81-.67-1.39-1.13-2-1.63l.21-.22,2,1.62.32-.34-2-1.63.21-.22,2,1.62.11-.12-.09,0,.06-.06h-.09l0-.06-.09,0,.06-.06h-.09l0-.06-.09,0,.06-.06H64.3l0-.06-.09,0,.06-.06h-.09l0-.06-.09,0,.06-.06h-.09l0-.06-.09,0,.06-.06h-.09l0-.06-.09,0,.06-.06H64l.06-.06-.1,0,.06-.06H64l.06-.06-.09,0,0-.06h-.09l.06-.06-.09,0,0-.06h-.09l.06-.06-.09,0,0-.06h-.09l.06-.06-.09,0,0-.06h-.09l.06-.05h0l-.08,0,0,0H63.6l0,0,0,0h0l0,0,0,0h0l0,0h0l-.75-.6.47-.51h-.09L63.2,13l-.09,0,0-.06h-.09l.06-.06-.09,0,.06-.06H63l.06-.06-.09,0,.06-.06-.09,0,.05-.06H62.9l.06-.06-.09,0,.05-.06h-.09l.06-.06-.09,0,.05-.06h-.09l.06-.06-.09,0,.05-.06h-.09l.06-.06-.09,0,.05-.06h-.09l.06-.06-.09,0,0-.06h-.09l.06-.06-.09,0,0-.06h-.09l.06-.06-.09,0,.06-.06h-.09l0-.06-.09,0,.06-.06h-.09l0-.06-.09,0,.06-.06h-.09l0,0h-.09l.06-.06-.09,0,0-.06h-.09l.06-.06-.09,0,0-.06H62.1l.06-.06-.09,0,0-.06H62l.06-.06-.09,0,0-.06H62l.06-.06-.09,0,.06-.06H61.9l.05-.06-.09,0,.06-.06h-.09l.05-.06-.09,0,.06-.06h-.09l.05-.06-.09,0,.06-.06-.09,0,.05-.06h-.09l.06-.06-.09,0,.05-.06h-.09l.06-.06-.09,0L61.6,11h-.09l.06-.06-.09,0,.05-.06h-.09l.06-.06-.09,0,.05-.06-2.23.38a3.25,3.25,0,0,0-1.82.9,10.28,10.28,0,0,0-1.28,1.63l0,0h0l.06-.05H56l0-.06-.09,0,.06-.06H56l0-.06-.09,0,.06-.06h-.09l0-.06-.09,0,.06-.06h-.09l0-.06-.09,0,.06-.06h-.09l0-.06-.09,0,.06-.06-.09,0,0-.06h-.09l.06-.06-.09,0,.06-.06h-.09l.05-.06-.09,0L55.6,13h-.09l.05-.06-.09,0,.06-.06h-.09l.05-.06-.09,0,.06-.06-.09,0,.05-.06h-.09l.06-.06-.09,0,.05-.06h-.09l.06-.06-.09,0,.05-.06h-.09l.06-.06-.09,0,.05-.06h-.09l.06,0h-.09l0-.06-.09,0,.06-.06H55l.06-.06-.09,0,0-.06H55l.06-.06-.09,0,0-.06h-.09l.06-.06-.09,0,0-.06h-.09l.06,0h-.09l0-.06-.09,0L54.8,12h-.09l0-.06-.09,0,.06-.06-2.24.36a3.26,3.26,0,0,0-1.82.88,10.3,10.3,0,0,0-1.28,1.6c-.17.26-.37.53-.58.8a6.18,6.18,0,0,1-.53.57,1,1,0,0,1-.31.15h0l-.83,0-.14.81a1.21,1.21,0,0,0,.25,1l0,0,0,.05,0,0,0,.05,0,0,0,0,0,.05,0,0,0,.05,0,0,0,.05,0,0,0,.05,0,0s0,0,0,0l0,.05s0,0,0,0l0,.05s0,0,0,0l0,.05s0,0,0,0v1.47a2.4,2.4,0,0,0-.56.26,1.51,1.51,0,0,0-.8,1.41l0,.39a2.93,2.93,0,0,0-.27-.21,7.05,7.05,0,0,0-1.63-1.05,4.07,4.07,0,0,0-2.23-.23,5.49,5.49,0,0,0-2.36.84c-.22.15-.45.32-.68.5a1.27,1.27,0,0,1,0-.2l-1.36-1.11v-.38l1.42,1.16a4.34,4.34,0,0,1,.14-.48h0l-1.55-1.26c0-.11,0-.23,0-.34l1.62,1.31a3,3,0,0,1,.23-.4l-1.74-1.4a2,2,0,0,1,.07-.23l0-.07,1.83,1.48.32-.33-2-1.58.17-.25,2,1.62.32-.33L39,18l.21-.21,2,1.62.32-.32-2-1.63.21-.21,1.83,1.48.06,0h-.09l.05-.05h-.09l.06-.06h-.09l.05-.05h-.09l.06-.06h-.09l.05-.05h-.09l.06-.06-.09,0,0-.06H41.3l.06-.05h-.09l0-.06h-.09l.06-.05H41.2l.06-.06-.09,0,0-.06h-.09l.06-.06-.09,0,0-.06h-.09l.06,0H41l0-.06H41l.06,0H41l0-.06-.09,0,.06-.06h-.09l0-.06-.09,0,.06-.06h-.09l0-.05h-.09l.06-.06h-.09l0-.05h-.09l.06-.06-.09,0,.06-.06h-.1l.06-.05h-.09l.06-.06h-.09l.05-.05h-.09l.06-.06h-.09l0,0h-.08l0,0h-.07l0,0,0,0h0l0,0,0,0h0l0,0h0l-.27-.21.38-.39h-.09l0,0h-.09l.06-.06-.09,0,.06-.06h-.1l.06-.06-.09,0,.06-.06h-.09l.05-.05h-.09l.06-.06h-.09l.05-.05h-.09l.06-.06-.09,0,.05-.06H40l.06-.05H40L40,16h-.09L40,16h-.09l.05-.06-.09,0,.06-.06h-.09l0-.05H39.8l.06-.06h-.09l0-.05h-.09l.06-.06-.09,0,.06-.06h-.09l0-.06-.09,0,.06-.06H39.6l0-.05h-.09l.06-.06h-.09l0-.05h-.09l.06-.06-.09,0,0-.06h-.09l.06,0h-.09l0-.06h-.09l.06,0h-.09l0-.06-.09,0,.06-.06h-.09l0-.05h-.09l.06-.06h-.09l.06-.05h-.1L39.2,15l-.09,0,.06-.06h-.09l.05,0H39l.06-.06H39l.05-.05H39l.06-.06-.09,0L39,14.7H38.9l.06-.05h-.09l.05-.06h-.09l.06,0H38.8l.05-.06-.09,0,.06-.06h-.09l.05-.06-.09,0,.06-.06h-.09l.05-.05h-.09l.06-.06c-.9.13-1.34.19-2.24.3a3.29,3.29,0,0,0-1.82.82A9.71,9.71,0,0,0,33.34,17c-.17.24-.36.5-.58.76a5.48,5.48,0,0,1-.53.54.75.75,0,0,1-.31.14H31l-.13.73h0l0,0,0-.05a1.76,1.76,0,0,0-.33-.34,2.34,2.34,0,0,0-1.81-.48,3,3,0,0,0-1.82.86,2.47,2.47,0,0,0-.77,1.76,2,2,0,0,0,.45,1.29l0,.05,0,0,0,.05,0,0,0,.05s0,0,0,0l0,.05,0,0,0,0,0,0,0,0,0,0,0,0,0,0,0,0,0,0,0,0,0,0,0,.05,0,0,0,.05,0,0,0,.05v0l-2,.19v.21L25,23.11s0,0,0,0l0,0,0-.05,0,0,0-.05,0,0,0-.05,0,0,0-.05,0,0,0,0,0-.05,0,0,0-.05,0,0,0-.05,0,0,0-.05,0,0s0,0,0,0l0-.05s0,0,0,0l0-.05,0,0,0-.05,0,0,0-.05,0,0,0,0,0,0,0,0,0,0s0,0,0,0l0,0,0,0,0,0,0-.05,0,0,0-.05s0,0,0,0l0-.05s0,0,0,0l0-.05s0,0,0,0l0,0,0-.05,0,0,0-.05,0,0,0-.05a11.41,11.41,0,0,0-3.82-3,12.71,12.71,0,0,0-6.69-1.25,15.16,15.16,0,0,0-6,1.57,10.6,10.6,0,0,0-4.07,3.49,8.42,8.42,0,0,0-1.44,4.74,9.22,9.22,0,0,0,.21,2.07,13.83,13.83,0,0,1,.19,2.09c0,1.66-.42,2-.51,2.06L0,33.37l.06,0H0l.07,0,0,0,.06,0,0,0,.07,0,0,0,.06,0,0,0,.07,0h0l.06,0,0,0,.06,0,0,0,.06,0,0,0,.06,0,0,0,.06,0h0l.06,0,0,0,.06,0h0l.06,0,0,0,.06,0,0,0,.06,0,0,0,.07,0,0,0,.06,0h0l.07,0,0,0,.06,0,0,0,.07,0,0,0,.06,0,0,0,.06,0h0l.06,0,0,0,.06,0h0l.06,0,0,0,.06,0,0,0,.06,0H1l.06,0,0,0,.06,0H1l.06,0,0,0,.06,0,0,0,.06,0,0,0,.07,0,0,0,.06,0h0l.07,0,0,0,.06,0h0l.07,0,0,0,.06,0,0,0,.06,0h0l.06,0,0,0,.06,0h0l.06,0,0,0,.06,0,0,0,.06,0,0,0,.06,0,0,0,0,0-.24.16,3.35,3A2,2,0,0,0,4,39a1.52,1.52,0,0,0-.6,1.21,2.19,2.19,0,0,0,.49,1.4l0,0,0,.05,0,0a.1.1,0,0,0,0,0l0,.05,0,0,0,0,0,.05,0,0,0,0,0,0,0,.05a.1.1,0,0,1,0,0l0,0,0,.05,0,0,0,0,0,.05,0,0,0,0s0,0,0,0l0,.05,0,0,0,0v0a2.17,2.17,0,0,0,.07.42l.74.65v0l0,.05,0,0a3.2,3.2,0,0,0,1,.81L10,47.82c.24,0,.49.08.76.1l-3-2.69a4.45,4.45,0,0,0,.58.15c.86.77,1.76,1.56,2.92,2.58.21,0,.44,0,.67,0l-2.8-2.47.47.06L12.3,48h.63l-2.69-2.37.43,0L13.32,48c.21,0,.41,0,.61,0l-2.62-2.3h.39c.78.68,1.62,1.41,2.6,2.28l.59-.06L12.31,45.6l.39,0,2.55,2.23.55-.08-2.52-2.21.37,0,2.5,2.18.53-.1-2.47-2.16.36,0L17,47.5l.51-.12L15.1,45.26l.34-.07,2.41,2.1.49-.13L16,45.08l.33-.08,2.36,2.06.48-.16-2.34-2,.31-.1,2.32,2,.45-.17-2.3-2,.31-.1,2.28,2,.43-.19-2.26-2,.29-.11,2.25,1.94.25-.12.17-.09-2.23-1.92.28-.13,2.21,1.91.41-.22-2.19-1.89h0l.23-.13,2.18,1.88.38-.24-2.16-1.85.27-.15,2.13,1.84c.13-.08.25-.17.37-.26L21.08,43l.24-.15,2.11,1.8.35-.26L21.7,42.58l.23-.17L24,44.18l.33-.28-2-1.75.22-.18,2,1.74.31-.31-2-1.72c.07-.06.15-.11.22-.18l2,1.71.3-.32-2-1.69.2-.19,2,1.67.28-.33L23.88,40.7l.19-.21L26,42.13l.27-.35-1.9-1.62.18-.22,1.89,1.61.24-.37L24.81,39.6a1.84,1.84,0,0,1,.17-.22L26.83,41l.1-.15a.41.41,0,0,1,.05-.09h0v0h0v0h0v.05h0v0h0v0h0v0h0V41h0v0h0v0h0v0h0v.05h0v0h0v0h0v.05h0v0h0v0h0v0h0v.05h0v0h0v0h0v0h0v.05h0v0h0v0l0,0h0l.92.79.62-.05L25.23,39l.15-.24,1.69,1.43h0l0,0v0h0l2.65,2.25.63-.05-2.66-2.25.4,0,2.66,2.25.63,0-2.66-2.25.4,0,2.66,2.24.62,0-2.65-2.24.4,0,2.66,2.24.62-.05L30.84,40l.41,0L33.9,42.2l.63-.06L31.87,39.9l.4,0,2.66,2.24h.17v-.43l-2.2-1.85.4,0,1.8,1.52v-.59L33.77,39.6v-.38l.6.5v0h0v0h0v0h0v0h0v0h0v0h0v0h0v0h0v0h0v0h0v0h0v0h0V39l0,0,0,0,0,0,0,.05,0,0,0,0,0,.05,0,0,0,0,0,0,0,.05,0,0,0,0,0,0,0,.05,0,0,0,0,0,0,0,.05,0,0,0,0,0,.05,0,0,0,0,0,0,0,.05v0c.83.69,1.25,1,2.07,1.74a3.69,3.69,0,0,0,.83.12l-4-3.36v-.36h0v0h0v0l.46.38a2.08,2.08,0,0,0,.44.45,3.11,3.11,0,0,0,.38.25L38.21,42h.11a2.67,2.67,0,0,0,.48-.08c-.91-.76-1.82-1.52-2.72-2.29a3.64,3.64,0,0,0,.48,0l2.55,2.15a4.54,4.54,0,0,0,.45-.21l-2.37-2,.35-.07c.76.63,1.52,1.26,2.27,1.9a3,3,0,0,0,.35-.27h0L38,39.34a1.82,1.82,0,0,0,.27-.15l2.09,1.75a3.07,3.07,0,0,0,.28-.35l-2-1.66.16-.13.07-.06,1.9,1.59a2.45,2.45,0,0,0,.17-.45L39.2,38.41c.06-.08.12-.15.17-.23L42.75,41a2.06,2.06,0,0,0,.26.12,3.77,3.77,0,0,0,.88.25l-4.32-3.61c0-.1.07-.19.09-.29,1.58,1.32,3.17,2.63,4.75,4h.71l-3-2.54a3.77,3.77,0,0,0,.62.13l2.85,2.39h.14l.48-.07-2.71-2.26h.44c.87.73,1.76,1.46,2.63,2.2a4.92,4.92,0,0,0,.55-.14L44.53,39l.38,0L47.4,41a3.25,3.25,0,0,0,.43-.18h.06c-.8-.68-1.61-1.34-2.41-2l.33-.1,2.48,2.06.63-.07-2.61-2.17.19-.08.15,0,2.67,2.23.62-.07-2.67-2.22.4,0,2.67,2.22.58-.06v0L48.3,38.27l.4-.05,2.22,1.85v-.42c0-.06,0-.13,0-.19l-1.58-1.31.27,0V38c.39.34.79.66,1.19,1a2,2,0,0,0-.21-.38l0,0v0l0,0v0l0,0,0,0,0,0h0a2.56,2.56,0,0,0,.11-.24l-.95-.79v-.11a1.36,1.36,0,0,0,0-.29l4.15,3.46a3.62,3.62,0,0,0,.65,0h0l-3.06-2.56A2.91,2.91,0,0,0,52,38l2.77,2.31a3.39,3.39,0,0,0,.51-.17c-.84-.71-1.69-1.4-2.54-2.11L53,38l.11,0,2.41,2a3,3,0,0,0,.4-.26L53.7,37.87l.32-.11,2.18,1.82,0,0a2.83,2.83,0,0,0,.3-.3l-2.09-1.74a2.27,2.27,0,0,0,.25-.18l2,1.68c.08-.13.16-.26.23-.4L55,37a2,2,0,0,0,.2-.22l1.81,1.5a2.71,2.71,0,0,0,.11-.51L55.5,36.42a2.29,2.29,0,0,0,.14-.27l1.54,1.28v-.29a.05.05,0,0,0,0,0s0,0,0,0l0,.05,0,0,0,0,0,0,0,0,0,0,0,0,0,.05,0,0,0,0,0,0,0,0,0,0,0,0,0,0,0,0,1.87,1.58a3.37,3.37,0,0,0,.86.11l-4.74-3.94a2,2,0,0,0,.06-.34l1.36,1.13a1.54,1.54,0,0,0,.19.17l.1.08L61,39.61h.15a3.26,3.26,0,0,0,.45-.09l-2.76-2.3a4.43,4.43,0,0,0,.52,0l2.56,2.16a3.88,3.88,0,0,0,.46-.22l-2.38-2,.36-.08L62.6,39a4.68,4.68,0,0,0,.37-.29L60.8,36.88l.27-.16,2.11,1.78a3.37,3.37,0,0,0,.29-.37l-2-1.69.18-.14.06,0,1.92,1.61a3.45,3.45,0,0,0,.14-.34,3.13,3.13,0,0,0,.66.53,3.3,3.3,0,0,0,.41.23L62,35.9a1.88,1.88,0,0,0,.16-.23l3.48,2.91a5.12,5.12,0,0,0,.9.15Q64.48,37,62.39,35.24a.5.5,0,0,1,0-.13,3.53,3.53,0,0,0,.66.54,3.88,3.88,0,0,0,.61.31L67,38.76l.7,0-2.93-2.46.53,0,2.81,2.37h0l.57-.11-2.68-2.25.43,0,2.61,2.2a4.68,4.68,0,0,0,.53-.17l-2.51-2.12.37-.07L70,38.2l.46-.22c-.78-.67-1.57-1.33-2.36-2l.33-.11,2.31,1.94a1,1,0,0,1,.17-.1,2.34,2.34,0,0,0,.72.24l-2.72-2.29.28-.15,3,2.48.48,0,.17,0-3-2.57a2.26,2.26,0,0,0,.68.18c.91.77,1.82,1.53,2.72,2.31a3.58,3.58,0,0,0,.49-.2L71.1,35.54h.14l.26-.05,2.36,2,.08,0,.16-.13h0v.06h0v0h0v.05h0v.06h0v0l.34,0L72,35.32l.3-.14L75,37.44l.62-.08L73,35.1l.41-.06L76,37.3l.63-.08L74,35l.4-.06,2.68,2.26.63-.08L75,34.81l.4-.05L78.09,37l.62-.08L76,34.67l.4-.05c.89.75,1.79,1.5,2.68,2.27l.62-.09-2.68-2.27.4-.06c.9.76,1.79,1.51,2.68,2.28l.63-.09-2.68-2.28.4-.05c.81.69,1.63,1.37,2.43,2.06v-.62l-1.8-1.53.42-.06,1.38,1.19v-.29h0v0h0v0h0v0h0v0h0v0h0v0h0v0h0v0h0v0h0v0h0v0h0v0h0v0h0v0h0v0h0v0h0v0h0v0h0v0h0v0h0l-.6-.51v-.4l.22.18v-.47h0l0,0,0,.05,0,0,0,0,0,.05,0,0,0,0,0,0a1.71,1.71,0,0,0,.13.23l0,0h0l0,0h0l0,.05h0l0,0h0l0,0h0l0,0h0l0,0h0l0,0h0l0,0h0l0,0h0l0,0h0l0,0h0l0,0h0l0,0h0l0,.05h0l0,0h0l0,0h0l0,.05h0s0,0,0,0h0l0,0h0l0,.05h0l0,0h0l0,0h0l0,0h0l0,.05h0l0,0h0l0,0h0l0,.05h0l0,0h0l0,0h0l0,.05h0l0,0h0l0,0h0l0,0h0l0,0h0l0,0-.34-.29a3.67,3.67,0,0,0,.35.92c1.65,1.43,2.47,2.14,4.12,3.59h0a2.46,2.46,0,0,0,.53-.15l-2.71-2.36A2.11,2.11,0,0,0,84,37l2.49,2.18a2.19,2.19,0,0,0,.39-.29l-2.28-2a1.61,1.61,0,0,0,.33-.12L87,38.61a2.06,2.06,0,0,0,.25-.4l-2-1.71.23-.2,1.86,1.61a2.05,2.05,0,0,0,.1-.55l-1.66-1.43a2.64,2.64,0,0,0,.15-.29l1.49,1.3a1.68,1.68,0,0,0-.29-.7l0-.05,0,0,0,0,0-.05,0,0,0,0,0,0,0,0,0,0,0-.05,0,0-.67-.58a2.56,2.56,0,0,0,0-.39,1.71,1.71,0,0,0-.32-1l0,0,0-.05,0,0,0,0,0-.05,0,0,0,0,0-.05,0,0,0,0,0,0,0,0,0,0,0-.05,0,0,0,0,0,0,.1.09v-.18h0l0,.05,0,0,0,.05,0,0,0,0,0,0,0,.05,0,0,0,0,0,.05h0l2.81,2.45a3.11,3.11,0,0,0,.75,0l-5.24-4.52V30.9l1,.86h0s0,0,0,0l0,.05,0,.05,0,.05,0,0,0,0,0,.05,0,0,0,0,0,.05,0,0a2.69,2.69,0,0,0,.43.46,2.55,2.55,0,0,0,.86.46l3,2.57a2.64,2.64,0,0,0,.55-.15l-2.64-2.29a2.26,2.26,0,0,0,.45,0l2.51,2.18a3.28,3.28,0,0,0,.43-.26l-2.34-2L89,33.1l2.25,1.95c.07-.06.14-.11.21-.18s.09-.1.14-.15l-2.14-1.85.27-.17c.69.6,1.39,1.19,2.07,1.8a2.57,2.57,0,0,0,.26-.41l-1.95-1.7s0,0,0,0l.19-.2,1.87,1.62a2.73,2.73,0,0,0,.14-.51l-1.72-1.5c0-.09.11-.17.15-.26,1,.91,2.1,1.82,3.14,2.74a6.45,6.45,0,0,0,.58.3,3.27,3.27,0,0,0,.73.22L91,31.05c0-.11.05-.23.07-.34l4.74,4.15h.72L93.34,32.1a3.55,3.55,0,0,0,.66.17l2.91,2.56.25,0,.38-.07L94.8,32.33a3.45,3.45,0,0,0,.45,0c.89.78,1.78,1.56,2.66,2.35a4.41,4.41,0,0,0,.55-.15L95.9,32.26l.39-.07,2.51,2.22.48-.21-2.42-2.14.34-.1,2.47,2.18.62-.09-2.58-2.29.28-.13h0L100.69,34l.63-.08-2.68-2.37.4-.06,2.68,2.38.63-.08-2.68-2.38.4-.05,2.34,2.07v-.56s0,0,0-.09l-1.7-1.51.38-.05v0c.42.37.84.73,1.25,1.11a1.71,1.71,0,0,0-.27-.58s0,0,0,0v0s0,0,0,0l0,0,0,0v0l0,0h0c0-.06,0-.12.07-.17-.3-.28-.61-.55-.92-.82v-.24c0-.06,0-.12,0-.18l1.06.93c.06-.16.11-.33.16-.5l-1.53-1.35,0,0s0,0,0,0v0l0,0v0l0,0v0l0,0h0a2.44,2.44,0,0,0,.1-.24l1.67,1.47a5,5,0,0,0,.09-.56c-.52-.47-1-.93-1.58-1.39,0-.11.07-.22.1-.33l1.5,1.32c0-.07,0-.14,0-.22s0-.29,0-.43l-1.38-1.22c0-.12,0-.25,0-.37l1.29,1.14a4.69,4.69,0,0,0-.2-.82l-1.07-.95c0-.15,0-.3,0-.44l.76.67h0l0,0h0l0,0h0l0,0h0l0,0h0l0,0h0l0,0h0l0,0h0l0,0h0l0,0h0l0,0h0l0,0h0l0,0h0l0,0h0l0,0h0l0,0h0l0,0h0l0,0h0l0,0h0l0,0h0l0,0h0l0,0h0l0,0h0l0,0h0l0,0a4,4,0,0,0-.22-.83l.1.08.42-.13.12,0-1.57-1.4h0l0,0h0l0,0h0l0,0h0l0,0h0l0,0h0l0,0h0l0,0h0l0,0h0l0,0h0l0,0h0l0,0h0s0,0,0,0h0l0,0h0l0,0h0l0,0h0l0,0h0l0,0h0v0l.07,0,2.47,2.19.3-.08v-.3c-.83-.74-1.56-1.39-2.25-2l.14-.05.22-.05,1.83,1.62v0h0l0,.05h0l0,.06h0l0,.05h0l0,0h0l0,.05h0l0,.06h0l0,.06h0l0,.06h0l0,.06h0l0,.06h0l0,.05h0l0,0h0l0,.05h0l0,.05h0l0,.06h0l0,.06h0l0,.06h0l0,.06h0l0,0h0l0,.05h0l0,.05h0l0,.05h0l0,.05-.56-.5s0,0,0,.06c.12.32.19.48.31.8h0l0,.05h0l0,.05h0l0,.05h0l0,.06h0v0l0,0h0l2.18,2,.22-.11a1.07,1.07,0,0,1,.27-.09L103.18,25l.28-.14c.72.64,1.43,1.3,2.15,1.95.17.29.36.58.55.85l0,0h0l-.15-.14c.16.38.32.75.5,1.11s.61.55.91.83l0,0,0,.05,0,0,0,.05,0,.05,0,.05,0,.05,0,0,0,.05,0,.05,0,.05,0,.05,0,0c.14.19.28.39.43.57L107,29.53c.15.25.31.49.48.73l0,0,0,.05,0,0,0,.05,0,.05,0,.05,0,.05,0,0,0,.05,0,.05,0,.05,0,.05,0,0,0,.05,0,.05,0,.05,0,.05,0,0,0,.05,0,0c2.31,2.13,3.47,3.2,5.79,5.38A8.09,8.09,0,0,0,115,37c-1.66-1.57-2.9-2.73-4.15-3.89a10.1,10.1,0,0,0,1.11.62q1.83,1.7,3.64,3.42c.28,0,.56.1.84.13l-3.29-3.08c.21.07.41.13.62.18l3.17,3q.36,0,.72,0c-1-.94-2-1.86-3-2.79l.52.07c1,.9,1.92,1.8,2.87,2.71l.66,0L116,34.68h.44l2.73,2.58.6-.08-2.66-2.52.41,0,2.62,2.48.56-.12-2.57-2.44c.14,0,.28,0,.41-.06l2.5,2.4.51-.17-2.45-2.35.36-.08c.72.69,1.45,1.38,2.4,2.31a4,4,0,0,0,.47-.21L120,34.13l.33-.11,2.31,2.24.43-.25c-.9-.88-1.59-1.54-2.27-2.19l.31-.14,2.24,2.17.38-.29-2.19-2.12.28-.16L124,35.37l.1-.08a3,3,0,0,0,.79.75,3.37,3.37,0,0,0,.87.39c-1.43-1.4-2.43-2.38-3.52-3.43l.25-.18c1.19,1.14,2.27,2.2,3.83,3.73a4.13,4.13,0,0,0,.71,0l-3.2-3.1a3.83,3.83,0,0,0,.73.29l2.85,2.76a3.1,3.1,0,0,0,.52-.15c-.85-.85-1.7-1.68-2.56-2.51h.43c.81.79,1.62,1.58,2.42,2.38a3.62,3.62,0,0,0,.41-.27l-2.27-2.23a2.08,2.08,0,0,0,.32-.12l2.19,2.16.09-.06.25-.27-2.11-2.06a2.27,2.27,0,0,0,.25-.18l2,2a3,3,0,0,0,.24-.43l-1.92-1.88a2.29,2.29,0,0,0,.21-.23l1.82,1.8a2.53,2.53,0,0,0,.12-.56c-.55-.55-1.12-1.09-1.67-1.63.05-.1.1-.2.14-.3l1.56,1.53v-.67l-1.4-1.38c0-.12,0-.24.06-.37l1.2,1.19v-.05h0v-.06h0v-.06h0v-.06h0V32h0V32h0V31.9h0v-.06h0v-.06h0v-.06h0v-.06h0v-.06h0v-.06h0v-.06h0v-.06h0v-.06h0v-.06h0v-.06h0v-.06h0v-.06h0v-.06h0v-.06h0v-.06h0V31h0V31h0V30.9h0v-.06h0v-.06h0v-.06h0v-.06h0v-.06h0v-.06h0v-.06h0v-.06h0v-.05h0V29.7h0v-.06h0v-.06h0v-.06h0v-.06h0v-.06h0v-.06h0v-.06h0v-.06h0v-.06h0v-.06h0V29l-.32-.31h0l0,0v0h0v-.05h0v-.06h0v-.06h0v-.06h0v-.06h0v-.06h0v-.06h0v-.06h0v-.06h0v-.06h0V28h0V28h0v-.06h0v-.06h0v-.06h0v-.06h0v-.05h0v-.06h0V27.6h0v-.06h0V27.5h0v-.05l1.12,1.08v-.67l-1.32-1.27v-.43l1.32,1.27V27l0,0,0,0,.05,0,0,0,.06,0,0,0,0,0,0,0,.06,0,0,0,0,0,0,0,0,0v0l.05,0,0,0,.05,0,0,0,.06,0,0,0,.05,0,0,0,.06,0,0,0,0,0,0,0,1,.56a2.34,2.34,0,0,1,.43.31l-3.15-3v-.43q2.64,2.55,5.26,5.14l.3.18a3.81,3.81,0,0,0,.88.32q-2.82-2.79-5.66-5.54l.61.35a5.68,5.68,0,0,1,.91.71l4.66,4.57a4,4,0,0,0,.7,0l-3.1-3a3.18,3.18,0,0,0,.64.19l2.86,2.83a5.4,5.4,0,0,0,.58-.09c-.88-.89-1.78-1.76-2.67-2.64h.44c.86.85,1.72,1.7,2.57,2.56a4.09,4.09,0,0,0,.49-.18c-.8-.82-1.62-1.63-2.44-2.44l.36-.08,2.38,2.39c.13-.07.26-.13.39-.21l.14.07c-.8-.81-1.6-1.6-2.4-2.4l.31-.12,2.72,2.72a3.26,3.26,0,0,0,.71.05l-3-3,.18-.1a1,1,0,0,0,.28.13c1,1,2,2,2.91,2.93a2.94,2.94,0,0,0,.53-.14c-.86-.88-1.73-1.74-2.59-2.61a2.94,2.94,0,0,0,.42,0h0c.82.82,1.65,1.64,2.46,2.48l.21-.12.2-.15-2.3-2.31a1.73,1.73,0,0,0,.32-.11c.88.89,1.76,1.77,2.63,2.66l.62,0c-.93-.95-1.87-1.9-2.81-2.84h0l.23-.18,3,3,.62,0c-.89-.92-1.78-1.83-2.68-2.74l.4,0c.9.91,1.79,1.82,2.68,2.74l.63,0-2.68-2.75.4,0,2.68,2.75.63,0-2.69-2.76.4,0,2.69,2.76.62,0c-.89-.93-1.78-1.86-2.68-2.78l.4,0,2.69,2.78.62,0L143.85,27l.4,0,2.68,2.79h.26v-.41L144.87,27l.41,0,1.91,2v-.69l-1.33-1.37v-.45l.87.91v0h0v0h0V27.2h0v0h0v-.05h0v0h0V27h0v0l0,0v0h0v-.05h0v0h0V26.7h0v0h0v-.05h0v0h0v-.05h0v0h0v-.05h0v0h0V26l-.22-.24V25.3l.22.23v-.68l-1.26-1.3v0h0v0h0V23l1.33,1.37v-.68c-.44-.46-.88-.92-1.33-1.37v-.44l1.54,1.58a2.5,2.5,0,0,0,.41-.25c-.64-.68-1.29-1.35-1.95-2v-.44c.73.75,1.46,1.5,2.18,2.26a2.55,2.55,0,0,0,.29-.38l-2-2.12.21-.14,0,0,1.94,2a2.47,2.47,0,0,0,.1-.29l.05-.23c-.58-.62-1.18-1.22-1.77-1.83a2.4,2.4,0,0,0,.18-.26l1.94,2a2.33,2.33,0,0,0,.46,0h0l0,0,0,0,0,0,.06,0,0,0,0,0,0,0,.06,0,0,0,.05,0,0,0,.06,0,0,0,.05,0,0,0,.06,0,0,0,0,0,0,0,.06,0,0,0,0,0,0,0,.06,0,0,0,.05,0,0,0,.05,0,0,0,.06,0,0,0,.05,0,0,0,.06,0,0,0,.05,0,0,0,.06,0,0,0,0,0,0,0,.06,0,0,0,.05,0,0,0,.06,0,0,0,.05,0,0,0,.06,0,0,0,.05,0,0,0,.06,0,0,0,0,0,0,0,0,0v0l.28.19c2.15,2.27,3.36,3.58,5.63,6.08a4.36,4.36,0,0,0,.81.2c-1.47-1.63-2.54-2.79-3.65-4,.25.19.5.37.74.52.09.06.2.1.29.15L156.5,30l.33,0,.3,0c-1.06-1.18-1.93-2.13-2.75-3l.49.08,2.63,2.91a4.52,4.52,0,0,0,.53-.11c-.95-1-1.75-1.95-2.51-2.77.12,0,.24,0,.35,0l2.47,2.7.46-.19-2.37-2.59.33-.08,2.32,2.54a2.38,2.38,0,0,0,1,.37c-.93-1-1.87-2.05-2.8-3.07l.28-.14c1,1.09,2,2.17,3,3.26h.14a3.44,3.44,0,0,0,.46,0c-.93-1-1.87-2.07-2.81-3.1a2.93,2.93,0,0,0,.53.13c.87,1,1.75,1.93,2.61,2.9a2.62,2.62,0,0,0,.46-.19c-.8-.9-1.61-1.79-2.42-2.68l.37,0c.77.85,1.54,1.7,2.3,2.56a2.6,2.6,0,0,0,.36-.3l-2.16-2.4.27-.14c.69.77,1.39,1.53,2.08,2.31a3.54,3.54,0,0,0,.19-.33l0-.11c-.63-.72-1.28-1.43-1.92-2.15a1.34,1.34,0,0,0,.21-.2ZM2.45,36,3,36.3l.23.09,2.54,2.23a1.86,1.86,0,0,0-.48-.06Zm3.5.9-.15.22-.71-.62.32-.07Zm-.1-.65.25-.15.25.22a2.09,2.09,0,0,0-.14.17l0,.05Zm.62,2h0l0,0v0h0l0,0,.06,0,0,0,0,0,0,0,0,0v0l0,0,0,0,.05,0v0l0,0,0,0,0,0v0l0,0,0,0,0,0v0l0,0,0,0,.05,0,0,0H7l0,0,0,0,0,0,.06,0,0,0,0,0,0,0,.06,0,0,0,.05,0,0,0,0,0v0l0,0,0,0,0,0v0l0,0,0,0,.05,0v0l-.07-.06-.17.26v0l0-.05,0,0,0,0,0-.05,0,0,0,0A2.37,2.37,0,0,0,6.58,39l-.2-.14.28,0L4.13,36.59h.41Zm0-2.4.16-.11.21.13a1.24,1.24,0,0,0-.18.14Zm16.61-.1a13,13,0,0,1-5.44,4.89,18.46,18.46,0,0,1-8,1.82,9.79,9.79,0,0,1-3.95-.57c-1-.4-1.43-1-1.43-1.71a.78.78,0,0,1,.31-.63,1.07,1.07,0,0,1,.68-.26h0a1.07,1.07,0,0,1,.72.25.76.76,0,0,1,.3.62.85.85,0,0,1-.28.64,1.22,1.22,0,0,1-.71.28,1.49,1.49,0,0,0,.93.29,2.48,2.48,0,0,0,1.6-.56,2,2,0,0,0,.69-1.64,2.39,2.39,0,0,0-.43-1.57A2.77,2.77,0,0,0,7,36.89a1.51,1.51,0,0,1,.63-.51,1.92,1.92,0,0,1,.89-.2V34.06a7.74,7.74,0,0,1-3.11-1.24.43.43,0,0,0,0-.2.72.72,0,0,0-.24-.55.8.8,0,0,0-.61-.21.78.78,0,0,0-.55.23.76.76,0,0,0-.24.56.56.56,0,0,0,.2.42,2.41,2.41,0,0,1-1.33.42,2.25,2.25,0,0,1-1-.22c.59-.37.88-1.27.88-2.71a11.09,11.09,0,0,0-.2-2.22,10,10,0,0,1-.2-1.95,7.65,7.65,0,0,1,1.32-4.34,9.77,9.77,0,0,1,3.72-3.2,14.38,14.38,0,0,1,5.55-1.45A11.85,11.85,0,0,1,19,18.57a10.73,10.73,0,0,1,4.43,4.06A11.06,11.06,0,0,1,25,28.5,13.67,13.67,0,0,1,23.07,35.79ZM7.34,39.4h0ZM7.4,40l0,0h0ZM27,20.73a1.58,1.58,0,0,1,.49-1.15A1.94,1.94,0,0,1,28.69,19a1.49,1.49,0,0,1,1.18.32,1.24,1.24,0,0,1,.49,1,1.66,1.66,0,0,1-.49,1.19,1.83,1.83,0,0,1-1.18.58,1.54,1.54,0,0,1-1.21-.34A1.34,1.34,0,0,1,27,20.73ZM25.82,38.58l-.2-.17,0,0h0v0h0v.05h0v0h0v0h0Zm0,0,0,0h0Zm0,0h0Zm5.23-15a1.61,1.61,0,0,0-.83.71,2.17,2.17,0,0,0-.3,1.13v2.41a5.75,5.75,0,0,0,.14,1.45,2.25,2.25,0,0,0,.45.85,2.79,2.79,0,0,0-.44.86A5.41,5.41,0,0,0,30,32.55V35a1.85,1.85,0,0,0,.3,1.07,1.33,1.33,0,0,0,.83.59v0c-2,.17-2.94.25-4.9.39v0a1.77,1.77,0,0,0,.84-.71,2.11,2.11,0,0,0,.3-1.12V32.78a5.11,5.11,0,0,0-.15-1.44,1.78,1.78,0,0,0-.45-.78,2.63,2.63,0,0,0,.45-.92,5.51,5.51,0,0,0,.15-1.47v-2.4a1.87,1.87,0,0,0-.3-1.07,1.27,1.27,0,0,0-.84-.54v-.08c2-.18,2.94-.28,4.9-.49Zm1.52,13.07v-.12l0,0,0,0,0,.05,0,0,0,0,0,0,0,.05,0,0Zm1,1.45h0v0Zm2.83-2.27a2.26,2.26,0,0,1-1.28.58,2.47,2.47,0,0,1-1.79-.42,2.1,2.1,0,0,1-.7-1.79v-2a5.49,5.49,0,0,0-.14-1.5,2,2,0,0,0-.45-.81,2.38,2.38,0,0,0,.45-.9,5.6,5.6,0,0,0,.14-1.49V19.87a1.08,1.08,0,0,1-.75-.14.48.48,0,0,1-.21-.51,1.67,1.67,0,0,0,1-.35,5.13,5.13,0,0,0,.7-.7c.23-.29.45-.56.63-.83A8.68,8.68,0,0,1,35.2,16a2.24,2.24,0,0,1,1.24-.54,3.24,3.24,0,0,0-.73,1.24,4.79,4.79,0,0,0-.29,1.63V33.16a1.52,1.52,0,0,0,.4,1.21,1.41,1.41,0,0,0,1.27.23A1.7,1.7,0,0,1,36.5,35.92Zm1.58-14.23,1.12.91-.23.2-.89-.73Zm0,1,.54.45-.21.2L38.08,23Zm8.66,11.81a.91.91,0,0,1,.2.6l-2.38.28a5.69,5.69,0,0,1-2,.54,4.47,4.47,0,0,1-2.23-.2,6.63,6.63,0,0,1-1.67-1.06,5.49,5.49,0,0,0-1-.71,3.66,3.66,0,0,0,.42-1,4.54,4.54,0,0,0,.17-1.28,5.17,5.17,0,0,0-.15-1.28,2.19,2.19,0,0,0-.41-.88,2.74,2.74,0,0,0,.44-.89,6.62,6.62,0,0,0,.12-1.48A3.18,3.18,0,0,0,37.66,25a11.14,11.14,0,0,0,1.1-1,14.09,14.09,0,0,1,1.79-1.47,4.47,4.47,0,0,1,1.92-.68,3.39,3.39,0,0,1,1.77.17,6.53,6.53,0,0,1,1.49,1c.09.06.24.17.45.34a3.09,3.09,0,0,0,.62.4,8.15,8.15,0,0,0-.11,1.63V26.5A6.81,6.81,0,0,0,43.79,28a9.11,9.11,0,0,0-2.13,2.55,5.4,5.4,0,0,0-.77,2.6,2.09,2.09,0,0,0,.49,1.47,1.41,1.41,0,0,0,1.23.45,2.59,2.59,0,0,0,1.81-.92,2.55,2.55,0,0,0,.65-1.69,2,2,0,0,0-.42-1.26,1.37,1.37,0,0,0-1-.57,1.31,1.31,0,0,1,.47-.93,2,2,0,0,1,1.15-.53,1.32,1.32,0,0,1,1.34.55A3.07,3.07,0,0,1,47,31.54a4.1,4.1,0,0,1-.88,2.54A1.09,1.09,0,0,1,46.74,34.46Zm1.13-4.54h0l0,0h0l.06,0s0,.08,0,.13ZM49.13,36l.12-.27h0l0,.05,0,0,0,0,0,0,0,.05,0,0s0,0,0,0l0,.05,0,0,0,0,0,0,0,.05,0,0,0,0,0,0,0,.05,0,0,0,0,0,.05,0,0,0,0s0,0,0,0h0Zm4.31-15.51a7.2,7.2,0,0,1-.87,1.35,2.15,2.15,0,0,1-1.1.43v9.14a1.55,1.55,0,0,0,.4,1.25,1.18,1.18,0,0,0,1,.26,1.62,1.62,0,0,0,.37-.08,1.78,1.78,0,0,1-.61,1.38,2.46,2.46,0,0,1-1.32.63,2.34,2.34,0,0,1-1.78-.39,2.18,2.18,0,0,1-.68-1.82v-2a5.84,5.84,0,0,0-.14-1.49,2.28,2.28,0,0,0-.43-.8,3.17,3.17,0,0,0,.43-.95,6.63,6.63,0,0,0,.14-1.55v-4a1.48,1.48,0,0,0-.65-.07,1.83,1.83,0,0,0-.71.26.54.54,0,0,1,.31-.52,2.28,2.28,0,0,1,.88-.29l.17,0V17.74h0a1,1,0,0,1-.75-.12.49.49,0,0,1-.21-.52,1.64,1.64,0,0,0,1-.38,5.05,5.05,0,0,0,.7-.74c.23-.3.44-.58.63-.87a10.45,10.45,0,0,1,1.13-1.43,2.28,2.28,0,0,1,1.25-.58,3.53,3.53,0,0,0-.74,1.29,5.29,5.29,0,0,0-.28,1.68V21A2.83,2.83,0,0,0,53,20.08a3.1,3.1,0,0,0,.75-1.32.65.65,0,0,1,.15.46A3.27,3.27,0,0,1,53.44,20.51Zm7.69,3.58a.08.08,0,0,0,0,0l0,.05,0,0,0,.05,0,.05s0,0,0,0l0,.05s0,0,0,0l0,0L61,24.14Zm-.27.5,1.27,1-.23.23-1-.85Zm0,1,.72.59c-.07.07-.13.15-.2.23L60.86,26Zm0,1,.23.18L60.9,27l0,0Zm-6.67-9.15s0,0,0,0l0,.05,0,0a.08.08,0,0,0,0,0l0,.05s0,0,0,0l0,.05s0,0,0,0l0,.05,0,0-.33-.27S54.19,17.49,54.19,17.44Zm-.07,7.75.13-.05.4.33c0,.13,0,.24,0,.35l-.51-.42Zm0,.81.43.35h0a2.47,2.47,0,0,1-.1.29l-.33-.26Zm0,1,.1.08-.1.15Zm0,1,.25.2v0h0l0,0h0a1.62,1.62,0,0,1,.13.33,1.27,1.27,0,0,1,0,.18l-.47-.39Zm0,1,.53.43c0,.11,0,.23,0,.37l-.54-.44Zm0,1,.54.44v.39l-.54-.45Zm0,1.38v-.39l.54.44v.39Zm.44,1h0Zm0,.05v0l0,0Zm.07.09v-.06h0v0l.06,0v0Zm0,0h0Zm1.16,2.28Zm4.31-15.27a7.5,7.5,0,0,1-.86,1.37,2.28,2.28,0,0,1-1.1.44v9.24a1.57,1.57,0,0,0,.39,1.25,1.22,1.22,0,0,0,1,.26,2,2,0,0,0,.36-.08,1.82,1.82,0,0,1-.6,1.4A2.55,2.55,0,0,1,58,34a2.33,2.33,0,0,1-1.78-.38,2.16,2.16,0,0,1-.68-1.83V29.73a6,6,0,0,0-.14-1.51,2.42,2.42,0,0,0-.43-.81,3.23,3.23,0,0,0,.43-1,6.76,6.76,0,0,0,.14-1.57V20.83a1.36,1.36,0,0,0-.65-.07,1.7,1.7,0,0,0-.71.27.56.56,0,0,1,.31-.54,2.28,2.28,0,0,1,.88-.29l.17,0V16.72h0a1,1,0,0,1-.75-.11.5.5,0,0,1-.21-.53,1.62,1.62,0,0,0,1-.39,5.15,5.15,0,0,0,.69-.75c.24-.3.45-.6.64-.88A9.73,9.73,0,0,1,58,12.6a2.33,2.33,0,0,1,1.25-.6,3.57,3.57,0,0,0-.74,1.31,5.18,5.18,0,0,0-.28,1.7v5a2.91,2.91,0,0,0,1.54-.94,3.1,3.1,0,0,0,.75-1.34.75.75,0,0,1,.14.47A3.22,3.22,0,0,1,60.17,19.49ZM70.39,31.94a1.94,1.94,0,0,1-.92.36,1.61,1.61,0,0,1-1.61-.5,4.78,4.78,0,0,1-2.77,1.25,4.71,4.71,0,0,1-3.22-.5,2.6,2.6,0,0,1-1.23-2.38,4.3,4.3,0,0,1,.68-2.35A8,8,0,0,1,62.92,26c.61-.51,1.4-1.09,2.33-1.73A17.85,17.85,0,0,0,67,22.92a1.4,1.4,0,0,0,.56-1V20.81a1,1,0,0,0-.41-.78,2.89,2.89,0,0,0-2.23-.63,2.44,2.44,0,0,0-1.33.63,1.5,1.5,0,0,0-.51,1.12.79.79,0,0,0,1,.84,1.25,1.25,0,0,0,.66-.29.74.74,0,0,0,.27-.57.35.35,0,0,0-.11-.26.56.56,0,0,1,.61.07.93.93,0,0,1,.32.81,2.11,2.11,0,0,1-.65,1.46,2.49,2.49,0,0,1-1.42.79,2.07,2.07,0,0,1-1.82-.45,2.29,2.29,0,0,1-.67-1.73,2.74,2.74,0,0,1,.91-2.06,4.4,4.4,0,0,1,2.38-1.1,5.18,5.18,0,0,1,1.62,0,17,17,0,0,1,1.92.4c.56.14,1,.25,1.38.3a3.1,3.1,0,0,0,1,0,10,10,0,0,0-.22,2.6v.58a5.84,5.84,0,0,0,.15,1.54,2.34,2.34,0,0,0,.47.85,3.74,3.74,0,0,0-.47,1,5.93,5.93,0,0,0-.15,1.55v3a1,1,0,0,0,.18.6.66.66,0,0,0,.53.25A1.56,1.56,0,0,1,70.39,31.94Zm2.51,3.11-.17-.15,0,0h0v.06h0V35h0v0h0Zm0,0,0,0h0Zm5.8-3.59h0Zm-.24-.84v-.18h0l0,.05,0,0,0,.05,0,.05,0,0,0,0,0,0,0,.05,0,0,0,.05h0Zm1.07,1.93h0l0,0v0h0v0h0v0h0v0h0v0h0v0h0v0h0v0h0v0h0v0h0v0h0v0h0v0h0v0h0v0h0v0h0v0h0v0h0v0h0v0h0v0h0v0h0v0l1,.86a3.71,3.71,0,0,0,.14.53Zm3.7.66a1.18,1.18,0,0,1-.74.38A1.42,1.42,0,0,1,81,33a4.52,4.52,0,0,1-.51-2.42v-.14a2.07,2.07,0,0,1-1.24-.56,1.66,1.66,0,0,1-.48-1.25V19a2.36,2.36,0,0,0-.15-1,1.28,1.28,0,0,0-.46-.56,1,1,0,0,0-.7-.12,1.67,1.67,0,0,0-1,.58,1.76,1.76,0,0,0-.4,1.2,1.15,1.15,0,0,0,.34.85,1,1,0,0,0,.91.24,1.32,1.32,0,0,1-.32.88,1.47,1.47,0,0,1-1,.48l-.14,0v7.63a2.14,2.14,0,0,0,.28,1.14,1.22,1.22,0,0,0,.82.58V31l-4.89.71v-.06a1.88,1.88,0,0,0,.83-.82,2.48,2.48,0,0,0,.3-1.22V27A6.24,6.24,0,0,0,73,25.5a2.25,2.25,0,0,0-.45-.82,3.71,3.71,0,0,0,.43-1,6.07,6.07,0,0,0,.16-1.62v-3a1,1,0,0,0-.18-.63.63.63,0,0,0-.53-.23,1.48,1.48,0,0,1,.51-.59,2.28,2.28,0,0,1,.94-.35,1.9,1.9,0,0,1,1.44.24,4,4,0,0,1,2.12-1,3.38,3.38,0,0,1,1.86.14,7.59,7.59,0,0,1,1.57,1,6.27,6.27,0,0,0,1.1.76,3.76,3.76,0,0,0-.59,2.47V32.08a1.5,1.5,0,0,0,.14.74v-.08a1.18,1.18,0,0,1,1-1.13.84.84,0,0,1,.71.19.89.89,0,0,1,.28.66A1.2,1.2,0,0,1,83.26,33.24Zm5.42-18.41a8.14,8.14,0,0,1-.87,1.43,2.23,2.23,0,0,1-1.1.47v9.63a1.69,1.69,0,0,0,.4,1.32,1.14,1.14,0,0,0,1,.25,1.62,1.62,0,0,0,.37-.08,1.94,1.94,0,0,1-.61,1.46,2.48,2.48,0,0,1-1.32.68,2,2,0,0,1-2.46-2.29V25.54A6.47,6.47,0,0,0,83.91,24a2.57,2.57,0,0,0-.43-.84,3.6,3.6,0,0,0,.43-1,7.57,7.57,0,0,0,.14-1.65V16.25a1.47,1.47,0,0,0-.65-.06,1.6,1.6,0,0,0-.71.29.6.6,0,0,1,.31-.57,2.28,2.28,0,0,1,.88-.31l.17,0V12h0a1,1,0,0,1-.75-.11.52.52,0,0,1-.21-.55,1.64,1.64,0,0,0,1-.42,4.64,4.64,0,0,0,.69-.79c.24-.32.45-.62.64-.92a9.76,9.76,0,0,1,1.13-1.52A2.18,2.18,0,0,1,87.73,7,3.94,3.94,0,0,0,87,8.39a5.66,5.66,0,0,0-.28,1.78v5.19a2.83,2.83,0,0,0,1.54-1A3.3,3.3,0,0,0,89,13a.72.72,0,0,1,.14.49A3.58,3.58,0,0,1,88.68,14.83ZM98.23,27.3a1.09,1.09,0,0,1,.2.65l-2.38.33a5.37,5.37,0,0,1-2,.63,4.25,4.25,0,0,1-2.24-.16,6.88,6.88,0,0,1-1.67-1.09,4.56,4.56,0,0,0-1-.74,4.15,4.15,0,0,0,.43-1.11,5.81,5.81,0,0,0,.17-1.39A5.56,5.56,0,0,0,89.58,23a2.25,2.25,0,0,0-.41-.93,2.83,2.83,0,0,0,.44-1,7.1,7.1,0,0,0,.13-1.61,3.47,3.47,0,0,0-.6-2.23,11.78,11.78,0,0,0,1.11-1.06A13.86,13.86,0,0,1,92,14.6,4.35,4.35,0,0,1,94,13.82a3,3,0,0,1,1.76.15,6.08,6.08,0,0,1,1.49,1,5.09,5.09,0,0,1,.45.37,2.88,2.88,0,0,0,.63.42,9.37,9.37,0,0,0-.12,1.76v1.16a6.72,6.72,0,0,0-2.9,1.67,10.11,10.11,0,0,0-2.12,2.8A6.35,6.35,0,0,0,92.37,26a2.29,2.29,0,0,0,.5,1.57A1.29,1.29,0,0,0,94.1,28a2.66,2.66,0,0,0,1.81-1,3,3,0,0,0,.65-1.85,2.21,2.21,0,0,0-.42-1.35,1.38,1.38,0,0,0-1-.6,1.45,1.45,0,0,1,.47-1,2,2,0,0,1,1.14-.59,1.3,1.3,0,0,1,1.35.57,3.52,3.52,0,0,1,.46,1.95,4.73,4.73,0,0,1-.87,2.76A1.06,1.06,0,0,1,98.23,27.3Zm2.6-6.91.11.1a2.52,2.52,0,0,0,0,.37l-.06-.06Zm0,1.46h0v-.41l.14.13,0,.2.16.4Zm.29-1.85-.28-.26v-.4l.43.37A2,2,0,0,0,101.11,20Zm1.79,4.76h0v0Zm1-.13a1.2,1.2,0,0,1,.35-.11l.37.34c.09.23.19.45.29.67Zm21.37,5a2.13,2.13,0,0,1-1.29.63,2.67,2.67,0,0,1-1.72-.39,2.25,2.25,0,0,1-1-1.5,6.31,6.31,0,0,1-2.2,1.82,9.18,9.18,0,0,1-3.18.91,9.83,9.83,0,0,1-4.83-.62,9.33,9.33,0,0,1-3.83-2.93,13.65,13.65,0,0,1-2.44-5.06,1.81,1.81,0,0,0-.86-1.1,2.1,2.1,0,0,0-1.43-.27,2,2,0,0,0-.68.21,1.42,1.42,0,0,1-.08-.45,1.74,1.74,0,0,1,.59-1.23,2.33,2.33,0,0,1,1.3-.68,1.32,1.32,0,0,1,.71.07v-.76a17.74,17.74,0,0,1,1.71-7.68,17.74,17.74,0,0,1,4.52-6,11.79,11.79,0,0,1,5.89-2.86A4.8,4.8,0,0,1,120,2.4,6.19,6.19,0,0,1,122.23,5a5.17,5.17,0,0,0,1.61-1.18,2.52,2.52,0,0,0,.8-1.67,2.64,2.64,0,0,1,.62,1.94,6.52,6.52,0,0,1-.62,2.71,4.35,4.35,0,0,1-1.53,1.93.84.84,0,0,0-.31-.46.71.71,0,0,0-.51-.13.83.83,0,0,0-.57.35,1,1,0,0,0-.22.65.77.77,0,0,0,.11.41.71.71,0,0,0,.28.29,7.58,7.58,0,0,1-1.16,1.36c-.49.48-1.18,1.13-2.06,1.9-1.21,1.06-2.23,2-3,2.78a14.17,14.17,0,0,0-2,2.59,5.46,5.46,0,0,0-.84,2.85,3.18,3.18,0,0,0,.88,2.35,1.65,1.65,0,0,1,.44-.86,1.34,1.34,0,0,1,.81-.42,1.08,1.08,0,0,1,.93.27,1.18,1.18,0,0,1,.37.93v.06a1.74,1.74,0,0,1-.24.75,1.52,1.52,0,0,1-.64.55,1.87,1.87,0,0,1-.42.11h-.09a2.17,2.17,0,0,1-2.05-.91,4.23,4.23,0,0,1-.83-2.73,7.06,7.06,0,0,1,.73-3.17,27.9,27.9,0,0,1,2.15-3.52,28.58,28.58,0,0,0,1.62-2.53,5.13,5.13,0,0,0,.62-2,4.49,4.49,0,0,0,2-1.66A4.39,4.39,0,0,0,119.94,6a3.53,3.53,0,0,0-.51-1.9,3.14,3.14,0,0,0-3.2-1.47,4,4,0,0,0-1.87.8A4.76,4.76,0,0,0,113,5.07a4.38,4.38,0,0,0-.5,2,3.71,3.71,0,0,0,.41,1.73A2.84,2.84,0,0,0,114.05,10a3.15,3.15,0,0,1-1.75.88,2.07,2.07,0,0,1-2.21-1,11.28,11.28,0,0,0-1.59,3.3,16.91,16.91,0,0,0-.68,5.13,14.91,14.91,0,0,0,1.25,6.14,11.48,11.48,0,0,0,3.16,4.36A5.09,5.09,0,0,0,116,30.2a4.49,4.49,0,0,0,2.78-1.31,3.58,3.58,0,0,0,1.1-2.58,1.87,1.87,0,0,0-.35-1.19,1.57,1.57,0,0,0-.84-.55,1.75,1.75,0,0,0-.82,0,1.27,1.27,0,0,1,0-.32,1.77,1.77,0,0,1,.54-1.27,2.28,2.28,0,0,1,1.42-.66,2,2,0,0,1,1.44.38V15.2a18,18,0,0,0-2.15,2.18,3.24,3.24,0,0,0-.79,1.92,1,1,0,0,1-.89-.3,1.16,1.16,0,0,1-.36-.86,2.56,2.56,0,0,1,.6-1.58,7.4,7.4,0,0,1,1.43-1.42c.55-.43,1.32-1,2.25-1.57s1.87-1.32,2.4-1.75a2.81,2.81,0,0,0,1-1.34.54.54,0,0,1,.26.45,2.48,2.48,0,0,1-.77,1.57v14c0,1.27.47,1.85,1.42,1.76l.28-.06A1.92,1.92,0,0,1,125.3,29.63Zm-8.16-6.88h0l0-.05,0-.05,0,0,0-.05,0-.05,0-.05,0-.05,0,0,0-.05,0-.05a2.16,2.16,0,0,0-.27-.33,2.39,2.39,0,0,0-.44-.29l.09-.17v0l1.33,1.24-.17.27Zm.11,6.17a1.75,1.75,0,0,1-.32.12l-.48-.45h.28l.12,0Zm-2.8,0,0,.05,0,.05,0,.05,0,.05a5.59,5.59,0,0,1-1.77-1,6.86,6.86,0,0,1-.79-.74l0-.09.43.4c-.08-.28-.16-.57-.23-.86l-.71-.66c-.09-.21-.17-.42-.24-.64l.84.77c0-.25-.09-.51-.13-.77-.35-.32-.67-.62-1-.9l-.12-.54,1.06,1c0-.2,0-.4-.05-.6l.06.1,0,.05,0,.05,0,.05a.1.1,0,0,0,0,0l0,.05a.1.1,0,0,0,0,.05l0,.05,0,.05,0,0,0,.05,0,.05,0,.05,0,.05,0,0,0,.05,0,.05,0,.05,0,.05a.1.1,0,0,0,0,0h0c0,.06,0,.13,0,.2l.27.25,0,0,0,.05,0,.05,0,.06,0,.05,0,.05,0,.05,0,0,0,.05,0,.05,0,.05,0,.05a.1.1,0,0,1,0,0l0,.05,0,.05,0,.05,0,.05,0,0,0,.05,0,.05,0,.05,0,.05,0,.07-.9-.83a4.63,4.63,0,0,0,.44.86l0,.05,0,.05,0,.05,0,0,0,.05,0,.05,0,.06,0,.05,0,.05,0,.05,0,0,1.7,1.58a3.15,3.15,0,0,1-.58-.12l-.32-.29Zm-1.14-13.33c-.06.09-.12.17-.17.26l-1.49-1.35c0-.1.09-.2.14-.3Zm-.86-1.4a2.67,2.67,0,0,0,.7.18l.6.55c-.07.09-.13.19-.19.28Zm.42,2.08c-.05.09-.1.18-.16.27l-1.38-1.25.12-.31Zm-.41.7-.15.28-1.26-1.14.06-.18a.88.88,0,0,1,0-.15Zm-.38.72c0,.08-.09.17-.13.24s0,0,0,.05l-1.1-1c0-.12,0-.23.08-.35Zm-.36.75-.12.31-.93-.85c0-.12,0-.24,0-.36Zm-.29.81-.09.34-.78-.71,0-.39Zm-.21.89c0,.12,0,.24,0,.37l-.67-.62c0-.13,0-.27,0-.4C110.74,19.68,111,19.89,111.22,20.12Zm-.11,1c0,.13,0,.27,0,.41l-.62-.57v-.42Zm0,1.09.06.47-.65-.6c0-.15,0-.3,0-.45Zm.27,1.32a5.51,5.51,0,0,0,.31.7c-.36-.33-.7-.65-1-.94,0-.16-.05-.33-.07-.49C110.86,23,111.13,23.24,111.4,23.5ZM115,28.27a2.65,2.65,0,0,0,.73.26l.7.66a2.2,2.2,0,0,1-.37.07Zm2.47.11.25-.13.25.23a2,2,0,0,1-.24.19l-.3-.27Zm-1-7.35.16-.26,1.44,1.34-.23.2Zm.45-.65c0-.06.09-.13.14-.2h0l0,0,0,.05,0,.05,0,.05,0,.05,0,0,0,.05,0,.05,0,.05,0,.05,0,0,0,.05,0,.05,0,.05,0,.06,0,.05,0,.05,0,0Zm-3-6,.19,0h.06l-.11.16Zm4.86-6.79a2.54,2.54,0,0,1-.16.28L117,6.44a2.12,2.12,0,0,1,.31-.14Zm-.87-1.42.13,0,.28,0,.72.65a2,2,0,0,1-.09.35Zm.44,2.11-.2.25-1.75-1.6.22-.19,0,0Zm-.55.58a2.48,2.48,0,0,1-.26.19L115.82,7.5l.19-.25C116.55,7.73,117.1,8.24,117.76,8.84Zm-.7.44-.17.09-.14.06-1.32-1.21c0-.09.07-.18.12-.28v0Zm-.78.38,0,.39-1-1c0-.12,0-.24.06-.36C115.58,9,115.92,9.32,116.28,9.66Zm-.16,1,0,0,0,0h0Zm0,0v0h0Zm-.06-.07h0ZM118.05,28a2.18,2.18,0,0,0,.22-.21l.19.18-.19.24Zm9-.55,0,0h0Zm0,0h0Zm.86-20,.93.88-.4,0-.58-.55C127.83,7.61,127.85,7.48,127.86,7.36Zm-.17.93.07.07h-.08S127.69,8.32,127.69,8.29Zm-.64,16.31-.18-.17v-.12l0,0,0,0,0,0v0l0,0,0,0,0,0,0,0,.06,0,0,0,0,0Zm0,0,0,0h0ZM137.2,8.36c-.64.31-1,1-1,2.14v2.85a7.64,7.64,0,0,0,.14,1.7,2.66,2.66,0,0,0,.46.94,3.21,3.21,0,0,0-.46,1,8.26,8.26,0,0,0-.14,1.74v3.3a1.32,1.32,0,0,0,.17.68.76.76,0,0,0,.51.34,1.47,1.47,0,0,1-.52.58,1.93,1.93,0,0,1-.92.3,1.68,1.68,0,0,1-1.47-.5,4.17,4.17,0,0,1-2.32,1,3.42,3.42,0,0,1-1.92-.32,9,9,0,0,1-1.71-1.23A7.32,7.32,0,0,0,127,22a4.12,4.12,0,0,0,.59-2.6V18.15h-.08c-.74.08-1.12-.31-1.13-1.15a1.14,1.14,0,0,0,.92-.57,2.36,2.36,0,0,0,.29-1.19V11.41c0-1.11-.32-1.74-1-1.91V9.44c1.83-.22,2.75-.32,4.59-.52V9c-.65.31-1,1-1,2.13V21.85a1.64,1.64,0,0,0,.46,1.26,1.28,1.28,0,0,0,1,.4A1.9,1.9,0,0,0,132.9,23a1.72,1.72,0,0,0,.51-1.27,1.35,1.35,0,0,0-.34-.93,1,1,0,0,0-.9-.32,1.41,1.41,0,0,1,.31-.95,1.39,1.39,0,0,1,1-.42h.14V10.76c0-1.11-.32-1.76-1-1.94V8.76l4.58-.46Zm8,6.82a1.68,1.68,0,0,1-1.36-.5,1.85,1.85,0,0,1-.56-1.38,2.06,2.06,0,0,1,.37-1.25,1.19,1.19,0,0,1,.87-.54.93.93,0,0,1,.75.26,1,1,0,0,1,.3.76,1.21,1.21,0,0,1-.24.73,1.06,1.06,0,0,1-.61.41,1.22,1.22,0,0,0,.34,0,1.28,1.28,0,0,0,1-.63,2.34,2.34,0,0,0,.41-1.38,2.09,2.09,0,0,0-.52-1.41,1.54,1.54,0,0,0-1.34-.54,2.49,2.49,0,0,0-1.81,1A3.44,3.44,0,0,0,142.1,13a4.46,4.46,0,0,0,.43,2,2.94,2.94,0,0,0,1,1.21,1.12,1.12,0,0,1-.4.6,1.23,1.23,0,0,1-.71.28,1.47,1.47,0,0,1-.31,0v4a2.64,2.64,0,0,0,.3,1.31,1.37,1.37,0,0,0,.8.69v.1c-1.94.11-2.92.17-4.86.31v-.09a1.6,1.6,0,0,0,.8-.8,2.85,2.85,0,0,0,.3-1.34V18.48a7.68,7.68,0,0,0-.14-1.71,2.88,2.88,0,0,0-.45-.95,3.85,3.85,0,0,0,.43-1.05,6.87,6.87,0,0,0,.16-1.73V9.72a1.41,1.41,0,0,0-.17-.69.62.62,0,0,0-.51-.32,1.48,1.48,0,0,1,.52-.58,1.87,1.87,0,0,1,.92-.31,1.75,1.75,0,0,1,1.36.39,1.65,1.65,0,0,1,.54,1.33v.12A6.1,6.1,0,0,1,143.23,8a2.45,2.45,0,0,1,1.59-.75,2,2,0,0,1,1.84.64.94.94,0,0,1,.54-.19.55.55,0,0,1,.62.33,1.3,1.3,0,0,0-.65.51,1.53,1.53,0,0,0-.29.92,6.91,6.91,0,0,0,.2,1.45,6.9,6.9,0,0,1,.17,1.48,3.31,3.31,0,0,1-.54,1.87A1.79,1.79,0,0,1,145.24,15.18Zm2.68,6c-.59-.63-1.2-1.24-1.8-1.87a.08.08,0,0,0,0,0l.07-.3,1.48,1.53-.12.13.05,0,0,0,.06,0,0,0,.05,0,0,0,.05,0,0,0,.06,0,0,0,0,0,0,0,.06,0,0,0,.05,0,0,0,.06,0,0,0,.05,0Zm.05,0h0Zm0-1.07c-.38-.39-.76-.78-1.13-1.18H147l.26,0,.94,1Zm.49-.61-.71-.73a1.36,1.36,0,0,0,.3-.13l.51.53A2.82,2.82,0,0,1,148.5,19.52Zm.18-.93-.18-.19.21-.16C148.7,18.37,148.69,18.48,148.68,18.59ZM159.25,7c-.64.27-1,1-1,2.14v2.93a8.21,8.21,0,0,0,.14,1.76,3.05,3.05,0,0,0,.46,1,3.12,3.12,0,0,0-.46,1,8.5,8.5,0,0,0-.14,1.78V21a1.43,1.43,0,0,0,.17.71.78.78,0,0,0,.51.39,1.31,1.31,0,0,1-.52.56,1.82,1.82,0,0,1-.92.24,1.75,1.75,0,0,1-1.48-.61,3.9,3.9,0,0,1-2.32.84,3.58,3.58,0,0,1-1.91-.45,10.33,10.33,0,0,1-1.71-1.38,9.5,9.5,0,0,0-1.1-.95,4.14,4.14,0,0,0,.59-2.64V16.43h-.08c-.74,0-1.12-.38-1.14-1.25a1.05,1.05,0,0,0,.92-.53,2.31,2.31,0,0,0,.3-1.21v-4c0-1.14-.32-1.82-1-2V7.4c1.83-.11,2.75-.16,4.58-.25v.06c-.64.28-1,1-1,2.14V20.41a1.86,1.86,0,0,0,.45,1.33,1.36,1.36,0,0,0,1,.48,1.8,1.8,0,0,0,1.19-.5,1.67,1.67,0,0,0,.51-1.27,1.48,1.48,0,0,0-.34-1,1.07,1.07,0,0,0-.91-.4,1.4,1.4,0,0,1,.32-.95,1.25,1.25,0,0,1,1-.37h.14V9.21c0-1.15-.32-1.84-1-2.06V7.09c1.83-.08,2.75-.11,4.58-.16Z" fill="#1c1b0a"/><path d="M4.53,22.79a6.29,6.29,0,0,0-1,3.45,6.53,6.53,0,0,0,.63,2.85,6.3,6.3,0,0,0,1.78,2.24A5.8,5.8,0,0,0,8.5,32.49a4.81,4.81,0,0,0-.14-1.37,2.23,2.23,0,0,0-.42-.81,2.06,2.06,0,0,0,.42-.82,5.12,5.12,0,0,0,.14-1.42V22.16A1.19,1.19,0,0,1,7.78,22a.44.44,0,0,1-.15-.51A1.17,1.17,0,0,0,8,21.41a3.13,3.13,0,0,0,.54-.19,2.69,2.69,0,0,0,.79-.58c.23-.24.51-.57.85-1a11.33,11.33,0,0,1,1.05-1.17A11.09,11.09,0,0,0,7.34,20,9.07,9.07,0,0,0,4.53,22.79Zm1.64,6.09,1.09.94s0,0,0,0L7.09,30l-.89-.76A2.56,2.56,0,0,1,6.17,28.88Zm.29,1.53c0-.16-.1-.32-.14-.48l.62.54,0,0H7l0,0H7l0,0h0l0,0h0l0,0h0l0,0h0l0,0h0l0,0h0l0,0h0l0,.05h0l0,0h0l0,0h0a1.69,1.69,0,0,1,.11.27Zm1,.93h0v0Zm0-2a.61.61,0,0,1,0,.12l-1.3-1.12c0-.12,0-.23,0-.34l1.37,1.17C7.53,29.22,7.52,29.28,7.51,29.32Zm.09-.67L6.25,27.48c0-.1,0-.2.07-.3l1.3,1.12C7.62,28.43,7.61,28.54,7.6,28.65Zm0-.9-1.17-1c0-.09.06-.18.1-.27l1.07.92Zm0-.92-.9-.77.13-.25.77.66Zm0-.92-.55-.47.15-.23.4.34Zm0-1.23V25l-.14-.12Z" fill="#1c1b0a"/><path d="M18.41,20s-.06,0-.06,0a3.24,3.24,0,0,0-2.29-.72,2.71,2.71,0,0,0-1.84.9,1,1,0,0,1-.66-.4,1.21,1.21,0,0,1-.24-.73,1.06,1.06,0,0,1,.34-.81c-.42,0-.75,0-1,0l-.46,0a4,4,0,0,0-.68,2.31v11.7a5.13,5.13,0,0,0,2.32-1.25,2.6,2.6,0,0,0,.88-1.91,2.82,2.82,0,0,0-.31-1.4,1.8,1.8,0,0,0-.78-.77,1.51,1.51,0,0,0-.89-.14,1.15,1.15,0,0,1-.11-.55A1.56,1.56,0,0,1,13.29,25a2.87,2.87,0,0,1,1.72-.6,2.84,2.84,0,0,1,2.43.83,3.69,3.69,0,0,1,.83,2.51,5.11,5.11,0,0,1-1,2.95,8,8,0,0,1-2.54,2.33,8.52,8.52,0,0,1-3.22,1.13v7.34a17.13,17.13,0,0,0,5.78-1.86,10.32,10.32,0,0,0,3.88-3.36,1.93,1.93,0,0,1-.46.08A3.14,3.14,0,0,1,18.92,36,1.9,1.9,0,0,1,18,34.32,5.22,5.22,0,0,0,20.75,32a7.64,7.64,0,0,0,1-4,11.13,11.13,0,0,0-.91-4.68A8.49,8.49,0,0,0,18.41,20Zm-4,20-.23-.2v-.36c.17.16.35.31.53.46Zm.75-.27-1-.85v-.36l1.27,1.1Zm.34-.13v-.14l.32-.09L14.19,38v-.37c.59.52,1.24,1.07,2,1.69l.27-.09C16.12,39.37,15.82,39.51,15.51,39.63Zm1.09-.5-2.33-2,.32-.09,2.28,2Zm.66-.36-2.19-1.88.3-.1,2.15,1.84Zm.64-.39-2.08-1.77.28-.13,2,1.74Zm.81-.59a1.84,1.84,0,0,1-.22.17c-.66-.56-1.32-1.12-2-1.69l.26-.14ZM18,36.43l0,0,0,0,0,0,0,0,0,0,0,0,0,0,0,0,0,.05,0,0,0,0v0L17.16,35.9l.25-.16.21.18a.61.61,0,0,0,.07.1l0,0s0,0,0,0l0,0,0,0,0,0,0,0,0,.05,0,0Zm1.45-13.56a.63.63,0,0,0,.23.16l.11.1.06.12-.62-.52Zm-1.62-.5h.29l2.15,1.78c.06.17.11.34.17.51L17.7,22.39Zm-3.58-.24h0l0,0s0,0,0,0v0l0,0v0l0,0v0l0,0v0l0,0v0l0,0h0l0,0v0l0,0h0l0,0v0l.09.11-.44-.37C14.24,22.23,14.24,22.18,14.25,22.13Zm-.06,1.64v0l0,0Zm.82-.13-.23,0-.59-.49v-.37l1,.83Zm.86,0L15.13,23a1.9,1.9,0,0,0,.63.23l.09,0,.55.46A4.51,4.51,0,0,0,15.87,23.65Zm5,5.19h0l0,0,0-.05h0a3.91,3.91,0,0,0-.65-1.45l0-.05,0,0,0-.05,0,0,0-.05,0,0,0-.05,0,0,0-.05,0,0a.08.08,0,0,0,0,0l0-.05,0,0,0-.05,0,0,0-.05,0,0,0-.05,0,0,0-.05,0,0,0-.05,0,0,0-.05,0,0,0-.05,0,0a.08.08,0,0,0,0,0l0-.05,0,0,0-.05,0,0,0-.05,0,0,0-.05,0,0,0-.05,0,0,0,0,0,0,0,0,0,0,0,0,0,0,0,0,0-.05,0,0,0-.05,0,0,0-.05L18.32,25l.14-.09c-.76-.63-1.42-1.17-2-1.68l.18-.21,2.13,1.77a1.75,1.75,0,0,1,.41-.08h.17l-2.39-2a1.74,1.74,0,0,1,.26-.15l2.64,2.2a2.28,2.28,0,0,1,.69.28,11.82,11.82,0,0,1,.37,3A7.19,7.19,0,0,1,20.85,28.84Z" fill="#1c1b0a"/><path d="M33.91,5.23a13.09,13.09,0,0,0-4.1-2.85,12.88,12.88,0,0,0-5.06-1.09,12.75,12.75,0,0,0-5.08,1,13.12,13.12,0,0,0-7,6.84,13.11,13.11,0,0,0-1.1,5.06c0,.12,0,.24,0,.36.33,0,.66-.08,1-.1s.81,0,1.21,0a14.68,14.68,0,0,1,6.63,1.52,13.89,13.89,0,0,1,3.93,2.92,4.89,4.89,0,0,1,.94-1.3A5.17,5.17,0,0,1,28.4,16L29,16a4.68,4.68,0,0,1,1.45.22h.68l.39-.5a11.77,11.77,0,0,1,1.59-1.89,5.51,5.51,0,0,1,3-1.38l1.34-.18a13.46,13.46,0,0,0-.79-2.82A12.84,12.84,0,0,0,33.91,5.23ZM23.49,12.61a.4.4,0,0,1-.14.22.52.52,0,0,1-.33.09.6.6,0,0,1-.27-.06.93.93,0,0,1-.17.53.42.42,0,0,1-.35.19,1.36,1.36,0,0,1-.39.49.92.92,0,0,1-.56.22.37.37,0,0,1-.29-.12.38.38,0,0,1-.12-.28A.27.27,0,0,1,21,13.7a.24.24,0,0,1,.19-.08.22.22,0,0,1,.19.08.27.27,0,0,1,.08.19.31.31,0,0,1,0,.09.31.31,0,0,0,0,.08s0,0,.05,0q.36,0,.54-.51a4.39,4.39,0,0,0,.17-1.33V5.4c-.32-.17-.59-.3-.8-.39a1.88,1.88,0,0,0-.65-.13,2,2,0,0,0-.94.22,1.6,1.6,0,0,0-.62.59,1.68,1.68,0,0,0-.21.83,1.13,1.13,0,0,0,.13.54,1.09,1.09,0,0,0,1,.57.73.73,0,0,0,.51-.17,1,1,0,0,0,.28-.4,1.41,1.41,0,0,0,.08-.43.88.88,0,0,0,0-.2.54.54,0,0,0-.07-.13s-.05,0-.08,0,0,0,0,0a.28.28,0,0,1-.24.14.27.27,0,0,1-.27-.27A.32.32,0,0,1,20.24,6a.25.25,0,0,1,.21-.1.62.62,0,0,1,.54.31,1.38,1.38,0,0,1,.19.7,1.12,1.12,0,0,1-.08.42.38.38,0,0,1,0,.19.73.73,0,0,1-.16.41,1.29,1.29,0,0,1-.44.35,1.26,1.26,0,0,1-.6.14,1.61,1.61,0,0,1-1.44-.85,1.68,1.68,0,0,1-.22-.85,1.9,1.9,0,0,1,.32-1.07,2.11,2.11,0,0,1,.87-.74,2.82,2.82,0,0,1,1.24-.27,3.61,3.61,0,0,1,.91.12c.3.07.68.19,1.13.34l1.08.32a3.32,3.32,0,0,0,.81.1,2.59,2.59,0,0,0,.93-.15,1.46,1.46,0,0,0,.56-.39.19.19,0,0,0,0-.12.07.07,0,0,0,0-.07A.28.28,0,0,1,26,4.5a.27.27,0,0,1,.08-.19.24.24,0,0,1,.19-.08.25.25,0,0,1,.19.08.27.27,0,0,1,.08.19.83.83,0,0,1-.3.6v.11a.9.9,0,0,1-.33.65,2.06,2.06,0,0,1-1.31.3,4.06,4.06,0,0,1-1.51-.3v6a.72.72,0,0,0,.1.43.54.54,0,0,0,.3.2Zm4.08-5.36a.54.54,0,0,0-.3.27,1,1,0,0,0-.09.45V11.3a1,1,0,0,0,.09.45.56.56,0,0,0,.3.26v.1H25.94V12a.56.56,0,0,0,.31-.27.93.93,0,0,0,.09-.44V9.45H25.07V11.3a1,1,0,0,0,.09.45.6.6,0,0,0,.3.26v.1H23.83V12a.56.56,0,0,0,.31-.27,1.08,1.08,0,0,0,.08-.44V8a1,1,0,0,0-.09-.46.6.6,0,0,0-.3-.26V7.16h1.63v.09a.6.6,0,0,0-.3.26,1,1,0,0,0-.09.46V9.16h1.27V8a1,1,0,0,0-.1-.46.6.6,0,0,0-.3-.26V7.16h1.63Zm3.11,4.86H27.86V12a.72.72,0,0,0,.46-.71V8a.71.71,0,0,0-.46-.72V7.16h2.69v.93h-.09a1.74,1.74,0,0,0-.3-.45.53.53,0,0,0-.36-.15h-.63V9.14h.23A.68.68,0,0,0,30,8.7h.11V9.91H30a.66.66,0,0,0-.59-.44h-.23v2.3h.75a.5.5,0,0,0,.37-.15,1.67,1.67,0,0,0,.3-.5h.09Z" fill="#1c1b0a"/></svg>