<svg width="272" height="160" viewBox="0 0 272 160" fill="none" xmlns="http://www.w3.org/2000/svg">
<path d="M35.2037 72C47.5701 72 57.3188 67.082 63.5472 58.2295L50.0976 45.1475C46.3967 50.2623 41.9736 53.2131 36.2869 53.2131C27.4408 53.2131 21.4833 46.5246 21.4833 36C21.4833 25.4754 27.4408 18.7869 36.2869 18.7869C41.9736 18.7869 46.3967 21.7377 50.0976 26.8525L63.5472 13.7705C57.3188 4.91803 47.5701 0 35.2037 0C14.8939 0 0 14.8525 0 36C0 57.1475 14.8939 72 35.2037 72Z" fill="#090909"/>
<path d="M101.503 72C122.084 72 137.158 56.8525 137.158 36C137.158 15.1475 122.084 0 101.503 0C80.9227 0 65.8483 15.1475 65.8483 36C65.8483 56.8525 80.9227 72 101.503 72ZM101.503 53.2131C93.6501 53.2131 87.3315 46.7213 87.3315 36C87.3315 25.2787 93.6501 18.7869 101.503 18.7869C109.356 18.7869 115.675 25.2787 115.675 36C115.675 46.7213 109.356 53.2131 101.503 53.2131Z" fill="#090909"/>
<path d="M144.89 70.4262H176.032C197.154 70.4262 211.687 57.3443 211.687 36C211.687 14.6557 197.154 1.57377 176.032 1.57377H144.89V70.4262ZM166.193 52.3279V19.6721H175.129C184.066 19.6721 190.204 25.4754 190.204 36C190.204 46.5246 184.066 52.3279 175.129 52.3279H166.193Z" fill="#090909"/>
<path d="M240.407 52.918V43.8689H267.126V27.1475H240.407V19.082H270.827V1.57377H219.465V70.4262H272V52.918H240.407Z" fill="#090909"/>
<path d="M239.524 132.981C237.52 134.217 235.284 134.835 232.815 134.835C230.345 134.835 228.109 134.217 226.105 132.981C224.102 131.745 222.518 130.014 221.353 127.788C220.189 125.514 219.606 122.918 219.606 120C219.606 117.082 220.189 114.511 221.353 112.286C222.518 110.011 224.102 108.255 226.105 107.019C228.109 105.783 230.345 105.165 232.815 105.165C235.284 105.165 237.52 105.783 239.524 107.019C241.527 108.255 243.111 110.011 244.276 112.286C245.441 114.511 246.023 117.082 246.023 120C246.023 122.918 245.441 125.514 244.276 127.788C243.111 130.014 241.527 131.745 239.524 132.981Z" fill="#090909"/>
<path d="M46.5934 125.044L40.3037 108.429L34.014 125.044H46.5934Z" fill="#090909"/>
<path d="M159.362 130.459C156.846 132.981 153.492 134.242 149.298 134.242H140.563V105.758H149.298C153.492 105.758 156.846 107.019 159.362 109.541C161.924 112.063 163.206 115.549 163.206 120C163.206 124.451 161.924 127.937 159.362 130.459Z" fill="#090909"/>
<path fill-rule="evenodd" clip-rule="evenodd" d="M272 80H0V160H272V80ZM218.837 143.514C222.984 145.838 227.643 147 232.815 147C237.986 147 242.622 145.838 246.722 143.514C250.868 141.19 254.106 137.975 256.436 133.871C258.812 129.766 260 125.143 260 120C260 114.857 258.812 110.234 256.436 106.129C254.106 102.025 250.868 98.8104 246.722 96.4863C242.622 94.1621 237.986 93 232.815 93C227.643 93 222.984 94.1621 218.837 96.4863C214.737 98.8104 211.499 102.025 209.123 106.129C206.794 110.234 205.629 114.857 205.629 120C205.629 125.143 206.794 129.766 209.123 133.871C211.499 137.975 214.737 141.19 218.837 143.514ZM29.9606 135.874L26.1169 145.962H12L33.5947 94.0385H47.2223L68.8869 145.962H54.4905L50.6467 135.874H29.9606ZM94.3591 147C87.091 147 81.4303 144.898 77.3769 140.695C73.3701 136.492 71.3667 130.533 71.3667 122.819V94.0385H85.2041V122.374C85.2041 130.681 88.3024 134.835 94.4989 134.835C100.649 134.835 103.724 130.681 103.724 122.374V94.0385H117.351V122.819C117.351 130.533 115.325 136.492 111.271 140.695C107.265 144.898 101.627 147 94.3591 147ZM149.858 94.0385H126.725V145.962H149.858C155.215 145.962 159.968 144.898 164.114 142.772C168.261 140.646 171.476 137.629 173.758 133.723C176.041 129.816 177.183 125.242 177.183 120C177.183 114.758 176.041 110.184 173.758 106.277C171.476 102.371 168.261 99.3544 164.114 97.228C159.968 95.1017 155.215 94.0385 149.858 94.0385ZM184.463 94.0385H198.3V145.962H184.463V94.0385Z" fill="#090909"/>
</svg>
