<svg width="64" height="48" viewBox="0 0 64 48" fill="none" xmlns="http://www.w3.org/2000/svg">
<path d="M1.11081 47.0769V40.5658H4.66542V22.6998H0V18.2134L8.22003 16.1886H14.4406V40.5658H17.5509V47.0769H1.11081Z" fill="#F8FEFB"/>
<path d="M32.3632 47.6328C28.1915 47.6328 24.9701 46.3623 22.6991 43.8214C20.4528 41.2804 19.3296 37.2176 19.3296 31.6328C19.3296 26.048 20.4528 21.9851 22.6991 19.4442C24.9701 16.9033 28.1915 15.6328 32.3632 15.6328C36.5349 15.6328 39.7439 16.9033 41.9902 19.4442C44.2612 21.9851 45.3967 26.048 45.3967 31.6328C45.3967 36.7941 44.3476 40.7511 42.2494 43.5037C40.1759 46.2564 36.8805 47.6328 32.3632 47.6328ZM32.3632 40.5658C34.0417 40.5658 34.881 39.5865 34.881 37.6278V25.6377C34.881 23.6791 34.0417 22.6998 32.3632 22.6998C30.6846 22.6998 29.8453 23.6791 29.8453 25.6377V37.6278C29.8453 39.5865 30.6846 40.5658 32.3632 40.5658Z" fill="#F8FEFB"/>
<path d="M47.5599 47.0769V40.5658H51.1145V22.6998H46.4491V18.2134L54.6692 16.1886H60.8897V40.5658H64V47.0769H47.5599Z" fill="#F8FEFB"/>
<path d="M53.3509 5.5L47 11L47 -2.77605e-07L53.3509 5.5Z" fill="#F8FEFB"/>
<path d="M58.2397 5.5L51.8889 11L51.8889 -2.77605e-07L58.2397 5.5Z" fill="#F8FEFB"/>
<path d="M63.1286 5.5L56.7778 11L56.7778 -2.77605e-07L63.1286 5.5Z" fill="#F8FEFB"/>
<path d="M10.5754 3.42159H8.15655V2.31877H7.25652V8.68123H8.24093V11H2.33446V8.68123H3.31887V2.31877H2.41884V3.42159H0V0H10.5754V3.42159Z" fill="white"/>
<path d="M22.3078 2.31877H21.6047V8.68123H22.3078V11H16.992V8.68123H17.667V6.34833H15.6982V8.68123H16.3732V11H11.0574V8.68123H11.7605V2.31877H11.0574V0H16.3732V2.31877H15.6982V4.46787H17.667V2.31877H16.992V0H22.3078V2.31877Z" fill="white"/>
<path d="M33.1904 8.68123H33.7529V11H28.2402V8.68123H29.084L28.859 7.55013H26.9464L26.7214 8.68123H27.5652V11H22.7556V8.68123H23.3181L25.6948 0H30.8137L33.1904 8.68123ZM27.2558 6.05141H28.5496L27.973 3.23779H27.8324L27.2558 6.05141Z" fill="white"/>
<path d="M43 3.42159H40.5812V2.31877H39.6811V8.68123H40.6655V11H34.7591V8.68123H35.7435V2.31877H34.8434V3.42159H32.4246V0H43V3.42159Z" fill="white"/>
</svg>
