<svg xmlns="http://www.w3.org/2000/svg" viewBox="0 0 400 20.45"><path d="M384.1,10.15V10h-60V9.76H219.51a4.3,4.3,0,0,0-8.55,0h-.51C207.14,9.76,200,3.1,200,0h-.92c0,3.1-7.12,9.76-10.43,9.76h-.52a4.29,4.29,0,0,0-8.54,0H108.1V10h-94v.16H0v.91c6.5,0,16,6.47,16.1,6.53l.66.45,0-.79c0-.26.45-6.2,6.21-6.2h0L84.22,11h95.45a4.27,4.27,0,0,0,8.42,0h2c3.59,1.36,9,6.75,9,9.45H200c0-2.7,5.38-8.09,9-9.45h2a4.27,4.27,0,0,0,8.41,0H320.26l56.87.05c5.62.11,6,5.95,6.06,6.2l.05.8.65-.45c.1-.07,9.61-6.54,16.11-6.54v-.9Z" fill="#1c1b0a"/></svg>